<?xml version="1.0" standalone="no"?>
<!DOCTYPE svg PUBLIC "-//W3C//DTD SVG 1.1//EN" "http://www.w3.org/Graphics/SVG/1.1/DTD/svg11.dtd" >
<svg xmlns="http://www.w3.org/2000/svg" xmlns:xlink="http://www.w3.org/1999/xlink" version="1.1">
<metadata>
Created by FontForge 20161013 at Sun Dec 20 19:15:16 1992
 By ,,,
Copyright 1990-1993 Bitstream Inc.  All rights reserved.
</metadata>
<defs>
<font id="BellCentennialBT-SubCaption" horiz-adv-x="1024" >
  <font-face 
    font-family="Bell Centennial Sub-Caption BT"
    font-weight="400"
    font-variant="small-caps"
    font-stretch="semi-condensed"
    units-per-em="2048"
    panose-1="2 11 5 6 3 5 9 3 2 4"
    ascent="1638"
    descent="-410"
    x-height="995"
    cap-height="1366"
    bbox="-111 -483 2048 1947"
    underline-thickness="154"
    underline-position="-405"
    unicode-range="U+0020-F000"
  />
<missing-glyph horiz-adv-x="1229" 
d="M102 -362v1806h1024v-1806h-1024zM217 -248h795v1577h-795v-1577z" />
    <glyph glyph-name=".notdef" horiz-adv-x="1229" 
d="M102 -362v1806h1024v-1806h-1024zM217 -248h795v1577h-795v-1577z" />
    <glyph glyph-name=".null" horiz-adv-x="0" 
 />
    <glyph glyph-name="nonmarkingreturn" horiz-adv-x="512" 
 />
    <glyph glyph-name="space" unicode=" " horiz-adv-x="512" 
 />
    <glyph glyph-name="exclam" unicode="!" horiz-adv-x="512" 
d="M137 1366h238l-58 -995h-122zM147 227h218v-227h-218v227z" />
    <glyph glyph-name="quotedbl" unicode="&#x22;" horiz-adv-x="590" 
d="M496 1434v-553h-119v553h119zM211 1434v-553h-117v553h117z" />
    <glyph glyph-name="numbersign" unicode="#" horiz-adv-x="1575" 
d="M973 862h-264l-95 -272h263zM922 1456l-166 -471h260l168 471h143l-164 -471h307l-43 -123h-311l-94 -272h330l-43 -123h-332l-166 -469h-145l168 469h-265l-168 -469h-143l166 469h-320l43 123h320l96 272h-342l43 123h344l168 471h146z" />
    <glyph glyph-name="dollar" unicode="$" 
d="M465 1204q-94 -18 -140 -71t-46 -142q0 -90 47.5 -142.5t138.5 -61.5v417zM559 610v-469q91 14 141 77.5t50 164.5q0 91 -46.5 146t-144.5 81zM436 -6q-114 6 -194 41.5t-142 105.5v170h88q38 -81 96 -120.5t152 -48.5v476q-161 32 -246.5 121t-85.5 226q0 148 99 252.5
t262 125.5v113h127v-113q84 -12 149.5 -45.5t122.5 -93.5v-166h-73q-42 75 -88 113t-111 53v-422q164 -39 248 -131.5t84 -232.5q0 -172 -96 -283.5t-269 -140.5v-123h-123v123z" />
    <glyph glyph-name="ampersand" unicode="&#x26;" horiz-adv-x="1251" 
d="M856 168q-71 -101 -157 -150t-191 -49q-165 0 -283.5 117.5t-118.5 280.5q0 135 74.5 232.5t202.5 129.5v21q-102 63 -150.5 139.5t-48.5 175.5q0 145 96.5 237.5t247.5 92.5q156 0 253.5 -85.5t97.5 -215.5q0 -124 -81.5 -217t-222.5 -127v-23l314 -348h20v393h184
q2 -22 2.5 -43.5t0.5 -50.5q0 -112 -32 -200.5t-97 -160.5l295 -317h-250q-42 37 -80.5 78.5t-75.5 89.5zM389 651q-46 -51 -68 -102t-22 -109q0 -130 85 -224.5t202 -94.5q61 0 114 30.5t101 94.5l-381 405h-31zM559 827q67 61 98 122.5t31 133.5q0 88 -42.5 142.5
t-108.5 54.5q-67 0 -111.5 -53.5t-44.5 -132.5q0 -69 31.5 -130.5t105.5 -136.5h41z" />
    <glyph glyph-name="quotesingle" unicode="'" horiz-adv-x="305" 
d="M211 1434v-553h-117v553h117z" />
    <glyph glyph-name="parenleft" unicode="(" horiz-adv-x="682" 
d="M596 -281v-32h-176q-142 188 -210.5 396.5t-68.5 457.5t68.5 458.5t210.5 395.5h176v-33q-123 -142 -193.5 -360.5t-70.5 -460.5q0 -241 70.5 -459.5t193.5 -362.5z" />
    <glyph glyph-name="parenright" unicode=")" horiz-adv-x="682" 
d="M88 1360v33h174q143 -191 211 -399t68 -455q0 -248 -68 -456t-211 -396h-174v32q123 144 192.5 361t69.5 459q0 241 -69.5 458.5t-192.5 362.5z" />
    <glyph glyph-name="asterisk" unicode="*" 
d="M569 1028l328 117l43 -127l-346 -94l229 -295l-118 -82l-193 307l-193 -307l-118 82l229 295l-346 94l43 127l328 -117l-15 367h144z" />
    <glyph glyph-name="plus" unicode="+" horiz-adv-x="1706" 
d="M913 1221v-551h539v-117h-539v-553h-118v553h-541v117h541v551h118z" />
    <glyph glyph-name="comma" unicode="," horiz-adv-x="512" 
d="M147 227h218v-227q0 -179 -46.5 -243t-164.5 -64h-7l1 86q58 5 80 36.5t22 129.5v84h-103v198z" />
    <glyph glyph-name="hyphen" unicode="-" horiz-adv-x="682" 
d="M86 760h512v-154h-512v154z" />
    <glyph glyph-name="period" unicode="." horiz-adv-x="512" 
d="M147 227h218v-227h-218v227z" />
    <glyph glyph-name="slash" unicode="/" 
d="M750 1395h163l-639 -1424h-163z" />
    <glyph glyph-name="zero" unicode="0" 
d="M506 1245q-124 0 -175.5 -108t-51.5 -381q0 -236 6 -325t20 -148q17 -71 76 -117.5t131 -46.5q127 0 180 107.5t53 389.5q0 418 -51 523.5t-188 105.5zM86 729q0 333 106 499.5t318 166.5q221 0 324.5 -172t103.5 -543q0 -376 -101.5 -542.5t-328.5 -166.5t-324.5 172
t-97.5 586z" />
    <glyph glyph-name="one" unicode="1" 
d="M115 145h319v1065h-319v156h518v-1221h276v-145h-794v145z" />
    <glyph glyph-name="two" unicode="2" 
d="M313 946h-192q-1 9 -1.5 20.5t-0.5 32.5q0 191 99 293.5t284 102.5q188 0 297.5 -101.5t109.5 -275.5q0 -221 -306 -516l-19 -19q-158 -153 -215.5 -223.5t-75.5 -122.5l18 -16q59 29 138.5 43t179.5 14h278v-178h-792q-1 8 -1.5 18t-0.5 29q0 105 48.5 198.5
t198.5 246.5q223 224 287 332.5t64 213.5q0 97 -53 154t-142 57q-108 0 -153 -66t-50 -237z" />
    <glyph glyph-name="three" unicode="3" 
d="M98 293h92q39 -80 106 -122t155 -42q120 0 198 77.5t78 196.5q0 121 -88.5 188.5t-247.5 67.5v141q144 2 223.5 65.5t79.5 176.5q0 94 -63 154.5t-162 60.5q-84 0 -143.5 -39.5t-106.5 -125.5h-86v186q74 55 167 85t194 30q183 0 292 -91t109 -241q0 -118 -62.5 -196
t-185.5 -113v-25q134 -23 205.5 -111.5t71.5 -232.5q0 -181 -124.5 -296.5t-318.5 -115.5q-115 0 -216.5 33t-166.5 92v197z" />
    <glyph glyph-name="four" unicode="4" 
d="M831 684q0 -34 -7 -69.5t-21 -73.5l28 -20q19 10 37 15t45 5h48v-140h-48q-18 0 -38 4t-44 13l-28 -17q15 -32 21.5 -66.5t6.5 -74.5v-260h-184v295q0 34 6 58t19 48l-27 19q-44 -10 -88.5 -14.5t-99.5 -4.5h-54h-350v166l512 799h266v-682zM647 516l18 24
q-9 28 -13.5 56.5t-4.5 62.5v17v291q0 63 4.5 129.5t13.5 138.5h-18q-25 -76 -84 -165l-4 -7l-237 -377q-9 -14 -37.5 -49t-81.5 -96l20 -25q53 13 90 19t60 6h147q25 0 57 -6.5t70 -18.5z" />
    <glyph glyph-name="five" unicode="5" 
d="M117 244h63q74 -75 133.5 -105t128.5 -30q120 0 198.5 89.5t78.5 229.5q0 129 -68 206t-182 77q-36 0 -71.5 -12t-78.5 -40h-139v707h705v-172h-391q-47 0 -78 11.5t-62 37.5l-35 -22q12 -23 17.5 -46.5t5.5 -66.5v-147q0 -35 -5.5 -61.5t-17.5 -53.5l35 -21
q45 17 86.5 25t79.5 8q166 0 278.5 -118.5t112.5 -299.5q0 -216 -124.5 -340.5t-340.5 -124.5q-86 0 -166.5 24.5t-162.5 76.5v168z" />
    <glyph glyph-name="six" unicode="6" 
d="M262 436q0 -152 67 -238.5t183 -86.5q117 0 183.5 86.5t66.5 240.5q0 137 -64.5 211t-183.5 74q-123 0 -187.5 -73.5t-64.5 -213.5zM780 1286q-203 -148 -326 -277.5t-173 -248.5l12 -4q73 58 142 85t145 27q174 0 273 -111.5t99 -310.5q0 -222 -113 -348.5t-313 -126.5
q-218 0 -337 136t-119 387q0 239 114.5 445t372.5 427h223v-80z" />
    <glyph glyph-name="seven" unicode="7" 
d="M623 987q29 51 62.5 102.5t72.5 104.5v35h-645v137h839v-154l-659 -1212h-221z" />
    <glyph glyph-name="eight" unicode="8" 
d="M610 768q71 71 103 136t32 136q0 90 -63.5 150.5t-159.5 60.5q-106 0 -167.5 -55t-61.5 -149t82.5 -166.5t234.5 -112.5zM414 682q-77 -66 -115.5 -138.5t-38.5 -152.5q0 -118 72 -195t182 -77q108 0 183 70t75 171q0 107 -79.5 180t-278.5 142zM291 719
q-98 59 -150.5 140t-52.5 173q0 162 119.5 262.5t318.5 100.5q186 0 301 -98.5t115 -256.5q0 -96 -53.5 -177.5t-161.5 -147.5q124 -60 183 -142t59 -196q0 -182 -125.5 -295t-331.5 -113q-199 0 -327 115t-128 289q0 113 59 200.5t175 145.5z" />
    <glyph glyph-name="nine" unicode="9" 
d="M762 928q0 152 -67 238.5t-183 86.5q-118 0 -184 -86t-66 -241q0 -138 63 -210.5t183 -72.5q123 0 188.5 73t65.5 212zM244 80q203 146 325.5 275t173.5 249l-12 6q-74 -60 -143.5 -87t-145.5 -27q-173 0 -271.5 112t-98.5 312q0 223 112.5 349t313.5 126q218 0 337 -137
t119 -386q0 -239 -114.5 -445t-372.5 -427h-223v80z" />
    <glyph glyph-name="colon" unicode=":" horiz-adv-x="569" 
d="M176 227h217v-227h-217v227zM176 952h217v-227h-217v227z" />
    <glyph glyph-name="semicolon" unicode=";" horiz-adv-x="569" 
d="M176 227h217v-227q0 -179 -46 -243t-165 -64h-6l1 86q59 6 80.5 37t21.5 129v84h-103v198zM176 952h217v-227h-217v227z" />
    <glyph glyph-name="less" unicode="&#x3c;" horiz-adv-x="1706" 
d="M1442 1018l-1000 -408l1000 -405v-129l-1178 483v103l1178 483v-127z" />
    <glyph glyph-name="equal" unicode="=" horiz-adv-x="1706" 
d="M1452 477v-117h-1198v117h1198zM1452 860v-117h-1198v117h1198z" />
    <glyph glyph-name="greater" unicode="&#x3e;" horiz-adv-x="1706" 
d="M1442 662v-103l-1178 -483v129l1000 405l-1000 408v127z" />
    <glyph glyph-name="question" unicode="?" 
d="M399 494q0 43 24.5 93t72.5 105q27 31 78 81q133 129 133 247q0 113 -50.5 170t-150.5 57q-88 0 -138.5 -57t-50.5 -158v-98h-200q-1 9 -1.5 20.5t-0.5 32.5q0 203 100.5 305.5t300.5 102.5q180 0 285.5 -98.5t105.5 -264.5q0 -98 -38 -174.5t-175 -202.5
q-83 -76 -106 -121.5t-23 -105.5q0 -8 1 -20t3 -37h-170v123zM375 227h219v-227h-219v227z" />
    <glyph glyph-name="at" unicode="@" horiz-adv-x="2048" 
d="M1292 844l58 121h110l-141 -568q-6 -24 -9 -44t-3 -36q0 -44 27.5 -67t82.5 -23q45 0 100 24t103 64q89 76 139.5 196.5t50.5 254.5q0 266 -195.5 428t-518.5 162q-168 0 -312.5 -52t-259.5 -153q-140 -122 -211 -282.5t-71 -354.5q0 -173 60.5 -304t186.5 -230
q101 -81 240 -124.5t295 -43.5q172 0 334.5 48.5t296.5 139.5l45 -66q-147 -109 -313 -165t-347 -56q-191 0 -348 46.5t-276 138.5q-153 117 -228 272t-75 352q0 163 50.5 309t149.5 269q146 176 349.5 267t453.5 91q165 0 311 -43.5t248 -124.5q129 -99 195.5 -230
t66.5 -282q0 -169 -62.5 -308.5t-182.5 -236.5q-69 -55 -148.5 -83.5t-163.5 -28.5q-99 0 -148.5 39t-49.5 116q0 3 1 11t1 12q-51 -87 -127 -132.5t-170 -45.5q-153 0 -233.5 85t-80.5 247q0 230 137 389t332 159q91 0 153.5 -39.5t96.5 -117.5zM1202 473l60 242
q-17 90 -72 140t-135 50q-146 0 -244 -131.5t-98 -327.5q0 -110 51 -169.5t145 -59.5q102 0 183.5 70.5t109.5 185.5z" />
    <glyph glyph-name="A" unicode="A" horiz-adv-x="1139" 
d="M461 1366h229l391 -1366h-204l-76 299h-459l-80 -299h-205zM526 1005l-145 -556h383l-139 556q-9 33 -15.5 83.5t-9.5 115.5h-47q-5 -65 -12 -117t-15 -82z" />
    <glyph glyph-name="B" unicode="B" 
d="M659 756v-33q134 -24 206.5 -110.5t72.5 -221.5q0 -196 -115 -293.5t-346 -97.5h-336v1366h258q252 0 371 -78.5t119 -243.5q0 -109 -59 -183.5t-171 -104.5zM322 655v-505h98q168 0 249 59.5t81 183.5q0 131 -80 196.5t-240 65.5h-108zM322 1219v-420h88
q153 0 221.5 53.5t68.5 171.5q0 91 -57.5 143t-159.5 52h-161z" />
    <glyph glyph-name="C" unicode="C" horiz-adv-x="1139" 
d="M1053 135q-107 -82 -213.5 -123t-212.5 -41q-263 0 -402 183.5t-139 529.5t138.5 527.5t402.5 181.5q93 0 200 -38.5t226 -113.5v-246h-109q-48 130 -125 191t-192 61q-175 0 -261.5 -140.5t-86.5 -422.5q0 -271 88.5 -411t259.5 -140q115 0 194 63t123 191h109v-252z
" />
    <glyph glyph-name="D" unicode="D" horiz-adv-x="1223" 
d="M322 147h6q63 -4 94 -4q264 0 395 134.5t131 406.5q0 270 -131.5 403.5t-398.5 133.5q-16 0 -36 -1l-60 -3v-1070zM141 1366h283q167 0 267.5 -25.5t185.5 -83.5q123 -86 191.5 -236t68.5 -337q0 -163 -51 -301t-144 -227q-84 -83 -208 -119.5t-326 -36.5h-267v1366z" />
    <glyph glyph-name="E" unicode="E" 
d="M141 1366h820v-143h-639v-451h581v-149h-581v-471h673v-152h-854v1366z" />
    <glyph glyph-name="F" unicode="F" horiz-adv-x="938" 
d="M141 1366h768v-147h-587v-476h569v-145h-569v-598h-181v1366z" />
    <glyph glyph-name="G" unicode="G" horiz-adv-x="1223" 
d="M877 236v296h-310v142h514v-674h-204v106l-17 9q-63 -75 -132 -109.5t-153 -34.5q-91 0 -182.5 47t-156.5 129q-78 97 -114 225.5t-36 311.5q0 346 142.5 527.5t414.5 181.5q97 0 206.5 -38t231.5 -114v-242h-120q-52 129 -130.5 188.5t-197.5 59.5q-180 0 -269.5 -140
t-89.5 -423q0 -265 89.5 -408t254.5 -143q61 0 124 25t135 78z" />
    <glyph glyph-name="H" unicode="H" horiz-adv-x="1251" 
d="M930 1366h180v-1366h-180v645h-608v-645h-181v1366h181v-565h608v565z" />
    <glyph glyph-name="I" unicode="I" horiz-adv-x="797" 
d="M100 133h207v1106h-207v127h596v-127h-209v-1106h209v-133h-596v133z" />
    <glyph glyph-name="J" unicode="J" horiz-adv-x="938" 
d="M262 543v-193q0 -109 42 -166t122 -57q99 0 139.5 68.5t40.5 283.5v887h191v-946q0 -114 -10.5 -172.5t-34.5 -106.5q-39 -81 -121.5 -125.5t-194.5 -44.5q-188 0 -278 98.5t-90 305.5v168h194z" />
    <glyph glyph-name="K" unicode="K" horiz-adv-x="1053" 
d="M141 1366h181v-463q0 -74 -3.5 -119.5t-10.5 -89.5l14 -6l503 678h228l-490 -623q33 -30 62 -65.5t57 -81.5l371 -596h-228l-397 649h-31l-75 -82v-567h-181v1366z" />
    <glyph glyph-name="L" unicode="L" horiz-adv-x="909" 
d="M141 1366h181v-1214h532v-152h-713v1366z" />
    <glyph glyph-name="M" unicode="M" horiz-adv-x="1507" 
d="M1194 780q0 84 5.5 195.5t17.5 243.5h-33l-373 -1219h-115l-372 1219h-33q11 -136 16.5 -243.5t5.5 -195.5v-780h-172v1366h297l240 -809q28 -91 43 -164t22 -149h25q6 75 21 151t40 162l238 809h297v-1366h-170v780z" />
    <glyph glyph-name="N" unicode="N" horiz-adv-x="1251" 
d="M467 854q-36 78 -65 168.5t-50 191.5h-35v-1214h-176v1366h289l354 -770q36 -76 65 -166t50 -192h35v1128h176v-1366h-248z" />
    <glyph glyph-name="O" unicode="O" horiz-adv-x="1251" 
d="M627 117q170 0 260 137t90 399q0 301 -86.5 447.5t-263.5 146.5q-173 0 -263 -143t-90 -420q0 -278 90 -422.5t263 -144.5zM1165 690q0 -355 -136.5 -537t-401.5 -182q-263 0 -402 183.5t-139 529.5t138.5 527.5t402.5 181.5q263 0 400.5 -179.5t137.5 -523.5z" />
    <glyph glyph-name="P" unicode="P" horiz-adv-x="1053" 
d="M322 1214v-569h92q163 0 249.5 75t86.5 216q0 128 -87.5 203t-236.5 75h-104zM141 1366h326q219 0 346 -119t127 -325q0 -202 -120.5 -312t-340.5 -110h-157v-500h-181v1366z" />
    <glyph glyph-name="Q" unicode="Q" horiz-adv-x="1251" 
d="M883 258q29 82 43 176.5t14 218.5q0 300 -77.5 448t-235.5 148q-155 0 -234.5 -143t-79.5 -422q0 -284 82 -428.5t242 -144.5q25 0 56.5 5t82.5 19v23q-43 23 -84 74q-5 6 -8 10l-156 188l117 107l139 -172l2 -2q48 -57 70 -105h27zM967 135v-18q41 -18 79 -65l3 -3
l98 -123l-113 -108l-100 119q-21 24 -30.5 45.5t-12.5 49.5l-19 7q-56 -37 -113.5 -54.5t-125.5 -17.5q-249 0 -379.5 183.5t-130.5 533.5q0 347 129.5 530t374.5 183q238 0 370.5 -178.5t132.5 -499.5q0 -222 -41 -369.5t-122 -214.5z" />
    <glyph glyph-name="R" unicode="R" horiz-adv-x="1139" 
d="M141 1366h314q282 0 403 -87t121 -286q0 -142 -73 -232.5t-212 -121.5v-21l410 -618h-236l-338 559h-208v-559h-181v1366zM322 1223v-512h104q196 0 279 63t83 207q0 111 -77.5 176.5t-210.5 65.5h-178z" />
    <glyph glyph-name="S" unicode="S" horiz-adv-x="1053" 
d="M113 342h108q34 -105 112 -163t185 -58q117 0 191.5 68.5t74.5 170.5q0 82 -55.5 136.5t-253.5 134.5q-13 5 -38 15q-164 66 -222 116q-57 51 -87 118t-30 144q0 163 112.5 266t293.5 103q104 0 201.5 -30t183.5 -89v-250h-98q-37 114 -109 171.5t-176 57.5
q-97 0 -162 -58.5t-65 -145.5q0 -151 253 -243q39 -14 60 -22q193 -72 276.5 -167t83.5 -238q0 -184 -118 -297t-316 -113q-107 0 -208 30.5t-197 90.5v252z" />
    <glyph glyph-name="T" unicode="T" 
d="M422 1210h-393v156h966v-156h-393v-1210h-180v1210z" />
    <glyph glyph-name="U" unicode="U" horiz-adv-x="1223" 
d="M324 1366v-842q0 -209 68 -302t220 -93t219.5 92.5t67.5 302.5v842h180v-829q0 -303 -109.5 -434.5t-357.5 -131.5t-358.5 132t-110.5 434v829h181z" />
    <glyph glyph-name="V" unicode="V" horiz-adv-x="1139" 
d="M57 1366h205l223 -819q22 -78 39 -157.5t31 -164.5h29q14 89 31.5 168.5t37.5 153.5l224 819h204l-434 -1366h-155z" />
    <glyph glyph-name="W" unicode="W" horiz-adv-x="1706" 
d="M43 1366h207l237 -1180h25l238 1180h211l233 -1180h25l239 1180h205l-336 -1366h-217l-195 858q-15 68 -26.5 142t-20.5 159h-26q-10 -95 -21 -169t-24 -132l-201 -858h-221z" />
    <glyph glyph-name="X" unicode="X" horiz-adv-x="1110" 
d="M453 674l-383 692h217l207 -424q18 -38 33.5 -78t27.5 -82h29q18 54 56 142l5 12l186 430h213l-385 -692l400 -674h-228l-210 420q-12 22 -25.5 53t-32.5 80h-33q-4 -9 -36 -80l-25 -53l-193 -420h-210z" />
    <glyph glyph-name="Y" unicode="Y" horiz-adv-x="1110" 
d="M469 498l-412 868h215l197 -512l9 -24q45 -117 71 -209h29q14 74 30 136t33 105l197 504h215l-412 -868v-498h-172v498z" />
    <glyph glyph-name="Z" unicode="Z" 
d="M51 147l690 1074l-12 16q-38 -9 -79 -12.5t-111 -3.5h-453v145h862v-145l-692 -1074l10 -20q42 11 88.5 15.5t134.5 4.5h484v-147h-922v147z" />
    <glyph glyph-name="asciicircum" unicode="^" horiz-adv-x="2048" 
d="M1104 1458l520 -557h-158l-442 438l-442 -438h-160l520 557h162z" />
    <glyph glyph-name="underscore" unicode="_" 
d="M1024 -365v-118h-1024v118h1024z" />
    <glyph glyph-name="grave" unicode="`" 
d="M221 1540h217q45 -80 102.5 -149.5t125.5 -124.5v-39h-113q-72 76 -155 139.5t-177 112.5v61z" />
    <glyph glyph-name="a" unicode="a" horiz-adv-x="938" 
d="M627 535q-213 -42 -298 -98t-85 -148q0 -72 52 -120t130 -48q51 0 100 21.5t101 66.5v326zM627 90q-56 -57 -123.5 -86t-145.5 -29q-131 0 -213 84.5t-82 219.5q0 142 102 222.5t357 129.5l105 18v84q0 70 -52.5 109t-146.5 39q-64 0 -121.5 -29.5t-105.5 -87.5h-82v199
q82 29 155 43t146 14q192 0 284.5 -82t92.5 -254v-684h-170v90z" />
    <glyph glyph-name="b" unicode="b" 
d="M313 223q54 -52 106 -77t105 -25q115 0 173.5 94.5t58.5 282.5q0 190 -58.5 285.5t-175.5 95.5q-52 0 -103.5 -25t-105.5 -76v-555zM313 1395v-475l19 -5q56 58 114 85.5t123 27.5q165 0 265 -143t100 -385q0 -244 -100 -386.5t-267 -142.5q-65 0 -123 28t-112 85l-19 -6
v-76h-172v1393h172z" />
    <glyph glyph-name="c" unicode="c" horiz-adv-x="883" 
d="M825 268v-196q-77 -51 -150 -75t-149 -24q-202 0 -322 143t-120 388q0 234 120.5 376t317.5 142q68 0 138 -21t165 -71v-199h-80q-47 78 -100.5 112t-126.5 34q-121 0 -189.5 -99t-68.5 -274q0 -178 67.5 -277.5t186.5 -99.5q73 0 130 34.5t104 106.5h77z" />
    <glyph glyph-name="d" unicode="d" 
d="M713 221v555q-56 51 -107.5 76t-103.5 25q-117 0 -175.5 -95.5t-58.5 -285.5q0 -186 59 -281.5t175 -95.5q53 0 105 25t106 77zM883 0h-170v76l-21 8q-56 -60 -112.5 -87.5t-120.5 -27.5q-168 0 -268.5 142.5t-100.5 386.5q0 241 100 384.5t265 143.5q65 0 123 -27.5
t114 -85.5l21 5v477h170v-1395z" />
    <glyph glyph-name="e" unicode="e" horiz-adv-x="967" 
d="M881 479v-28h-617q0 -166 70 -249t209 -83q74 0 137 26t131 86h70v-170q-100 -49 -180.5 -70.5t-159.5 -21.5q-223 0 -339 132.5t-116 385.5q0 252 113.5 394.5t310.5 142.5q169 0 270 -109t101 -294v-142zM715 594q0 167 -50 239t-161 72q-116 0 -176 -84t-64 -251
l451 -1v25z" />
    <glyph glyph-name="f" unicode="f" horiz-adv-x="598" 
d="M199 877h-156v118h156v92q0 159 58.5 219t203.5 60h123v-137h-54q-98 0 -128.5 -26t-30.5 -144v-64h186v-118h-186v-877h-172v877z" />
    <glyph glyph-name="g" unicode="g" 
d="M881 995v-802q0 -157 -11.5 -224.5t-38.5 -118.5q-40 -75 -136 -119t-220 -44q-92 0 -188.5 23.5t-186.5 68.5v205h72q61 -76 132.5 -109t176.5 -33q122 0 177 68t55 219q0 29 -0.5 43.5t-2.5 28.5l-18 2q-57 -50 -114.5 -73.5t-122.5 -23.5q-165 0 -265 124t-100 331
q0 214 99.5 338.5t267.5 124.5q66 0 121.5 -23.5t111.5 -74.5l21 6v63h170zM711 807q-54 45 -105 66.5t-106 21.5q-113 0 -173.5 -85t-60.5 -245q0 -162 59.5 -245.5t174.5 -83.5q53 0 104.5 21.5t106.5 66.5v483z" />
    <glyph glyph-name="h" unicode="h" 
d="M141 1395h172v-467l19 -4q59 53 118.5 76.5t135.5 23.5q145 0 222 -95t77 -276v-110v-543h-170v604q0 158 -40.5 217.5t-137.5 59.5q-55 0 -108.5 -23t-115.5 -72v-786h-172v1395z" />
    <glyph glyph-name="i" unicode="i" horiz-adv-x="483" 
d="M319 995v-995h-172v995h172zM133 1395h217v-166h-217v166z" />
    <glyph glyph-name="j" unicode="j" horiz-adv-x="483" 
d="M-25 -164h48q94 0 120.5 22.5t26.5 110.5v68v958h172v-1026q0 -163 -60 -222.5t-227 -59.5h-80v149zM156 1395h217v-166h-217v166z" />
    <glyph glyph-name="k" unicode="k" horiz-adv-x="909" 
d="M141 1395h172v-670q0 -54 -4 -104t-12 -97l41 -18q29 52 53.5 92t44.5 68l238 329h209l-351 -420v-24q42 -42 86 -116q6 -9 9 -14l258 -421h-213l-236 479h-41l-82 -96v-383h-172v1395z" />
    <glyph glyph-name="l" unicode="l" horiz-adv-x="483" 
d="M156 1395h172v-1395h-172v1395z" />
    <glyph glyph-name="m" unicode="m" horiz-adv-x="1593" 
d="M143 995h172v-67l21 -4q54 52 110.5 76t126.5 24q98 0 168.5 -41t108.5 -121q68 89 136.5 125.5t164.5 36.5q148 0 223.5 -96t75.5 -283v-102v-543h-170v604q0 146 -44 211.5t-140 65.5q-54 0 -108.5 -23.5t-115.5 -71.5v-786h-161v604q0 151 -42.5 214t-140.5 63
q-56 0 -107.5 -23t-105.5 -72v-786h-172v995z" />
    <glyph glyph-name="n" unicode="n" 
d="M141 995h174v-67l17 -4q59 53 118.5 76.5t135.5 23.5q145 0 222 -95t77 -276v-110v-543h-170v604q0 158 -40.5 217.5t-137.5 59.5q-55 0 -108.5 -23t-115.5 -72v-786h-172v995z" />
    <glyph glyph-name="o" unicode="o" 
d="M508 881q-118 0 -183 -96t-65 -273q0 -194 64.5 -295.5t187.5 -101.5q118 0 184 101.5t66 287.5q0 185 -64.5 281t-189.5 96zM84 514q0 232 115 371t307 139q206 0 319 -137t113 -385q0 -251 -112.5 -391t-313.5 -140q-203 0 -315.5 143t-112.5 400z" />
    <glyph glyph-name="p" unicode="p" 
d="M311 774v-555q54 -50 106.5 -75t104.5 -25q117 0 175.5 95t58.5 286q0 186 -59 281.5t-175 95.5q-53 0 -105 -25.5t-106 -77.5zM141 995h170v-75l21 -9q56 60 112.5 87.5t120.5 27.5q167 0 267 -143t100 -387q0 -243 -99 -385t-264 -142q-65 0 -123 27.5t-114 85.5
l-21 -4v-391h-170v1308z" />
    <glyph glyph-name="q" unicode="q" 
d="M711 774q-54 52 -106 77.5t-105 25.5q-115 0 -173.5 -95t-58.5 -282q0 -192 57.5 -286.5t174.5 -94.5q51 0 103 24.5t108 75.5v555zM711 -313v391l-19 4q-56 -58 -114 -85.5t-123 -27.5q-165 0 -265 143t-100 384q0 243 100.5 386.5t266.5 143.5q65 0 120.5 -27.5
t112.5 -87.5l21 9v75h172v-1308h-172z" />
    <glyph glyph-name="r" unicode="r" horiz-adv-x="682" 
d="M141 995h172v-39q0 -34 -2 -63t-6 -55l17 -13q47 93 119.5 131.5t199.5 38.5h12v-200h-86q-150 0 -202 -50t-52 -192v-553h-172v995z" />
    <glyph glyph-name="s" unicode="s" horiz-adv-x="825" 
d="M70 231h88q36 -63 97 -97t138 -34q87 0 140 44.5t53 115.5q0 112 -225 183q-12 4 -17 6q-141 45 -204.5 112.5t-63.5 171.5q0 129 96.5 208t257.5 79q67 0 138 -15t149 -44v-199h-80q-40 73 -95 108t-130 35q-69 0 -116.5 -42t-47.5 -103q0 -64 42.5 -101.5t198.5 -80.5
q134 -39 200.5 -112t66.5 -179q0 -141 -97 -228.5t-253 -87.5q-104 0 -189 20t-147 58v182z" />
    <glyph glyph-name="t" unicode="t" horiz-adv-x="653" 
d="M492 0q-186 0 -229.5 43t-43.5 227v607h-174v118h174v267h170v-267h225v-118h-225v-615q0 -103 26 -124t124 -21h75v-117h-122z" />
    <glyph glyph-name="u" unicode="u" 
d="M883 0h-174v68l-17 4q-59 -54 -118.5 -77.5t-135.5 -23.5q-97 0 -168 49.5t-108 141.5q-12 32 -17.5 86t-5.5 205v542h170v-604q0 -158 40.5 -217t137.5 -59q53 0 107 23t117 73v784h172v-995z" />
    <glyph glyph-name="v" unicode="v" horiz-adv-x="909" 
d="M57 995h185l145 -522q20 -69 31.5 -134.5t15.5 -133.5h45q11 86 25.5 161t32.5 138l141 491h176l-332 -995h-155z" />
    <glyph glyph-name="w" unicode="w" horiz-adv-x="1366" 
d="M739 549q-7 35 -15 93.5t-15 139.5h-41q-4 -52 -13 -106.5t-26 -126.5l-127 -549h-144l-301 995h193l125 -577q0 -2 2 -9q25 -116 35 -212h39q6 55 14.5 108t21.5 113l121 577h148l129 -577q12 -57 21 -111.5t16 -109.5h39q7 85 34 208q1 8 2 13l121 577h189l-301 -995
h-142z" />
    <glyph glyph-name="x" unicode="x" horiz-adv-x="883" 
d="M299 492l-244 503h215l156 -458h25l174 458h194l-237 -503l243 -492h-217l-157 434h-25l-168 -434h-197z" />
    <glyph glyph-name="y" unicode="y" horiz-adv-x="909" 
d="M94 -170h72q95 0 138 32t69 124l-307 1009h178l143 -544q23 -83 33 -149t12 -134h47q11 90 24 163.5t25 119.5l162 544h172l-352 -1081q-46 -142 -114.5 -185.5t-237.5 -43.5h-64v145z" />
    <glyph glyph-name="z" unicode="z" horiz-adv-x="797" 
d="M43 154l371 567q24 35 49 64t53 55v24h-440v131h635v-131l-375 -567q-28 -43 -50 -70t-46 -49v-24h514v-154h-711v154z" />
    <glyph glyph-name="braceleft" unicode="{" 
d="M858 1350q-8 0 -23 1t-22 1q-121 0 -164 -47t-43 -197v-242q0 -166 -43.5 -235.5t-154.5 -100.5q111 -30 154.5 -99.5t43.5 -235.5v-242q0 -149 43.5 -195.5t169.5 -46.5h39v-125h-35q-99 0 -159.5 12t-102.5 40q-55 36 -77.5 100t-22.5 213v244q0 152 -55 213t-189 61
q-7 0 -22 -1t-23 -1v127q8 0 23 -1t22 -1q134 0 189 61.5t55 214.5v244q0 153 22.5 215.5t77.5 97.5q42 28 102 40t160 12h35v-127z" />
    <glyph glyph-name="bar" unicode="|" 
d="M575 1565v-2048h-126v2048h126z" />
    <glyph glyph-name="braceright" unicode="}" 
d="M563 1112v-244q0 -152 55.5 -214t190.5 -62q7 0 22 1t23 1v-127q-8 0 -23 1t-22 1q-135 0 -190.5 -62t-55.5 -214v-242q0 -153 -22 -216.5t-76 -99.5q-39 -26 -97.5 -37.5t-160.5 -11.5h-41v125q8 0 23 -1t22 -1q120 0 163.5 47.5t43.5 198.5v240q0 166 43.5 235.5
t154.5 99.5q-111 31 -154.5 100.5t-43.5 235.5v242q0 149 -44 196.5t-169 47.5h-39v125h35q100 0 161 -12.5t103 -39.5q54 -35 76 -98t22 -215z" />
    <glyph glyph-name="asciitilde" unicode="~" horiz-adv-x="1706" 
d="M1530 627q-101 -72 -197.5 -108t-189.5 -36q-43 0 -90.5 9t-100.5 26q-30 10 -87 31q-202 72 -302 72q-83 0 -173.5 -37.5t-211.5 -122.5v133q105 73 202 109t185 36q56 0 116.5 -12.5t174.5 -52.5q14 -5 44 -16q158 -58 245 -58q84 0 174.5 37t210.5 121v-131z" />
    <glyph glyph-name="nonbreakingspace" unicode="&#xa0;" 
 />
    <glyph glyph-name="cent" unicode="&#xa2;" 
d="M481 131v737q-95 -29 -144.5 -121.5t-49.5 -242.5q0 -154 49 -249t145 -124zM852 268v-196q-55 -39 -117.5 -62t-138.5 -33v-124h-115v124q-180 36 -275 171t-95 356q0 212 97.5 347.5t272.5 166.5v108h115v-108q52 -4 106.5 -22t149.5 -66v-199h-80q-37 65 -78 97
t-98 40v-733q62 17 104 48.5t74 84.5h78z" />
    <glyph glyph-name="sterling" unicode="&#xa3;" 
d="M90 154q83 12 127.5 62.5t44.5 131.5q0 53 -2 120t-2 81q0 26 4.5 46t13.5 38l-10 10q-23 -13 -45.5 -19t-54.5 -6h-12h-64v140h55q13 0 43 -7.5t68 -19.5l8 17q-23 56 -34 109t-11 110q0 199 108 312.5t298 113.5q65 0 130.5 -17t135.5 -51v-246l-84 -6q-35 90 -86 132
t-125 42q-95 0 -146 -58.5t-51 -168.5q0 -42 7.5 -108.5t7.5 -90.5q0 -9 -5 -43q-2 -19 -3 -31l12 -16q39 14 80 20.5t116 6.5h129v-140h-163q-48 0 -83 5.5t-69 17.5l-12 -14q12 -48 17 -85t5 -71q0 -100 -37.5 -182t-113.5 -148l12 -24q54 34 130 48.5t233 14.5h276v-180
h-848v154z" />
    <glyph glyph-name="currency" unicode="&#xa4;" horiz-adv-x="1241" 
d="M936 887q0 129 -91.5 221t-221.5 92t-222 -92t-92 -221q0 -131 91.5 -223.5t222.5 -92.5q129 0 221 93t92 223zM365 1212q60 46 122.5 68.5t133.5 22.5t135.5 -22.5t124.5 -68.5l204 207l72 -73l-205 -205q43 -57 64.5 -121t21.5 -135t-21.5 -135.5t-64.5 -120.5
l205 -205l-72 -74l-204 207q-57 -44 -121.5 -66t-138.5 -22t-136.5 21.5t-119.5 66.5l-207 -207l-72 74l207 205q-44 58 -66 122t-22 134q0 69 22 133.5t66 122.5l-207 205l72 73z" />
    <glyph glyph-name="brokenbar" unicode="&#xa6;" 
d="M575 408v-758h-126v758h126zM575 1432v-758h-126v758h126z" />
    <glyph glyph-name="dieresis" unicode="&#xa8;" 
d="M592 1481h188v-195h-188v195zM244 1481h186v-195h-186v195z" />
    <glyph glyph-name="copyright" unicode="&#xa9;" horiz-adv-x="1706" 
d="M1065 911q-15 77 -70.5 120.5t-138.5 43.5q-117 0 -182.5 -92.5t-65.5 -259.5q0 -160 66.5 -252t181.5 -92q87 0 145.5 48.5t73.5 133.5h129q-11 -127 -109 -207t-245 -80q-176 0 -280.5 121t-104.5 326q0 208 107.5 332.5t287.5 124.5q137 0 230 -74.5t104 -192.5h-129z
M1501 725q0 130 -49 249t-139 210q-92 92 -210 140t-251 48q-132 0 -247.5 -47.5t-205.5 -138.5q-93 -95 -142.5 -214t-49.5 -247q0 -127 49 -244t141 -211q93 -92 209.5 -141t245.5 -49t248.5 50t214.5 142q91 90 138.5 205.5t47.5 247.5zM852 1460q151 0 285 -55t239 -160
q102 -102 156.5 -236t54.5 -284q0 -151 -54 -283t-157 -233q-109 -106 -244.5 -162.5t-279.5 -56.5q-146 0 -278 55.5t-238 161.5q-106 105 -161.5 238.5t-55.5 279.5q0 145 56.5 279.5t162.5 242.5q102 104 234 158.5t280 54.5z" />
    <glyph glyph-name="ordfeminine" unicode="&#xaa;" horiz-adv-x="705" 
d="M471 1042q-160 -30 -224.5 -69t-64.5 -103q0 -50 39.5 -84t97.5 -34q39 0 75.5 14.5t76.5 46.5v229zM471 731q-41 -40 -92 -60t-111 -20q-98 0 -159.5 59t-61.5 152q0 100 76 156.5t268 91.5l80 12v60q0 48 -39.5 75t-109.5 27q-49 0 -91.5 -20.5t-78.5 -61.5h-62v139
q60 21 115 31t110 10q145 0 214 -57.5t69 -177.5v-479h-127v63z" />
    <glyph glyph-name="logicalnot" unicode="&#xac;" horiz-adv-x="1706" 
d="M1452 858v-502h-115v385h-1083v117h1198z" />
    <glyph glyph-name="sfthyphen" unicode="&#xad;" horiz-adv-x="682" 
d="M86 760h512v-154h-512v154z" />
    <glyph glyph-name="registered" unicode="&#xae;" horiz-adv-x="1706" 
d="M846 1065h-144v-291h148q123 0 175 33t52 108q0 79 -54.5 114.5t-176.5 35.5zM872 1157q178 0 264.5 -57t86.5 -174q0 -89 -53 -148.5t-144 -75.5l188 -385h-157l-176 365h-179v-365h-141v840h311zM1501 721q0 133 -48 251.5t-138 209.5q-94 93 -211.5 141.5t-251.5 48.5
q-132 0 -247 -47t-204 -137q-94 -95 -144 -214t-50 -249q0 -127 49 -244t141 -211q91 -92 208 -141t245 -49q131 0 249.5 48.5t213.5 141.5q91 90 139.5 206t48.5 245zM852 1460q150 0 284 -55.5t240 -161.5q102 -102 156.5 -235.5t54.5 -282.5q0 -151 -54.5 -283
t-158.5 -233q-109 -106 -243.5 -162.5t-278.5 -56.5q-145 0 -278.5 56t-239.5 163q-105 104 -160 237t-55 279q0 147 57 282t164 242q101 103 232 157t280 54z" />
    <glyph glyph-name="macron" unicode="&#xaf;" 
d="M225 1442h572v-148h-572v148z" />
    <glyph glyph-name="degree" unicode="&#xb0;" horiz-adv-x="674" 
d="M539 1171q0 84 -58.5 142.5t-142.5 58.5t-143.5 -58.5t-59.5 -142.5t59.5 -143t143.5 -59t142.5 59t58.5 143zM338 1454q117 0 200 -83t83 -200q0 -116 -83.5 -199t-201.5 -83t-199.5 82t-81.5 200q0 119 82.5 201t200.5 82z" />
    <glyph glyph-name="plusminus" unicode="&#xb1;" horiz-adv-x="1706" 
d="M1452 158v-117h-1198v117h1198zM913 1180v-344h539v-117h-539v-344h-118v344h-541v117h541v344h118z" />
    <glyph glyph-name="twosuperior" unicode="&#xb2;" horiz-adv-x="676" 
d="M206 1112h-126q-1 6 -1.5 13t-0.5 20q0 114 66 175.5t188 61.5q124 0 196 -61t72 -166q0 -135 -209 -314l-6 -5q-102 -90 -141 -133.5t-51 -75.5l12 -11q38 18 90 26.5t121 8.5h182v-106h-522q-1 5 -1.5 11t-0.5 17q0 64 32.5 120t131.5 147q149 137 190 201t41 126
q0 59 -34.5 93t-94.5 34q-71 0 -100.5 -39t-33.5 -143z" />
    <glyph glyph-name="threesuperior" unicode="&#xb3;" horiz-adv-x="676" 
d="M66 721h59q26 -48 70.5 -73t101.5 -25q79 0 130.5 46t51.5 117q0 72 -58.5 113t-162.5 41v86q95 0 148 38t53 105q0 57 -42 93t-108 36q-55 0 -94.5 -23.5t-69.5 -74.5h-57v111q47 33 108.5 51t129.5 18q121 0 192.5 -54t71.5 -144q0 -71 -41 -118t-121 -69v-14
q88 -14 135 -67t47 -140q0 -108 -82 -177t-211 -69q-77 0 -144 19.5t-107 54.5v119z" />
    <glyph glyph-name="acute" unicode="&#xb4;" 
d="M811 1540v-61q-99 -54 -183 -117.5t-149 -134.5h-114v39q68 55 125 123.5t104 150.5h217z" />
    <glyph glyph-name="mu" unicode="&#xb5;" horiz-adv-x="1128" 
d="M362 1069l-126 -595q-8 -33 -11.5 -67t-3.5 -71q0 -109 57 -168t160 -59q125 0 208 101t128 308l121 551h156l-162 -754q-12 -52 -17.5 -84t-5.5 -51q0 -32 18.5 -48.5t53.5 -16.5q9 0 17.5 0.5t17.5 1.5l-27 -125q-21 -5 -44 -7.5t-48 -2.5q-70 0 -104.5 35t-40.5 112
q-41 -70 -117 -108.5t-172 -38.5q-87 0 -152.5 34t-109.5 103l-113 -545h-156l316 1495h157z" />
    <glyph glyph-name="paragraph" unicode="&#xb6;" 
d="M948 1401h-125v-1401h-94v1401h-182v-1401h-96v782q-173 8 -274 102.5t-101 245.5q0 157 107.5 253t285.5 96h479v-78z" />
    <glyph glyph-name="cedilla" unicode="&#xb8;" 
d="M475 0h82v-100h33q110 0 169.5 -45.5t59.5 -128.5q0 -97 -65.5 -146t-194.5 -49q-54 0 -122.5 11t-149.5 32l-2 100q80 -19 150.5 -29t119.5 -10q55 0 85 21.5t30 60.5q0 44 -33 65t-98 21q-27 0 -40 -0.5t-24 -0.5v198z" />
    <glyph glyph-name="onesuperior" unicode="&#xb9;" horiz-adv-x="676" 
d="M76 633h211v639h-211v92h342v-731h182v-88h-524v88z" />
    <glyph glyph-name="ordmasculine" unicode="&#xba;" horiz-adv-x="768" 
d="M381 1284q-89 0 -137.5 -67t-48.5 -191q0 -137 48.5 -207.5t141.5 -70.5q89 0 137.5 71t48.5 201t-48 197t-142 67zM63 1028q0 162 86.5 259t229.5 97q155 0 240.5 -95t85.5 -269q0 -175 -85 -274t-235 -99q-152 0 -237 100.5t-85 280.5z" />
    <glyph glyph-name="onequarter" unicode="&#xbc;" horiz-adv-x="1554" 
d="M1247 211l14 16q-7 23 -10.5 46t-3.5 57v217q0 35 3.5 81t11.5 122l-15 -1q-9 -30 -22.5 -58.5t-38.5 -69.5l-170 -283q-7 -11 -30 -41.5t-54 -69.5l14 -16q39 9 65 13.5t42 4.5h104q15 0 36.5 -4t53.5 -14zM1378 336q0 -23 -4.5 -48.5t-15.5 -60.5l20 -14q14 8 25.5 11
t32.5 3h34v-104h-34q-12 0 -26 3t-32 9l-20 -12q10 -26 15 -51t5 -54v-196h-131v223q0 23 4 41.5t13 36.5l-19 16q-34 -8 -69 -12t-76 -4h-25h-248v125l363 598h188v-510zM80 451h227v798h-227v117h369v-915h198v-109h-567v109z" />
    <glyph glyph-name="onehalf" unicode="&#xbd;" horiz-adv-x="1554" 
d="M1036 528h-137q-2 19 -2 56q0 131 72 205.5t200 74.5q134 0 211.5 -75t77.5 -205q0 -169 -218 -390l-11 -12q-118 -120 -157.5 -171t-49.5 -87l14 -12q42 22 97.5 32.5t126.5 10.5h198v-133h-563q0 6 -1 17t-1 16q0 78 34 147.5t142 185.5q154 163 201 246.5t47 163.5
q0 73 -37 115.5t-100 42.5q-75 0 -109.5 -47.5t-34.5 -151.5v-29zM80 451h227v798h-227v117h369v-915h198v-109h-567v109z" />
    <glyph glyph-name="threequarters" unicode="&#xbe;" horiz-adv-x="1554" 
d="M1212 211l14 16q-7 23 -10.5 46t-3.5 57v217q0 35 3.5 81t11.5 122l-15 -1q-9 -30 -22.5 -58.5t-38.5 -69.5l-170 -283q-6 -11 -29 -41.5t-55 -69.5l14 -16q39 9 65 13.5t42 4.5h104q15 0 37 -4t53 -14zM1343 336q0 -23 -4.5 -48.5t-15.5 -60.5l20 -14q14 8 25.5 11
t32.5 3h35v-104h-35q-12 0 -26 3t-32 9l-20 -12q11 -26 15.5 -51t4.5 -54v-196h-131v223q0 23 4 41.5t13 36.5l-19 16q-34 -8 -69 -12t-76 -4h-25h-247v125l362 598h188v-510zM100 575h64q26 -59 74.5 -91.5t111.5 -32.5q84 0 140.5 59.5t56.5 148.5q0 91 -63 141t-177 50
v106q103 2 159 49t56 132q0 71 -44.5 116t-115.5 45q-59 0 -102 -30t-76 -94h-61v139q54 41 121.5 64.5t134.5 23.5q129 0 207 -68.5t78 -181.5q0 -89 -43.5 -147.5t-131.5 -85.5v-17q96 -18 146.5 -85t50.5 -175q0 -135 -89 -221t-226 -86q-81 0 -152 25t-119 69v147z" />
    <glyph glyph-name="Agrave" unicode="&#xc0;" horiz-adv-x="1139" 
d="M461 1366h229l391 -1366h-204l-76 299h-459l-80 -299h-205zM526 1005l-145 -556h383l-139 556q-9 33 -15.5 83.5t-9.5 115.5h-47q-5 -65 -12 -117t-15 -82zM278 1814h217q45 -80 102.5 -149.5t125.5 -124.5v-39h-113q-72 76 -155 139.5t-177 112.5v61z" />
    <glyph glyph-name="Aacute" unicode="&#xc1;" horiz-adv-x="1139" 
d="M461 1366h229l391 -1366h-204l-76 299h-459l-80 -299h-205zM526 1005l-145 -556h383l-139 556q-9 33 -15.5 83.5t-9.5 115.5h-47q-5 -65 -12 -117t-15 -82zM868 1814v-61q-99 -54 -183 -117.5t-149 -134.5h-114v39q68 55 125 123.5t104 150.5h217z" />
    <glyph glyph-name="Acircumflex" unicode="&#xc2;" horiz-adv-x="1139" 
d="M461 1366h229l391 -1366h-204l-76 299h-459l-80 -299h-205zM526 1005l-145 -556h383l-139 556q-9 33 -15.5 83.5t-9.5 115.5h-47q-5 -65 -12 -117t-15 -82zM544 1706q-35 -86 -78.5 -132.5t-109.5 -72.5h-102v63q52 28 106.5 94t99.5 156h218q36 -81 89 -146t115 -104
v-63h-98q-68 27 -112 74.5t-76 130.5h-52z" />
    <glyph glyph-name="Atilde" unicode="&#xc3;" horiz-adv-x="1139" 
d="M461 1366h229l391 -1366h-204l-76 299h-459l-80 -299h-205zM526 1005l-145 -556h383l-139 556q-9 33 -15.5 83.5t-9.5 115.5h-47q-5 -65 -12 -117t-15 -82zM884 1765q-30 -106 -82.5 -159.5t-126.5 -53.5q-34 0 -98.5 18.5t-136.5 51.5q-15 -13 -25.5 -30.5t-19.5 -45.5
h-135q25 103 78.5 156t134.5 53q54 0 130.5 -32t98.5 -38q16 21 27 40.5t19 39.5h136z" />
    <glyph glyph-name="Adieresis" unicode="&#xc4;" horiz-adv-x="1139" 
d="M461 1366h229l391 -1366h-204l-76 299h-459l-80 -299h-205zM526 1005l-145 -556h383l-139 556q-9 33 -15.5 83.5t-9.5 115.5h-47q-5 -65 -12 -117t-15 -82zM649 1755h188v-195h-188v195zM301 1755h186v-195h-186v195z" />
    <glyph glyph-name="Aring" unicode="&#xc5;" horiz-adv-x="1139" 
d="M461 1366h229l391 -1366h-204l-76 299h-459l-80 -299h-205zM526 1005l-145 -556h383l-139 556q-9 33 -15.5 83.5t-9.5 115.5h-47q-5 -65 -12 -117t-15 -82zM460 1724q0 -44 33 -77.5t76 -33.5q44 0 76.5 33t32.5 78t-31.5 75.5t-77.5 30.5t-77.5 -30t-31.5 -76zM346 1724
q0 91 65.5 157t157.5 66q91 0 157 -66t66 -157q0 -94 -65.5 -159.5t-157.5 -65.5t-157.5 66t-65.5 159z" />
    <glyph glyph-name="Ccedilla" unicode="&#xc7;" horiz-adv-x="1139" 
d="M1053 135q-107 -82 -213.5 -123t-212.5 -41q-263 0 -402 183.5t-139 529.5t138.5 527.5t402.5 181.5q93 0 200 -38.5t226 -113.5v-246h-109q-48 130 -125 191t-192 61q-175 0 -261.5 -140.5t-86.5 -422.5q0 -271 88.5 -411t259.5 -140q115 0 194 63t123 191h109v-252z
M532 0h82v-100h33q110 0 169.5 -45.5t59.5 -128.5q0 -97 -65.5 -146t-194.5 -49q-54 0 -122.5 11t-149.5 32l-2 100q80 -19 150.5 -29t119.5 -10q55 0 85 21.5t30 60.5q0 44 -33 65t-98 21q-27 0 -40 -0.5t-24 -0.5v198z" />
    <glyph glyph-name="Egrave" unicode="&#xc8;" 
d="M141 1366h820v-143h-639v-451h581v-149h-581v-471h673v-152h-854v1366zM221 1814h217q45 -80 102.5 -149.5t125.5 -124.5v-39h-113q-72 76 -155 139.5t-177 112.5v61z" />
    <glyph glyph-name="Eacute" unicode="&#xc9;" 
d="M141 1366h820v-143h-639v-451h581v-149h-581v-471h673v-152h-854v1366zM811 1814v-61q-99 -54 -183 -117.5t-149 -134.5h-114v39q68 55 125 123.5t104 150.5h217z" />
    <glyph glyph-name="Ecircumflex" unicode="&#xca;" 
d="M141 1366h820v-143h-639v-451h581v-149h-581v-471h673v-152h-854v1366zM487 1706q-35 -86 -78.5 -132.5t-109.5 -72.5h-102v63q52 28 106.5 94t99.5 156h218q36 -81 89 -146t115 -104v-63h-98q-68 27 -112 74.5t-76 130.5h-52z" />
    <glyph glyph-name="Edieresis" unicode="&#xcb;" 
d="M141 1366h820v-143h-639v-451h581v-149h-581v-471h673v-152h-854v1366zM592 1755h188v-195h-188v195zM244 1755h186v-195h-186v195z" />
    <glyph glyph-name="Igrave" unicode="&#xcc;" horiz-adv-x="797" 
d="M100 133h207v1106h-207v127h596v-127h-209v-1106h209v-133h-596v133zM108 1814h217q45 -80 102.5 -149.5t125.5 -124.5v-39h-113q-72 76 -155 139.5t-177 112.5v61z" />
    <glyph glyph-name="Iacute" unicode="&#xcd;" horiz-adv-x="797" 
d="M100 133h207v1106h-207v127h596v-127h-209v-1106h209v-133h-596v133zM698 1814v-61q-99 -54 -183 -117.5t-149 -134.5h-114v39q68 55 125 123.5t104 150.5h217z" />
    <glyph glyph-name="Icircumflex" unicode="&#xce;" horiz-adv-x="797" 
d="M100 133h207v1106h-207v127h596v-127h-209v-1106h209v-133h-596v133zM374 1706q-35 -86 -78.5 -132.5t-109.5 -72.5h-102v63q52 28 106.5 94t99.5 156h218q36 -81 89 -146t115 -104v-63h-98q-68 27 -112 74.5t-76 130.5h-52z" />
    <glyph glyph-name="Idieresis" unicode="&#xcf;" horiz-adv-x="797" 
d="M100 133h207v1106h-207v127h596v-127h-209v-1106h209v-133h-596v133zM479 1755h188v-195h-188v195zM131 1755h186v-195h-186v195z" />
    <glyph glyph-name="Ntilde" unicode="&#xd1;" horiz-adv-x="1251" 
d="M467 854q-36 78 -65 168.5t-50 191.5h-35v-1214h-176v1366h289l354 -770q36 -76 65 -166t50 -192h35v1128h176v-1366h-248zM942 1765q-30 -106 -82.5 -159.5t-126.5 -53.5q-34 0 -98.5 18.5t-136.5 51.5q-15 -13 -25.5 -30.5t-19.5 -45.5h-135q25 103 78.5 156t134.5 53
q54 0 130.5 -32t98.5 -38q16 21 27 40.5t19 39.5h136z" />
    <glyph glyph-name="Ograve" unicode="&#xd2;" horiz-adv-x="1251" 
d="M627 117q170 0 260 137t90 399q0 301 -86.5 447.5t-263.5 146.5q-173 0 -263 -143t-90 -420q0 -278 90 -422.5t263 -144.5zM1165 690q0 -355 -136.5 -537t-401.5 -182q-263 0 -402 183.5t-139 529.5t138.5 527.5t402.5 181.5q263 0 400.5 -179.5t137.5 -523.5zM336 1814
h217q45 -80 102.5 -149.5t125.5 -124.5v-39h-113q-72 76 -155 139.5t-177 112.5v61z" />
    <glyph glyph-name="Oacute" unicode="&#xd3;" horiz-adv-x="1251" 
d="M627 117q170 0 260 137t90 399q0 301 -86.5 447.5t-263.5 146.5q-173 0 -263 -143t-90 -420q0 -278 90 -422.5t263 -144.5zM1165 690q0 -355 -136.5 -537t-401.5 -182q-263 0 -402 183.5t-139 529.5t138.5 527.5t402.5 181.5q263 0 400.5 -179.5t137.5 -523.5zM926 1814
v-61q-99 -54 -183 -117.5t-149 -134.5h-114v39q68 55 125 123.5t104 150.5h217z" />
    <glyph glyph-name="Ocircumflex" unicode="&#xd4;" horiz-adv-x="1251" 
d="M627 117q170 0 260 137t90 399q0 301 -86.5 447.5t-263.5 146.5q-173 0 -263 -143t-90 -420q0 -278 90 -422.5t263 -144.5zM1165 690q0 -355 -136.5 -537t-401.5 -182q-263 0 -402 183.5t-139 529.5t138.5 527.5t402.5 181.5q263 0 400.5 -179.5t137.5 -523.5zM602 1706
q-35 -86 -78.5 -132.5t-109.5 -72.5h-102v63q52 28 106.5 94t99.5 156h218q36 -81 89 -146t115 -104v-63h-98q-68 27 -112 74.5t-76 130.5h-52z" />
    <glyph glyph-name="Otilde" unicode="&#xd5;" horiz-adv-x="1251" 
d="M627 117q170 0 260 137t90 399q0 301 -86.5 447.5t-263.5 146.5q-173 0 -263 -143t-90 -420q0 -278 90 -422.5t263 -144.5zM1165 690q0 -355 -136.5 -537t-401.5 -182q-263 0 -402 183.5t-139 529.5t138.5 527.5t402.5 181.5q263 0 400.5 -179.5t137.5 -523.5zM942 1765
q-30 -106 -82.5 -159.5t-126.5 -53.5q-34 0 -98.5 18.5t-136.5 51.5q-15 -13 -25.5 -30.5t-19.5 -45.5h-135q25 103 78.5 156t134.5 53q54 0 130.5 -32t98.5 -38q16 21 27 40.5t19 39.5h136z" />
    <glyph glyph-name="Odieresis" unicode="&#xd6;" horiz-adv-x="1251" 
d="M627 117q170 0 260 137t90 399q0 301 -86.5 447.5t-263.5 146.5q-173 0 -263 -143t-90 -420q0 -278 90 -422.5t263 -144.5zM1165 690q0 -355 -136.5 -537t-401.5 -182q-263 0 -402 183.5t-139 529.5t138.5 527.5t402.5 181.5q263 0 400.5 -179.5t137.5 -523.5zM707 1755
h188v-195h-188v195zM359 1755h186v-195h-186v195z" />
    <glyph glyph-name="multiply" unicode="&#xd7;" horiz-adv-x="1706" 
d="M858 692l475 477l82 -82l-475 -477l475 -475l-82 -82l-475 475l-477 -475l-80 82l475 475l-475 477l80 82z" />
    <glyph glyph-name="Ugrave" unicode="&#xd9;" horiz-adv-x="1223" 
d="M324 1366v-842q0 -209 68 -302t220 -93t219.5 92.5t67.5 302.5v842h180v-829q0 -303 -109.5 -434.5t-357.5 -131.5t-358.5 132t-110.5 434v829h181zM321 1814h217q45 -80 102.5 -149.5t125.5 -124.5v-39h-113q-72 76 -155 139.5t-177 112.5v61z" />
    <glyph glyph-name="Uacute" unicode="&#xda;" horiz-adv-x="1223" 
d="M324 1366v-842q0 -209 68 -302t220 -93t219.5 92.5t67.5 302.5v842h180v-829q0 -303 -109.5 -434.5t-357.5 -131.5t-358.5 132t-110.5 434v829h181zM911 1814v-61q-99 -54 -183 -117.5t-149 -134.5h-114v39q68 55 125 123.5t104 150.5h217z" />
    <glyph glyph-name="Ucircumflex" unicode="&#xdb;" horiz-adv-x="1223" 
d="M324 1366v-842q0 -209 68 -302t220 -93t219.5 92.5t67.5 302.5v842h180v-829q0 -303 -109.5 -434.5t-357.5 -131.5t-358.5 132t-110.5 434v829h181zM587 1706q-35 -86 -78.5 -132.5t-109.5 -72.5h-102v63q52 28 106.5 94t99.5 156h218q36 -81 89 -146t115 -104v-63h-98
q-68 27 -112 74.5t-76 130.5h-52z" />
    <glyph glyph-name="Udieresis" unicode="&#xdc;" horiz-adv-x="1223" 
d="M324 1366v-842q0 -209 68 -302t220 -93t219.5 92.5t67.5 302.5v842h180v-829q0 -303 -109.5 -434.5t-357.5 -131.5t-358.5 132t-110.5 434v829h181zM692 1755h188v-195h-188v195zM344 1755h186v-195h-186v195z" />
    <glyph glyph-name="Yacute" unicode="&#xdd;" horiz-adv-x="1110" 
d="M469 498l-412 868h215l197 -512l9 -24q45 -117 71 -209h29q14 74 30 136t33 105l197 504h215l-412 -868v-498h-172v498zM854 1814v-61q-99 -54 -183 -117.5t-149 -134.5h-114v39q68 55 125 123.5t104 150.5h217z" />
    <glyph glyph-name="agrave" unicode="&#xe0;" horiz-adv-x="938" 
d="M627 535q-213 -42 -298 -98t-85 -148q0 -72 52 -120t130 -48q51 0 100 21.5t101 66.5v326zM627 90q-56 -57 -123.5 -86t-145.5 -29q-131 0 -213 84.5t-82 219.5q0 142 102 222.5t357 129.5l105 18v84q0 70 -52.5 109t-146.5 39q-64 0 -121.5 -29.5t-105.5 -87.5h-82v199
q82 29 155 43t146 14q192 0 284.5 -82t92.5 -254v-684h-170v90zM178 1540h217q45 -80 102.5 -149.5t125.5 -124.5v-39h-113q-72 76 -155 139.5t-177 112.5v61z" />
    <glyph glyph-name="aacute" unicode="&#xe1;" horiz-adv-x="938" 
d="M627 535q-213 -42 -298 -98t-85 -148q0 -72 52 -120t130 -48q51 0 100 21.5t101 66.5v326zM627 90q-56 -57 -123.5 -86t-145.5 -29q-131 0 -213 84.5t-82 219.5q0 142 102 222.5t357 129.5l105 18v84q0 70 -52.5 109t-146.5 39q-64 0 -121.5 -29.5t-105.5 -87.5h-82v199
q82 29 155 43t146 14q192 0 284.5 -82t92.5 -254v-684h-170v90zM768 1540v-61q-99 -54 -183 -117.5t-149 -134.5h-114v39q68 55 125 123.5t104 150.5h217z" />
    <glyph glyph-name="acircumflex" unicode="&#xe2;" horiz-adv-x="938" 
d="M627 535q-213 -42 -298 -98t-85 -148q0 -72 52 -120t130 -48q51 0 100 21.5t101 66.5v326zM627 90q-56 -57 -123.5 -86t-145.5 -29q-131 0 -213 84.5t-82 219.5q0 142 102 222.5t357 129.5l105 18v84q0 70 -52.5 109t-146.5 39q-64 0 -121.5 -29.5t-105.5 -87.5h-82v199
q82 29 155 43t146 14q192 0 284.5 -82t92.5 -254v-684h-170v90zM444 1432q-35 -86 -78.5 -132.5t-109.5 -72.5h-102v63q52 28 106.5 94t99.5 156h218q36 -81 89 -146t115 -104v-63h-98q-68 27 -112 74.5t-76 130.5h-52z" />
    <glyph glyph-name="atilde" unicode="&#xe3;" horiz-adv-x="938" 
d="M627 535q-213 -42 -298 -98t-85 -148q0 -72 52 -120t130 -48q51 0 100 21.5t101 66.5v326zM627 90q-56 -57 -123.5 -86t-145.5 -29q-131 0 -213 84.5t-82 219.5q0 142 102 222.5t357 129.5l105 18v84q0 70 -52.5 109t-146.5 39q-64 0 -121.5 -29.5t-105.5 -87.5h-82v199
q82 29 155 43t146 14q192 0 284.5 -82t92.5 -254v-684h-170v90zM784 1491q-30 -106 -82.5 -159.5t-126.5 -53.5q-34 0 -98.5 18.5t-136.5 51.5q-15 -13 -25.5 -30.5t-19.5 -45.5h-135q25 103 78.5 156t134.5 53q54 0 130.5 -32t98.5 -38q16 21 27 40.5t19 39.5h136z" />
    <glyph glyph-name="adieresis" unicode="&#xe4;" horiz-adv-x="938" 
d="M627 535q-213 -42 -298 -98t-85 -148q0 -72 52 -120t130 -48q51 0 100 21.5t101 66.5v326zM627 90q-56 -57 -123.5 -86t-145.5 -29q-131 0 -213 84.5t-82 219.5q0 142 102 222.5t357 129.5l105 18v84q0 70 -52.5 109t-146.5 39q-64 0 -121.5 -29.5t-105.5 -87.5h-82v199
q82 29 155 43t146 14q192 0 284.5 -82t92.5 -254v-684h-170v90zM549 1481h188v-195h-188v195zM201 1481h186v-195h-186v195z" />
    <glyph glyph-name="aring" unicode="&#xe5;" horiz-adv-x="938" 
d="M627 535q-213 -42 -298 -98t-85 -148q0 -72 52 -120t130 -48q51 0 100 21.5t101 66.5v326zM627 90q-56 -57 -123.5 -86t-145.5 -29q-131 0 -213 84.5t-82 219.5q0 142 102 222.5t357 129.5l105 18v84q0 70 -52.5 109t-146.5 39q-64 0 -121.5 -29.5t-105.5 -87.5h-82v199
q82 29 155 43t146 14q192 0 284.5 -82t92.5 -254v-684h-170v90zM360 1450q0 -44 33 -77.5t76 -33.5q44 0 76.5 33t32.5 78t-31.5 75.5t-77.5 30.5t-77.5 -30t-31.5 -76zM246 1450q0 91 65.5 157t157.5 66q91 0 157 -66t66 -157q0 -94 -65.5 -159.5t-157.5 -65.5t-157.5 66
t-65.5 159z" />
    <glyph glyph-name="ccedilla" unicode="&#xe7;" horiz-adv-x="883" 
d="M825 268v-196q-77 -51 -150 -75t-149 -24q-202 0 -322 143t-120 388q0 234 120.5 376t317.5 142q68 0 138 -21t165 -71v-199h-80q-47 78 -100.5 112t-126.5 34q-121 0 -189.5 -99t-68.5 -274q0 -178 67.5 -277.5t186.5 -99.5q73 0 130 34.5t104 106.5h77zM452 0h82v-100
h33q110 0 169.5 -45.5t59.5 -128.5q0 -97 -65.5 -146t-194.5 -49q-54 0 -122.5 11t-149.5 32l-2 100q80 -19 150.5 -29t119.5 -10q55 0 85 21.5t30 60.5q0 44 -33 65t-98 21q-27 0 -40 -0.5t-24 -0.5v198z" />
    <glyph glyph-name="egrave" unicode="&#xe8;" horiz-adv-x="967" 
d="M881 479v-28h-617q0 -166 70 -249t209 -83q74 0 137 26t131 86h70v-170q-100 -49 -180.5 -70.5t-159.5 -21.5q-223 0 -339 132.5t-116 385.5q0 252 113.5 394.5t310.5 142.5q169 0 270 -109t101 -294v-142zM715 594q0 167 -50 239t-161 72q-116 0 -176 -84t-64 -251
l451 -1v25zM229 1540h217q45 -80 102.5 -149.5t125.5 -124.5v-39h-113q-72 76 -155 139.5t-177 112.5v61z" />
    <glyph glyph-name="eacute" unicode="&#xe9;" horiz-adv-x="967" 
d="M881 479v-28h-617q0 -166 70 -249t209 -83q74 0 137 26t131 86h70v-170q-100 -49 -180.5 -70.5t-159.5 -21.5q-223 0 -339 132.5t-116 385.5q0 252 113.5 394.5t310.5 142.5q169 0 270 -109t101 -294v-142zM715 594q0 167 -50 239t-161 72q-116 0 -176 -84t-64 -251
l451 -1v25zM819 1540v-61q-99 -54 -183 -117.5t-149 -134.5h-114v39q68 55 125 123.5t104 150.5h217z" />
    <glyph glyph-name="ecircumflex" unicode="&#xea;" horiz-adv-x="967" 
d="M881 479v-28h-617q0 -166 70 -249t209 -83q74 0 137 26t131 86h70v-170q-100 -49 -180.5 -70.5t-159.5 -21.5q-223 0 -339 132.5t-116 385.5q0 252 113.5 394.5t310.5 142.5q169 0 270 -109t101 -294v-142zM715 594q0 167 -50 239t-161 72q-116 0 -176 -84t-64 -251
l451 -1v25zM495 1432q-35 -86 -78.5 -132.5t-109.5 -72.5h-102v63q52 28 106.5 94t99.5 156h218q36 -81 89 -146t115 -104v-63h-98q-68 27 -112 74.5t-76 130.5h-52z" />
    <glyph glyph-name="edieresis" unicode="&#xeb;" horiz-adv-x="967" 
d="M881 479v-28h-617q0 -166 70 -249t209 -83q74 0 137 26t131 86h70v-170q-100 -49 -180.5 -70.5t-159.5 -21.5q-223 0 -339 132.5t-116 385.5q0 252 113.5 394.5t310.5 142.5q169 0 270 -109t101 -294v-142zM715 594q0 167 -50 239t-161 72q-116 0 -176 -84t-64 -251
l451 -1v25zM600 1481h188v-195h-188v195zM252 1481h186v-195h-186v195z" />
    <glyph glyph-name="igrave" unicode="&#xec;" horiz-adv-x="483" 
d="M319 995v-995h-172v995h172zM-49 1540h217q45 -80 102.5 -149.5t125.5 -124.5v-39h-113q-72 76 -155 139.5t-177 112.5v61z" />
    <glyph glyph-name="iacute" unicode="&#xed;" horiz-adv-x="483" 
d="M319 995v-995h-172v995h172zM541 1540v-61q-99 -54 -183 -117.5t-149 -134.5h-114v39q68 55 125 123.5t104 150.5h217z" />
    <glyph glyph-name="icircumflex" unicode="&#xee;" horiz-adv-x="483" 
d="M319 995v-995h-172v995h172zM217 1432q-35 -86 -78.5 -132.5t-109.5 -72.5h-102v63q52 28 106.5 94t99.5 156h218q36 -81 89 -146t115 -104v-63h-98q-68 27 -112 74.5t-76 130.5h-52z" />
    <glyph glyph-name="idieresis" unicode="&#xef;" horiz-adv-x="483" 
d="M319 995v-995h-172v995h172zM322 1481h188v-195h-188v195zM-26 1481h186v-195h-186v195z" />
    <glyph glyph-name="ntilde" unicode="&#xf1;" 
d="M141 995h174v-67l17 -4q59 53 118.5 76.5t135.5 23.5q145 0 222 -95t77 -276v-110v-543h-170v604q0 158 -40.5 217.5t-137.5 59.5q-55 0 -108.5 -23t-115.5 -72v-786h-172v995zM827 1491q-30 -106 -82.5 -159.5t-126.5 -53.5q-34 0 -98.5 18.5t-136.5 51.5
q-15 -13 -25.5 -30.5t-19.5 -45.5h-135q25 103 78.5 156t134.5 53q54 0 130.5 -32t98.5 -38q16 21 27 40.5t19 39.5h136z" />
    <glyph glyph-name="ograve" unicode="&#xf2;" 
d="M508 881q-118 0 -183 -96t-65 -273q0 -194 64.5 -295.5t187.5 -101.5q118 0 184 101.5t66 287.5q0 185 -64.5 281t-189.5 96zM84 514q0 232 115 371t307 139q206 0 319 -137t113 -385q0 -251 -112.5 -391t-313.5 -140q-203 0 -315.5 143t-112.5 400zM221 1540h217
q45 -80 102.5 -149.5t125.5 -124.5v-39h-113q-72 76 -155 139.5t-177 112.5v61z" />
    <glyph glyph-name="oacute" unicode="&#xf3;" 
d="M508 881q-118 0 -183 -96t-65 -273q0 -194 64.5 -295.5t187.5 -101.5q118 0 184 101.5t66 287.5q0 185 -64.5 281t-189.5 96zM84 514q0 232 115 371t307 139q206 0 319 -137t113 -385q0 -251 -112.5 -391t-313.5 -140q-203 0 -315.5 143t-112.5 400zM811 1540v-61
q-99 -54 -183 -117.5t-149 -134.5h-114v39q68 55 125 123.5t104 150.5h217z" />
    <glyph glyph-name="ocircumflex" unicode="&#xf4;" 
d="M508 881q-118 0 -183 -96t-65 -273q0 -194 64.5 -295.5t187.5 -101.5q118 0 184 101.5t66 287.5q0 185 -64.5 281t-189.5 96zM84 514q0 232 115 371t307 139q206 0 319 -137t113 -385q0 -251 -112.5 -391t-313.5 -140q-203 0 -315.5 143t-112.5 400zM487 1432
q-35 -86 -78.5 -132.5t-109.5 -72.5h-102v63q52 28 106.5 94t99.5 156h218q36 -81 89 -146t115 -104v-63h-98q-68 27 -112 74.5t-76 130.5h-52z" />
    <glyph glyph-name="otilde" unicode="&#xf5;" 
d="M508 881q-118 0 -183 -96t-65 -273q0 -194 64.5 -295.5t187.5 -101.5q118 0 184 101.5t66 287.5q0 185 -64.5 281t-189.5 96zM84 514q0 232 115 371t307 139q206 0 319 -137t113 -385q0 -251 -112.5 -391t-313.5 -140q-203 0 -315.5 143t-112.5 400zM827 1491
q-30 -106 -82.5 -159.5t-126.5 -53.5q-34 0 -98.5 18.5t-136.5 51.5q-15 -13 -25.5 -30.5t-19.5 -45.5h-135q25 103 78.5 156t134.5 53q54 0 130.5 -32t98.5 -38q16 21 27 40.5t19 39.5h136z" />
    <glyph glyph-name="odieresis" unicode="&#xf6;" 
d="M508 881q-118 0 -183 -96t-65 -273q0 -194 64.5 -295.5t187.5 -101.5q118 0 184 101.5t66 287.5q0 185 -64.5 281t-189.5 96zM84 514q0 232 115 371t307 139q206 0 319 -137t113 -385q0 -251 -112.5 -391t-313.5 -140q-203 0 -315.5 143t-112.5 400zM592 1481h188v-195
h-188v195zM244 1481h186v-195h-186v195z" />
    <glyph glyph-name="divide" unicode="&#xf7;" horiz-adv-x="1706" 
d="M854 365q47 0 81 -34t34 -81t-33.5 -81t-81.5 -34t-81.5 33.5t-33.5 81.5t34 81.5t81 33.5zM1452 670v-117h-1198v117h1198zM854 1085q48 0 81.5 -33.5t33.5 -80.5q0 -48 -33.5 -81.5t-81.5 -33.5q-49 0 -82 33.5t-33 81.5q0 47 34 80.5t81 33.5z" />
    <glyph glyph-name="ugrave" unicode="&#xf9;" 
d="M883 0h-174v68l-17 4q-59 -54 -118.5 -77.5t-135.5 -23.5q-97 0 -168 49.5t-108 141.5q-12 32 -17.5 86t-5.5 205v542h170v-604q0 -158 40.5 -217t137.5 -59q53 0 107 23t117 73v784h172v-995zM221 1540h217q45 -80 102.5 -149.5t125.5 -124.5v-39h-113
q-72 76 -155 139.5t-177 112.5v61z" />
    <glyph glyph-name="uacute" unicode="&#xfa;" 
d="M883 0h-174v68l-17 4q-59 -54 -118.5 -77.5t-135.5 -23.5q-97 0 -168 49.5t-108 141.5q-12 32 -17.5 86t-5.5 205v542h170v-604q0 -158 40.5 -217t137.5 -59q53 0 107 23t117 73v784h172v-995zM811 1540v-61q-99 -54 -183 -117.5t-149 -134.5h-114v39q68 55 125 123.5
t104 150.5h217z" />
    <glyph glyph-name="ucircumflex" unicode="&#xfb;" 
d="M883 0h-174v68l-17 4q-59 -54 -118.5 -77.5t-135.5 -23.5q-97 0 -168 49.5t-108 141.5q-12 32 -17.5 86t-5.5 205v542h170v-604q0 -158 40.5 -217t137.5 -59q53 0 107 23t117 73v784h172v-995zM487 1432q-35 -86 -78.5 -132.5t-109.5 -72.5h-102v63q52 28 106.5 94
t99.5 156h218q36 -81 89 -146t115 -104v-63h-98q-68 27 -112 74.5t-76 130.5h-52z" />
    <glyph glyph-name="udieresis" unicode="&#xfc;" 
d="M883 0h-174v68l-17 4q-59 -54 -118.5 -77.5t-135.5 -23.5q-97 0 -168 49.5t-108 141.5q-12 32 -17.5 86t-5.5 205v542h170v-604q0 -158 40.5 -217t137.5 -59q53 0 107 23t117 73v784h172v-995zM592 1481h188v-195h-188v195zM244 1481h186v-195h-186v195z" />
    <glyph glyph-name="yacute" unicode="&#xfd;" horiz-adv-x="909" 
d="M94 -170h72q95 0 138 32t69 124l-307 1009h178l143 -544q23 -83 33 -149t12 -134h47q11 90 24 163.5t25 119.5l162 544h172l-352 -1081q-46 -142 -114.5 -185.5t-237.5 -43.5h-64v145zM754 1540v-61q-99 -54 -183 -117.5t-149 -134.5h-114v39q68 55 125 123.5t104 150.5
h217z" />
    <glyph glyph-name="ydieresis" unicode="&#xff;" horiz-adv-x="909" 
d="M94 -170h72q95 0 138 32t69 124l-307 1009h178l143 -544q23 -83 33 -149t12 -134h47q11 90 24 163.5t25 119.5l162 544h172l-352 -1081q-46 -142 -114.5 -185.5t-237.5 -43.5h-64v145zM535 1481h188v-195h-188v195zM187 1481h186v-195h-186v195z" />
    <glyph glyph-name="Cacute" unicode="&#x106;" horiz-adv-x="1139" 
d="M1053 135q-107 -82 -213.5 -123t-212.5 -41q-263 0 -402 183.5t-139 529.5t138.5 527.5t402.5 181.5q93 0 200 -38.5t226 -113.5v-246h-109q-48 130 -125 191t-192 61q-175 0 -261.5 -140.5t-86.5 -422.5q0 -271 88.5 -411t259.5 -140q115 0 194 63t123 191h109v-252z
M868 1814v-61q-99 -54 -183 -117.5t-149 -134.5h-114v39q68 55 125 123.5t104 150.5h217z" />
    <glyph glyph-name="cacute" unicode="&#x107;" horiz-adv-x="883" 
d="M825 268v-196q-77 -51 -150 -75t-149 -24q-202 0 -322 143t-120 388q0 234 120.5 376t317.5 142q68 0 138 -21t165 -71v-199h-80q-47 78 -100.5 112t-126.5 34q-121 0 -189.5 -99t-68.5 -274q0 -178 67.5 -277.5t186.5 -99.5q73 0 130 34.5t104 106.5h77zM788 1540v-61
q-99 -54 -183 -117.5t-149 -134.5h-114v39q68 55 125 123.5t104 150.5h217z" />
    <glyph glyph-name="Ccaron" unicode="&#x10c;" horiz-adv-x="1139" 
d="M1053 135q-107 -82 -213.5 -123t-212.5 -41q-263 0 -402 183.5t-139 529.5t138.5 527.5t402.5 181.5q93 0 200 -38.5t226 -113.5v-246h-109q-48 130 -125 191t-192 61q-175 0 -261.5 -140.5t-86.5 -422.5q0 -271 88.5 -411t259.5 -140q115 0 194 63t123 191h109v-252z
M542 1609h52q29 78 74.5 127.5t113.5 77.5h100v-63q-63 -40 -117 -105t-90 -145h-217q-45 90 -99.5 156t-106.5 94v63h102q67 -27 112 -75.5t76 -129.5z" />
    <glyph glyph-name="ccaron" unicode="&#x10d;" horiz-adv-x="883" 
d="M825 268v-196q-77 -51 -150 -75t-149 -24q-202 0 -322 143t-120 388q0 234 120.5 376t317.5 142q68 0 138 -21t165 -71v-199h-80q-47 78 -100.5 112t-126.5 34q-121 0 -189.5 -99t-68.5 -274q0 -178 67.5 -277.5t186.5 -99.5q73 0 130 34.5t104 106.5h77zM462 1335h52
q29 78 74.5 127.5t113.5 77.5h100v-63q-63 -40 -117 -105t-90 -145h-217q-45 90 -99.5 156t-106.5 94v63h102q67 -27 112 -75.5t76 -129.5z" />
    <glyph glyph-name="Gbreve" unicode="&#x11e;" horiz-adv-x="1223" 
d="M877 236v296h-310v142h514v-674h-204v106l-17 9q-63 -75 -132 -109.5t-153 -34.5q-91 0 -182.5 47t-156.5 129q-78 97 -114 225.5t-36 311.5q0 346 142.5 527.5t414.5 181.5q97 0 206.5 -38t231.5 -114v-242h-120q-52 129 -130.5 188.5t-197.5 59.5q-180 0 -269.5 -140
t-89.5 -423q0 -265 89.5 -408t254.5 -143q61 0 124 25t135 78zM290 1798h119q12 -71 59 -102t142 -31t142.5 31.5t58.5 101.5h120q-16 -148 -93 -215.5t-228 -67.5q-150 0 -227 68t-93 215z" />
    <glyph glyph-name="gbreve" unicode="&#x11f;" 
d="M881 995v-802q0 -157 -11.5 -224.5t-38.5 -118.5q-40 -75 -136 -119t-220 -44q-92 0 -188.5 23.5t-186.5 68.5v205h72q61 -76 132.5 -109t176.5 -33q122 0 177 68t55 219q0 29 -0.5 43.5t-2.5 28.5l-18 2q-57 -50 -114.5 -73.5t-122.5 -23.5q-165 0 -265 124t-100 331
q0 214 99.5 338.5t267.5 124.5q66 0 121.5 -23.5t111.5 -74.5l21 6v63h170zM711 807q-54 45 -105 66.5t-106 21.5q-113 0 -173.5 -85t-60.5 -245q0 -162 59.5 -245.5t174.5 -83.5q53 0 104.5 21.5t106.5 66.5v483zM190 1524h119q12 -71 59 -102t142 -31t142.5 31.5
t58.5 101.5h120q-16 -148 -93 -215.5t-228 -67.5q-150 0 -227 68t-93 215z" />
    <glyph glyph-name="dotlessi" unicode="&#x131;" horiz-adv-x="483" 
d="M319 995v-995h-172v995h172z" />
    <glyph glyph-name="Scedilla" unicode="&#x15e;" horiz-adv-x="1053" 
d="M113 342h108q34 -105 112 -163t185 -58q117 0 191.5 68.5t74.5 170.5q0 82 -55.5 136.5t-253.5 134.5q-13 5 -38 15q-164 66 -222 116q-57 51 -87 118t-30 144q0 163 112.5 266t293.5 103q104 0 201.5 -30t183.5 -89v-250h-98q-37 114 -109 171.5t-176 57.5
q-97 0 -162 -58.5t-65 -145.5q0 -151 253 -243q39 -14 60 -22q193 -72 276.5 -167t83.5 -238q0 -184 -118 -297t-316 -113q-107 0 -208 30.5t-197 90.5v252zM489 0h82v-100h33q110 0 169.5 -45.5t59.5 -128.5q0 -97 -65.5 -146t-194.5 -49q-54 0 -122.5 11t-149.5 32l-2 100
q80 -19 150.5 -29t119.5 -10q55 0 85 21.5t30 60.5q0 44 -33 65t-98 21q-27 0 -40 -0.5t-24 -0.5v198z" />
    <glyph glyph-name="scedilla" unicode="&#x15f;" horiz-adv-x="825" 
d="M70 231h88q36 -63 97 -97t138 -34q87 0 140 44.5t53 115.5q0 112 -225 183q-12 4 -17 6q-141 45 -204.5 112.5t-63.5 171.5q0 129 96.5 208t257.5 79q67 0 138 -15t149 -44v-199h-80q-40 73 -95 108t-130 35q-69 0 -116.5 -42t-47.5 -103q0 -64 42.5 -101.5t198.5 -80.5
q134 -39 200.5 -112t66.5 -179q0 -141 -97 -228.5t-253 -87.5q-104 0 -189 20t-147 58v182zM377 0h82v-100h33q110 0 169.5 -45.5t59.5 -128.5q0 -97 -65.5 -146t-194.5 -49q-54 0 -122.5 11t-149.5 32l-2 100q80 -19 150.5 -29t119.5 -10q55 0 85 21.5t30 60.5q0 44 -33 65
t-98 21q-27 0 -40 -0.5t-24 -0.5v198z" />
    <glyph glyph-name="Scaron" unicode="&#x160;" horiz-adv-x="1053" 
d="M113 342h108q34 -105 112 -163t185 -58q117 0 191.5 68.5t74.5 170.5q0 82 -55.5 136.5t-253.5 134.5q-13 5 -38 15q-164 66 -222 116q-57 51 -87 118t-30 144q0 163 112.5 266t293.5 103q104 0 201.5 -30t183.5 -89v-250h-98q-37 114 -109 171.5t-176 57.5
q-97 0 -162 -58.5t-65 -145.5q0 -151 253 -243q39 -14 60 -22q193 -72 276.5 -167t83.5 -238q0 -184 -118 -297t-316 -113q-107 0 -208 30.5t-197 90.5v252zM499 1609h52q29 78 74.5 127.5t113.5 77.5h100v-63q-63 -40 -117 -105t-90 -145h-217q-45 90 -99.5 156t-106.5 94
v63h102q67 -27 112 -75.5t76 -129.5z" />
    <glyph glyph-name="scaron" unicode="&#x161;" horiz-adv-x="825" 
d="M70 231h88q36 -63 97 -97t138 -34q87 0 140 44.5t53 115.5q0 112 -225 183q-12 4 -17 6q-141 45 -204.5 112.5t-63.5 171.5q0 129 96.5 208t257.5 79q67 0 138 -15t149 -44v-199h-80q-40 73 -95 108t-130 35q-69 0 -116.5 -42t-47.5 -103q0 -64 42.5 -101.5t198.5 -80.5
q134 -39 200.5 -112t66.5 -179q0 -141 -97 -228.5t-253 -87.5q-104 0 -189 20t-147 58v182zM387 1335h52q29 78 74.5 127.5t113.5 77.5h100v-63q-63 -40 -117 -105t-90 -145h-217q-45 90 -99.5 156t-106.5 94v63h102q67 -27 112 -75.5t76 -129.5z" />
    <glyph glyph-name="Ydieresis" unicode="&#x178;" horiz-adv-x="1110" 
d="M469 498l-412 868h215l197 -512l9 -24q45 -117 71 -209h29q14 74 30 136t33 105l197 504h215l-412 -868v-498h-172v498zM635 1755h188v-195h-188v195zM287 1755h186v-195h-186v195z" />
    <glyph glyph-name="Zcaron" unicode="&#x17d;" 
d="M51 147l690 1074l-12 16q-38 -9 -79 -12.5t-111 -3.5h-453v145h862v-145l-692 -1074l10 -20q42 11 88.5 15.5t134.5 4.5h484v-147h-922v147zM485 1609h52q29 78 74.5 127.5t113.5 77.5h100v-63q-63 -40 -117 -105t-90 -145h-217q-45 90 -99.5 156t-106.5 94v63h102
q67 -27 112 -75.5t76 -129.5z" />
    <glyph glyph-name="zcaron" unicode="&#x17e;" horiz-adv-x="797" 
d="M43 154l371 567q24 35 49 64t53 55v24h-440v131h635v-131l-375 -567q-28 -43 -50 -70t-46 -49v-24h514v-154h-711v154zM372 1335h52q29 78 74.5 127.5t113.5 77.5h100v-63q-63 -40 -117 -105t-90 -145h-217q-45 90 -99.5 156t-106.5 94v63h102q67 -27 112 -75.5
t76 -129.5z" />
    <glyph glyph-name="circumflex" unicode="&#x2c6;" 
d="M487 1432q-35 -86 -78.5 -132.5t-109.5 -72.5h-102v63q52 28 106.5 94t99.5 156h218q36 -81 89 -146t115 -104v-63h-98q-68 27 -112 74.5t-76 130.5h-52z" />
    <glyph glyph-name="caron" unicode="&#x2c7;" 
d="M485 1335h52q29 78 74.5 127.5t113.5 77.5h100v-63q-63 -40 -117 -105t-90 -145h-217q-45 90 -99.5 156t-106.5 94v63h102q67 -27 112 -75.5t76 -129.5z" />
    <glyph glyph-name="breve" unicode="&#x2d8;" 
d="M190 1524h119q12 -71 59 -102t142 -31t142.5 31.5t58.5 101.5h120q-16 -148 -93 -215.5t-228 -67.5q-150 0 -227 68t-93 215z" />
    <glyph glyph-name="ring" unicode="&#x2da;" 
d="M403 1450q0 -44 33 -77.5t76 -33.5q44 0 76.5 33t32.5 78t-31.5 75.5t-77.5 30.5t-77.5 -30t-31.5 -76zM289 1450q0 91 65.5 157t157.5 66q91 0 157 -66t66 -157q0 -94 -65.5 -159.5t-157.5 -65.5t-157.5 66t-65.5 159z" />
    <glyph glyph-name="tilde" unicode="&#x2dc;" 
d="M827 1491q-30 -106 -82.5 -159.5t-126.5 -53.5q-34 0 -98.5 18.5t-136.5 51.5q-15 -13 -25.5 -30.5t-19.5 -45.5h-135q25 103 78.5 156t134.5 53q54 0 130.5 -32t98.5 -38q16 21 27 40.5t19 39.5h136z" />
    <glyph glyph-name="Omega" unicode="&#x3a9;" horiz-adv-x="1573" 
d="M1473 156v-156h-590v150q193 111 296 279t103 374q0 251 -137 405t-359 154q-221 0 -359 -155t-138 -404q0 -205 103 -373.5t298 -279.5v-150h-590v156h332q-164 133 -242.5 285t-78.5 335q0 329 188.5 533t486.5 204q299 0 487.5 -202.5t188.5 -530.5
q0 -186 -78.5 -338.5t-242.5 -285.5h332z" />
    <glyph glyph-name="pi" unicode="&#x3c0;" horiz-adv-x="1186" 
d="M1139 930h-185l-110 -516q-14 -66 -21.5 -114.5t-7.5 -74.5q0 -57 24 -81.5t81 -24.5q21 0 46 2.5t52 7.5l-29 -129l-5 -1q-64 -15 -99 -15q-110 0 -168 51.5t-58 150.5q0 48 11.5 121t44.5 230l84 393h-348l-197 -930h-158l197 930h-39q-55 0 -84.5 -31t-40.5 -100h-145
q26 153 94 211.5t223 58.5h866z" />
    <glyph glyph-name="endash" unicode="&#x2013;" 
d="M0 760h1024v-154h-1024v154z" />
    <glyph glyph-name="emdash" unicode="&#x2014;" horiz-adv-x="2048" 
d="M0 760h2048v-154h-2048v154z" />
    <glyph glyph-name="quoteleft" unicode="&#x2018;" horiz-adv-x="455" 
d="M233 1165v-82q0 -97 22.5 -129.5t80.5 -38.5v-84h-6q-118 0 -164.5 64.5t-46.5 243.5v227h217v-201h-103z" />
    <glyph glyph-name="quoteright" unicode="&#x2019;" horiz-adv-x="455" 
d="M119 1366h217v-227q0 -180 -46.5 -244t-164.5 -64h-6v84q59 6 80.5 38t21.5 130v82h-102v201z" />
    <glyph glyph-name="bullet" unicode="&#x2022;" horiz-adv-x="1208" 
d="M307 762q0 123 87 209t210 86q122 0 208.5 -86.5t86.5 -208.5t-87.5 -209.5t-209.5 -87.5q-123 0 -209 87t-86 210z" />
    <glyph glyph-name="ellipsis" unicode="&#x2026;" horiz-adv-x="2048" 
d="M233 227h218v-227h-218v227zM915 227h218v-227h-218v227zM1599 227h218v-227h-218v227z" />
    <glyph glyph-name="franc" unicode="&#x20a3;" horiz-adv-x="1620" 
d="M141 1366h768v-147h-587v-476h569v-145h-569v-598h-181v1366zM1079 995h172v-39q0 -34 -2 -63t-6 -55l17 -13q47 93 119.5 131.5t199.5 38.5h12v-200h-86q-150 0 -202 -50t-52 -192v-553h-172v995z" />
    <glyph glyph-name="trademark" unicode="&#x2122;" horiz-adv-x="1706" 
d="M948 1456l160 -405l149 405h132v-534h-82v458l-172 -458h-54l-180 458v-458h-82v534h129zM694 1456v-67h-172v-467h-94v467h-174v67h440z" />
    <glyph glyph-name="partialdiff" unicode="&#x2202;" horiz-adv-x="1044" 
d="M754 604q13 81 19.5 161.5t6.5 158.5q0 140 -39.5 216.5t-111.5 76.5q-53 0 -117 -63.5t-109 -63.5q-29 0 -51 21.5t-22 51.5q0 59 68 105.5t163 46.5q171 0 273 -152.5t102 -412.5q0 -335 -139 -555t-344 -220q-147 0 -241.5 106.5t-94.5 272.5q0 189 108.5 316
t266.5 127q99 0 162.5 -47t99.5 -146zM709 483q0 117 -45 180.5t-127 63.5q-113 0 -184.5 -127.5t-71.5 -333.5q0 -117 44 -178t128 -61q111 0 183.5 128t72.5 328z" />
    <glyph glyph-name="Delta" unicode="&#x2206;" horiz-adv-x="1356" 
d="M1122 158l-444 1138l-445 -1138h889zM780 1473l586 -1473h-1374l586 1473h202z" />
    <glyph glyph-name="product" unicode="&#x220f;" horiz-adv-x="1528" 
d="M160 1473h1208v-1866h-201v1693h-809v-1693h-198v1866z" />
    <glyph glyph-name="summation" unicode="&#x2211;" horiz-adv-x="1346" 
d="M51 1473h1239v-166h-989l690 -744l-719 -792h1035v-164h-1289v139l738 813l-705 758v156z" />
    <glyph glyph-name="minus" unicode="&#x2212;" horiz-adv-x="1706" 
d="M1452 670v-119h-1198v119h1198z" />
    <glyph glyph-name="radical" unicode="&#x221a;" horiz-adv-x="1288" 
d="M1288 1647v-82h-119l-594 -1606h-53l-323 893l-119 -43l-23 68l262 92l265 -729l522 1407h182z" />
    <glyph glyph-name="infinity" unicode="&#x221e;" horiz-adv-x="1706" 
d="M905 559q51 -95 119 -141.5t156 -46.5q102 0 168.5 71t66.5 181q0 108 -61 179.5t-152 71.5q-85 0 -153.5 -72.5t-143.5 -242.5zM803 666q-51 95 -119 142.5t-154 47.5q-105 0 -171 -71t-66 -183q0 -108 61 -179t152 -71q85 0 152 69t145 245zM840 727q67 138 146 204
t175 66q134 0 226 -108.5t92 -272.5q0 -171 -82 -277t-213 -106q-96 0 -169 60t-149 201q-71 -138 -148 -201.5t-173 -63.5q-134 0 -226 109t-92 272q0 172 82.5 277.5t214.5 105.5q97 0 172 -63t144 -203z" />
    <glyph glyph-name="integral" unicode="&#x222b;" horiz-adv-x="1020" 
d="M301 -268q103 0 116 664q3 141 5 216q12 503 102 719.5t281 216.5q76 0 122 -39t46 -104q0 -48 -31 -77.5t-82 -29.5q-53 0 -85 35t-32 92q0 8 -6 15.5t-14 7.5q-105 0 -119 -634q-3 -157 -6 -245q-10 -308 -31.5 -461t-62.5 -247q-49 -114 -123 -173t-168 -59
q-73 0 -119.5 38t-46.5 97q0 53 31.5 84t83.5 31q47 0 79.5 -29t32.5 -67q0 -24 7.5 -37.5t19.5 -13.5z" />
    <glyph glyph-name="approxequal" unicode="&#x2248;" horiz-adv-x="1706" 
d="M1530 453q-107 -75 -202 -110.5t-187 -35.5q-98 0 -288 69.5t-290 69.5q-82 0 -169.5 -35.5t-215.5 -123.5v131q106 73 202 109t185 36q111 0 301.5 -68.5t276.5 -68.5q85 0 173.5 35.5t213.5 122.5v-131zM1530 803q-104 -73 -200 -108.5t-187 -35.5q-100 0 -290 69
t-290 69q-83 0 -171.5 -36t-213.5 -122v131q106 73 202 109t185 36q111 0 300.5 -68.5t277.5 -68.5q87 0 175 35t212 121v-131z" />
    <glyph glyph-name="notequal" unicode="&#x2260;" horiz-adv-x="1706" 
d="M1298 1110l-196 -250h350v-115h-424l-211 -270h635v-115h-709l-251 -319l-89 70l197 249h-346v115h420l211 270h-631v115h704l252 320z" />
    <glyph glyph-name="lessequal" unicode="&#x2264;" horiz-adv-x="1706" 
d="M1444 150v-117h-1182v117h1182zM1444 1067l-977 -324l977 -323v-125l-1182 399v101l1182 397v-125z" />
    <glyph glyph-name="greaterequal" unicode="&#x2265;" horiz-adv-x="1706" 
d="M1444 150v-117h-1182v117h1182zM1444 795v-101l-1182 -399v125l979 323l-979 324v125z" />
    <glyph glyph-name="lozenge" unicode="&#x25ca;" horiz-adv-x="1012" 
d="M506 1409l-385 -817l385 -825l385 825zM506 1653l500 -1061l-500 -1069l-500 1069z" />
    <glyph glyph-name="apple" unicode="&#xf000;" horiz-adv-x="1618" 
d="M836 1216q-1 6 -1.5 14t-0.5 23q0 124 95 229.5t236 131.5q1 -10 1.5 -23t0.5 -39q0 -131 -103.5 -234.5t-203.5 -103.5h-8q-3 0 -7.5 1t-8.5 1zM1505 403q-114 -247 -205 -342.5t-204 -95.5q-50 0 -131.5 33t-122.5 33q-45 0 -131 -33t-127 -33q-64 0 -128.5 44
t-129.5 132q-102 140 -157.5 295.5t-55.5 300.5q0 219 125 356.5t323 137.5q68 0 155 -34t124 -34q34 0 121.5 35t152.5 35q110 0 198 -40t161 -124q-102 -65 -151.5 -145.5t-49.5 -182.5q0 -113 60 -200t173 -138z" />
  </font>
</defs>
</svg>
