<?xml version="1.0" standalone="no"?>
<!DOCTYPE svg PUBLIC "-//W3C//DTD SVG 1.1//EN" "http://www.w3.org/Graphics/SVG/1.1/DTD/svg11.dtd" >
<svg xmlns="http://www.w3.org/2000/svg">
<metadata></metadata>
<defs>
<font id="bellcent_add_btaddress" horiz-adv-x="909" >
<font-face units-per-em="2048" ascent="1556" descent="-492" />
<missing-glyph horiz-adv-x="455" />
<glyph horiz-adv-x="0" />
<glyph unicode="&#xd;" horiz-adv-x="455" />
<glyph unicode=" "  horiz-adv-x="455" />
<glyph unicode="&#x09;" horiz-adv-x="455" />
<glyph unicode="&#xa0;" horiz-adv-x="455" />
<glyph unicode="!" horiz-adv-x="455" d="M119 0v203h217v-203h-217zM135 1337h184l-34 -975h-115z" />
<glyph unicode="&#x22;" horiz-adv-x="569" d="M98 881v553h101v-553h-101zM371 881v553h102v-553h-102z" />
<glyph unicode="#" horiz-adv-x="1575" d="M117 479l39 109h325l101 276h-353l35 107h354l173 483h127l-168 -483h264l172 483h127l-170 -483h315l-37 -107h-317l-98 -276h340l-37 -109h-340l-170 -479h-129l172 479h-269l-172 -479h-127l170 479h-327zM612 588h267l96 276h-266z" />
<glyph unicode="$" d="M49 115v149h103q42 -69 95.5 -104t133.5 -47v510q-158 62 -232.5 154.5t-74.5 223.5q0 152 90.5 247.5t244.5 105.5l1 119h84v-119q73 -9 141 -34t133 -67v-145h-86q-36 62 -79.5 96.5t-108.5 50.5v-514q163 -43 244 -132.5t81 -227.5q0 -157 -95 -259t-253 -114v-117 h-90v115q-89 11 -170.5 37.5t-161.5 71.5zM223 1038q0 -106 46 -173t141 -99v489q-84 -10 -135.5 -70.5t-51.5 -146.5zM471 115q97 21 153 89t56 165q0 86 -50.5 144.5t-158.5 96.5v-495z" />
<glyph unicode="&#x26;" horiz-adv-x="1165" d="M113 356q0 125 60 211t192 148v22q-98 77 -144.5 157.5t-46.5 172.5q0 133 87.5 215t227.5 82q141 0 235.5 -89.5t94.5 -221.5q0 -111 -74.5 -202.5t-199.5 -131.5v-14q80 -69 151.5 -153t139.5 -187h36v387h164v-76q0 -133 -30.5 -223.5t-96.5 -151.5v-12l281 -289h-193 l-153 164q-68 -100 -153.5 -147.5t-198.5 -47.5q-162 0 -270.5 111t-108.5 276zM246 387q0 -130 77.5 -218.5t188.5 -88.5q65 0 134 35t147 108l-387 436q-88 -68 -124 -130t-36 -142zM303 1075q0 -73 43.5 -143.5t140.5 -153.5h31q91 64 130.5 126t39.5 140q0 100 -51 158 t-137 58q-89 0 -143 -51.5t-54 -133.5z" />
<glyph unicode="'" horiz-adv-x="295" d="M98 881v553h101v-553h-101z" />
<glyph unicode="(" horiz-adv-x="569" d="M117 516q0 238 71.5 449t217.5 401h126v-29q-126 -167 -185.5 -365.5t-59.5 -455.5q0 -258 59.5 -457t185.5 -364v-29h-126q-146 190 -217.5 401t-71.5 449z" />
<glyph unicode=")" horiz-adv-x="569" d="M35 -305q127 168 187.5 367t60.5 454q0 256 -60.5 455.5t-187.5 365.5v29h129q146 -192 217.5 -402t71.5 -448t-71.5 -448t-217.5 -402h-129v29z" />
<glyph unicode="*" horiz-adv-x="1024" d="M115 991l39 113l305 -109l14 6l-22 365h122l-18 -365l14 -10l301 121l39 -121l-317 -88l-2 -14l241 -275l-94 -69l-211 301h-18l-203 -305l-98 73l233 277v16z" />
<glyph unicode="+" horiz-adv-x="1706" d="M254 561v98h551v562h98v-562h549v-98h-549v-561h-98v561h-551z" />
<glyph unicode="," horiz-adv-x="455" d="M92 -225q66 6 93.5 39t27.5 110v103h-94v180h219v-225q0 -169 -53.5 -232.5t-192.5 -68.5v94z" />
<glyph unicode="-" horiz-adv-x="569" d="M72 541v141h426v-141h-426z" />
<glyph unicode="." horiz-adv-x="455" d="M119 0v203h217v-203h-217z" />
<glyph unicode="/" horiz-adv-x="883" d="M51 -61l649 1454h129l-647 -1454h-131z" />
<glyph unicode="0" d="M84 662q0 417 84.5 575t292.5 158q201 0 282.5 -161t81.5 -581q0 -370 -84.5 -526t-279.5 -156q-203 0 -290 157t-87 534zM238 725q0 -403 46 -522t169 -119q124 0 171.5 111.5t47.5 484.5q0 353 -48.5 476.5t-168.5 123.5q-121 0 -169 -119.5t-48 -435.5z" />
<glyph unicode="1" d="M104 0v119h285v1128h-285v119h433v-1247h303v-119h-736z" />
<glyph unicode="2" d="M90 973v20q0 198 92 301t269 103q163 0 260.5 -100.5t97.5 -268.5q0 -129 -53.5 -244.5t-175.5 -246.5q-20 -21 -61 -63q-195 -200 -265 -361l27 -29q48 27 99 39t132 12h319v-135h-727v4q0 188 278 514l7 8l11 14q255 299 255 496q0 119 -55.5 182.5t-159.5 63.5 q-100 0 -148 -67t-48 -207v-35h-154z" />
<glyph unicode="3" d="M51 78v160h99q34 -72 93.5 -109t141.5 -37q106 0 178 79.5t72 197.5q0 132 -84 199t-250 69v139q151 8 228 77.5t77 197.5q0 101 -64.5 167t-162.5 66q-70 0 -122.5 -36t-86.5 -107h-92v159q90 48 172 71.5t158 23.5q162 0 262 -92.5t100 -241.5q0 -120 -71.5 -206.5 t-204.5 -125.5v-27q146 -19 227.5 -111t81.5 -239q0 -164 -117 -272.5t-299 -108.5q-93 0 -175 26t-161 81z" />
<glyph unicode="4" d="M47 393v121l467 852h209v-854h123v-119h-123v-393h-141v393h-535zM168 514l18 -33q43 15 95 22t135 7q61 0 96 -6.5t70 -20.5l26 29q-13 69 -19.5 129.5t-6.5 114.5v225q0 58 6.5 128.5t19.5 158.5h-41q-52 -167 -155.5 -363t-243.5 -391z" />
<glyph unicode="5" d="M88 78v160h94q17 -69 71 -107.5t134 -38.5q117 0 185.5 89.5t68.5 244.5q0 153 -63.5 234t-182.5 81q-42 0 -80 -14t-75 -43l-101 8v674h635v-131h-258q-61 0 -118 7.5t-113 23.5l-29 -25q13 -45 19 -103t6 -151q0 -40 -6 -71t-19 -64l33 -27q47 16 88.5 23.5t81.5 7.5 q153 0 252.5 -117t99.5 -301q0 -211 -114 -338t-304 -127q-78 0 -153 26t-152 79z" />
<glyph unicode="6" d="M74 483q0 244 121 474.5t344 408.5h190v-45q-168 -110 -286.5 -241.5t-178.5 -274.5l27 -8q55 45 107.5 66.5t109.5 21.5q145 0 232 -119.5t87 -323.5q0 -214 -102.5 -342.5t-269.5 -128.5q-169 0 -275 142t-106 370zM217 463q0 -171 63 -269t173 -98q104 0 168.5 89 t64.5 237q0 176 -60 262t-184 86q-106 0 -165.5 -80.5t-59.5 -226.5z" />
<glyph unicode="7" d="M70 0l524 1038q28 56 57.5 104.5t61.5 90.5l-19 29q-55 -16 -111 -23.5t-118 -7.5h-350v135h743v-98l-631 -1268h-157z" />
<glyph unicode="8" d="M57 342q0 102 50.5 190.5t160.5 178.5v14q-92 78 -136 160.5t-44 177.5q0 145 101 237.5t260 92.5q158 0 259 -97t101 -245q0 -102 -48 -181t-153 -147v-18q114 -62 173 -154t59 -209q0 -163 -107.5 -266t-277.5 -103q-180 0 -289 102.5t-109 266.5zM207 379 q0 -129 71 -211t183 -82q106 0 171.5 66t65.5 174q0 115 -84.5 200.5t-265.5 151.5q-69 -51 -105 -127t-36 -172zM238 1069q0 -109 70.5 -186.5t223.5 -137.5q73 73 105.5 140.5t32.5 144.5q0 120 -58.5 187t-160.5 67q-97 0 -155 -58.5t-58 -156.5z" />
<glyph unicode="9" d="M82 922q0 214 102.5 342.5t270.5 128.5q169 0 275 -142t106 -370q0 -244 -120.5 -473t-344.5 -408h-191v45q171 112 289 243t176 273l-24 8q-56 -46 -109.5 -68t-110.5 -22q-144 0 -231.5 120.5t-87.5 322.5zM223 942q0 -176 60 -261t184 -85q108 0 167.5 80t59.5 225 q0 171 -64 270t-173 99q-105 0 -169.5 -89.5t-64.5 -238.5z" />
<glyph unicode=":" horiz-adv-x="541" d="M162 0v203h217v-203h-217zM162 764v203h217v-203h-217z" />
<glyph unicode=";" horiz-adv-x="541" d="M133 -225q66 6 93.5 39t27.5 110v103h-94v180h219v-225q0 -169 -53.5 -232.5t-192.5 -68.5v94zM162 764v203h217v-203h-217z" />
<glyph unicode="&#x3c;" horiz-adv-x="1706" d="M264 569v82l1178 484v-109l-1022 -416l1022 -413v-109z" />
<glyph unicode="=" horiz-adv-x="1706" d="M254 375v98h1198v-98h-1198zM254 748v98h1198v-98h-1198z" />
<glyph unicode="&#x3e;" horiz-adv-x="1706" d="M264 88v109l1022 413l-1022 416v109l1178 -484v-82z" />
<glyph unicode="?" d="M98 1018q0 162 97 255t266 93q172 0 261 -87t89 -255q0 -170 -181 -355q-38 -38 -57 -59q-41 -46 -60 -93.5t-19 -102.5q0 -16 3 -46q0 -4 1 -6h-133v105q0 64 23 115.5t85 117.5q12 13 36 38q146 150 146 286q0 113 -52.5 171t-156.5 58q-89 0 -144.5 -58t-55.5 -153 v-98h-145q-2 14 -2.5 28.5t-0.5 45.5zM322 0v203h219v-203h-219z" />
<glyph unicode="@" horiz-adv-x="2048" d="M117 537q0 204 86 381.5t252 314.5q132 109 298.5 165t360.5 56q162 0 308 -44t249 -124q129 -99 194.5 -228t65.5 -280q0 -171 -62 -309.5t-181 -232.5q-70 -54 -149 -82.5t-161 -28.5q-97 0 -144.5 37.5t-47.5 113.5q0 4 1 14t1 15q-51 -87 -127 -133.5t-168 -46.5 q-153 0 -233 83.5t-80 244.5q0 230 135 388t329 158q94 0 158 -41t96 -122l60 125h94l-139 -562q-10 -44 -13.5 -62.5t-3.5 -29.5q0 -43 28.5 -67.5t78.5 -24.5q52 0 106.5 21t104.5 61q97 77 151 204.5t54 282.5q0 254 -198 417t-509 163q-175 0 -320 -49.5t-262 -149.5 q-147 -126 -222 -290.5t-75 -362.5q0 -174 60 -305t184 -232q102 -82 244 -128t301 -46q171 0 334.5 49.5t300.5 143.5l39 -55q-147 -111 -311 -166.5t-343 -55.5q-191 0 -347 46.5t-275 138.5q-155 118 -229 273.5t-74 361.5zM702 444q0 -111 55 -173t152 -62 q107 0 189.5 71.5t111.5 188.5l62 248q-18 93 -75.5 145.5t-139.5 52.5q-154 0 -254.5 -133.5t-100.5 -337.5z" />
<glyph unicode="A" horiz-adv-x="1024" d="M57 0l349 1337h208l353 -1337h-174l-91 340h-387l-96 -340h-162zM326 459h362l-74 278q-29 115 -49 232t-30 235h-64q-10 -129 -28 -245t-46 -222z" />
<glyph unicode="B" horiz-adv-x="1024" d="M141 0v1337h277q237 0 353 -80t116 -243q0 -108 -60.5 -185t-167.5 -104v-16q137 -40 208 -126.5t71 -213.5q0 -186 -124 -277.5t-376 -91.5h-297zM293 123q25 -2 51.5 -3t75.5 -1q193 0 279.5 59t86.5 189q0 138 -96 207t-289 69q-31 0 -102 -4h-6v-516zM293 758 q4 0 12 -1q64 -3 94 -3q171 0 250.5 56.5t79.5 178.5q0 120 -80.5 179t-242.5 59q-25 0 -54 -1.5t-59 -5.5v-462z" />
<glyph unicode="C" horiz-adv-x="995" d="M86 676q0 326 131.5 509t364.5 183q82 0 168 -30.5t186 -96.5v-186h-102q-46 101 -107.5 146.5t-151.5 45.5q-161 0 -245 -151.5t-84 -444.5q0 -268 86 -411.5t246 -143.5q94 0 157 49t99 150h102v-193q-99 -68 -188 -99.5t-185 -31.5q-226 0 -351.5 185.5t-125.5 519.5z " />
<glyph unicode="D" horiz-adv-x="1110" d="M141 0v1337h301q294 0 440 -166.5t146 -500.5q0 -339 -145 -504.5t-441 -165.5h-301zM293 115q4 -1 10 -1q54 -3 80 -3q257 0 370 132.5t113 436.5q0 289 -114.5 417t-372.5 128q-34 0 -52 -0.5t-34 -2.5v-1107z" />
<glyph unicode="E" d="M141 0v1337h686v-114h-534v-453h506v-121h-506v-530h561v-119h-713z" />
<glyph unicode="F" horiz-adv-x="883" d="M141 0v1337h686v-114h-534v-453h508v-121h-508v-649h-152z" />
<glyph unicode="G" horiz-adv-x="1110" d="M84 670q0 347 128.5 521.5t383.5 174.5q93 0 182.5 -29t188.5 -90v-188h-103q-45 100 -112 147t-164 47q-175 0 -259.5 -144t-84.5 -441q0 -285 77 -428.5t230 -143.5q78 0 142.5 33.5t119.5 101.5v177q0 40 6.5 75.5t20.5 71.5h-348v119h475v-674h-138v111h-20 q-76 -70 -148.5 -105t-142.5 -35q-207 0 -320.5 182.5t-113.5 516.5z" />
<glyph unicode="H" horiz-adv-x="1139" d="M141 0v1337h152v-565h551v565h151v-1337h-151v645h-551v-645h-152z" />
<glyph unicode="I" horiz-adv-x="682" d="M57 0v100h209v1137h-209v100h570v-100h-209v-1137h209v-100h-570z" />
<glyph unicode="J" horiz-adv-x="883" d="M82 401v150h151v-193q0 -144 39.5 -201t135.5 -57q93 0 133.5 62t40.5 209v966h151v-886q0 -283 -73 -381.5t-254 -98.5q-174 0 -249 97t-75 333z" />
<glyph unicode="K" horiz-adv-x="995" d="M141 0v1337h144v-530q0 -56 -5 -99.5t-16 -86.5l21 -11l510 727h159l-278 -401q-12 -18 -46 -58t-89 -102l415 -776h-170l-241 463q-3 5 -9 17q-51 99 -65 182l-41 6l-145 -197v-471h-144z" />
<glyph unicode="L" horiz-adv-x="797" d="M141 0v1337h152v-1218h475v-119h-627z" />
<glyph unicode="M" horiz-adv-x="1395" d="M125 0v1337h254l211 -743q24 -87 46 -185.5t42 -209.5h37q23 122 46 223t46 180l209 735h248v-1337h-146v801q0 23 6 110t23 322h-33l-356 -1233h-123l-361 1233h-30q13 -91 19.5 -183.5t6.5 -213.5v-41v-795h-145z" />
<glyph unicode="N" horiz-adv-x="1139" d="M141 0v1337h193l395 -774q39 -78 66 -159.5t45 -172.5h39q-13 122 -20 216t-7 151v739h143v-1337h-137l-469 938q-28 55 -51 127.5t-41 161.5h-35q10 -95 15.5 -180t5.5 -154v-893h-142z" />
<glyph unicode="O" horiz-adv-x="1139" d="M86 672q0 344 122.5 519t362.5 175q238 0 360 -174.5t122 -515.5q0 -352 -121 -528.5t-361 -176.5q-239 0 -362 178t-123 523zM244 670q0 -294 80.5 -437t244.5 -143q161 0 242.5 137t81.5 406q0 320 -78 467t-246 147q-164 0 -244.5 -143.5t-80.5 -433.5z" />
<glyph unicode="P" horiz-adv-x="995" d="M141 0v1337h291q257 0 381.5 -106.5t124.5 -327.5q0 -216 -131.5 -319t-407.5 -103q-16 0 -38.5 1l-67.5 3v-485h-152zM293 602h6q60 -4 86 -4q205 0 299 77.5t94 246.5q0 152 -94.5 226.5t-288.5 74.5q-29 0 -92 -4h-10v-617z" />
<glyph unicode="Q" horiz-adv-x="1139" d="M86 672q0 343 123 518.5t362 175.5q237 0 359.5 -175t122.5 -515q0 -204 -40.5 -340t-127.5 -234q33 -20 62 -43t57 -53l88 -94l-99 -100l-102 116q-3 4 -10 12q-48 54 -66 101q-65 -36 -125 -53t-123 -17q-236 0 -358.5 177.5t-122.5 523.5zM244 670q0 -293 83 -440.5 t248 -147.5q34 0 73.5 8.5t92.5 28.5q-47 39 -81.5 71t-57.5 58l-133 145l102 94l131 -141q33 -34 60.5 -70t50.5 -75q44 69 63 159t19 252q0 333 -78 484t-248 151q-164 0 -244.5 -143.5t-80.5 -433.5z" />
<glyph unicode="R" horiz-adv-x="1024" d="M141 0v1337h322q213 0 330.5 -96.5t117.5 -271.5q0 -128 -72.5 -221t-211.5 -142l395 -606h-182l-342 545h-205v-545h-152zM293 666q13 -1 29.5 -1.5t48.5 -0.5q192 0 281 70t89 222q0 141 -84.5 206t-267.5 65q-26 0 -90 -4h-6v-557z" />
<glyph unicode="S" horiz-adv-x="938" d="M76 61v195h112q46 -89 106 -128.5t150 -39.5q119 0 193 68.5t74 177.5q0 150 -259 273q-45 22 -69 34q-166 81 -232.5 167.5t-66.5 213.5q0 149 105.5 247.5t267.5 98.5q105 0 191.5 -27.5t162.5 -85.5v-168h-109q-44 84 -101 124t-130 40q-99 0 -165 -64.5t-66 -160.5 q0 -80 49 -138t164 -110q17 -8 51 -23q192 -85 252 -145q56 -56 85 -124t29 -142q0 -164 -125.5 -269.5t-324.5 -105.5q-87 0 -170.5 22.5t-173.5 69.5z" />
<glyph unicode="T" d="M27 1219v118h856v-118h-348v-1219h-152v1219h-356z" />
<glyph unicode="U" horiz-adv-x="1110" d="M141 559v778h154v-862q0 -214 59 -295.5t205 -81.5q140 0 202 74t62 242v123v800h144v-794q0 -138 -7.5 -217t-23.5 -125q-39 -113 -137 -171.5t-250 -58.5q-142 0 -233.5 56t-139.5 172q-19 46 -27 115t-8 245z" />
<glyph unicode="V" horiz-adv-x="995" d="M29 1337h176l201 -823q13 -53 30 -146t39 -235h33q22 151 39.5 261.5t23.5 135.5l195 807h172l-375 -1337h-151z" />
<glyph unicode="W" horiz-adv-x="1593" d="M51 1337h176l160 -796q25 -130 40.5 -217t29.5 -168h30q6 118 44 296q5 24 8 35l168 850h170l163 -841q20 -102 31.5 -183.5t18.5 -156.5h28q16 92 57 293q14 67 21 102l162 786h172l-336 -1337h-170l-166 869q-1 7 -5 25q-35 177 -44 277h-37q-12 -97 -46 -273 q-5 -27 -7 -39l-162 -859h-172z" />
<glyph unicode="X" horiz-adv-x="995" d="M51 0l338 678l-334 659h176l158 -323q32 -66 56 -134.5t42 -140.5h35q24 85 47.5 151.5t44.5 115.5l148 331h164l-330 -659l338 -678h-166l-182 371q-41 81 -60 134t-30 109h-35q-14 -65 -35 -129.5t-51 -134.5l-152 -350h-172z" />
<glyph unicode="Y" horiz-adv-x="938" d="M12 1337h176l195 -477q3 -8 11 -26q58 -141 81 -244h31q17 83 34.5 151.5t32.5 109.5l183 486h170l-371 -860v-477h-154v477z" />
<glyph unicode="Z" horiz-adv-x="883" d="M43 0v104l582 1119h-549v114h737v-73l-594 -1145h594v-119h-770z" />
<glyph unicode="^" horiz-adv-x="2048" d="M422 901l532 557h140l530 -557h-143l-457 455l-459 -455h-143z" />
<glyph unicode="_" horiz-adv-x="1024" d="M0 -383h1024v-100h-1024v100z" />
<glyph unicode="`" horiz-adv-x="1024" d="M248 1346v55h196q38 -69 90 -131.5t119 -118.5v-35h-104q-64 68 -140 126.5t-161 103.5z" />
<glyph unicode="a" d="M76 256q0 157 143.5 250.5t421.5 116.5q1 11 1.5 24.5t0.5 38.5q0 119 -46 173t-148 54q-82 0 -130.5 -33t-78.5 -110h-103v156q79 51 156.5 74.5t161.5 23.5q94 0 168 -33t118 -94q27 -37 38.5 -91t11.5 -181v-29v-55v-541h-144v84l-18 2q-59 -59 -119.5 -87t-130.5 -28 q-127 0 -215 83t-88 202zM223 272q0 -79 55 -128.5t146 -49.5q61 0 115 24t106 75v342q-201 -17 -311.5 -85.5t-110.5 -177.5z" />
<glyph unicode="b" d="M119 0v1395h141v-488l21 -6q45 62 97.5 91.5t119.5 29.5q139 0 223 -142t84 -380q0 -244 -83.5 -386.5t-223.5 -142.5q-68 0 -120.5 29t-96.5 90l-21 -4v-86h-141zM260 201q49 -57 93.5 -83t92.5 -26q105 0 158 102.5t53 303.5q0 198 -53 299.5t-158 101.5 q-49 0 -93.5 -25.5t-92.5 -80.5v-592z" />
<glyph unicode="c" horiz-adv-x="797" d="M88 494q0 249 95.5 389.5t262.5 140.5q71 0 137.5 -30.5t131.5 -92.5v-143h-97q-29 76 -73 114.5t-101 38.5q-96 0 -151 -110.5t-55 -304.5t55 -303t151 -109q61 0 102.5 37.5t67.5 116.5h101v-142q-60 -64 -125 -94.5t-144 -30.5q-167 0 -262.5 139t-95.5 384z" />
<glyph unicode="d" d="M104 500q0 237 85.5 379.5t224.5 142.5q66 0 117.5 -29t97.5 -92l22 6v488h142v-1395h-142v86l-22 4q-45 -62 -96.5 -90.5t-118.5 -28.5q-141 0 -225.5 143t-84.5 386zM252 498q0 -200 54 -303t159 -103q48 0 93 26t93 83v592q-47 55 -92 80.5t-94 25.5q-105 0 -159 -102 t-54 -299z" />
<glyph unicode="e" d="M86 494q0 249 97.5 389.5t271.5 140.5q176 0 272 -139t96 -396v-38h-585v-25q0 -158 67 -248t184 -90q73 0 134.5 31.5t95.5 85.5h100v-111q-75 -65 -154.5 -94t-183.5 -29q-193 0 -294 133t-101 390zM238 563h435q-7 167 -64 257.5t-154 90.5q-102 0 -157.5 -88.5 t-59.5 -259.5z" />
<glyph unicode="f" horiz-adv-x="541" d="M33 877v118h143q0 12 -1 52t-1 67q0 172 64 240.5t223 68.5q8 0 24.5 -1t24.5 -1v-116h-25q-91 0 -130.5 -39.5t-39.5 -130.5v-140h166v-118h-166v-877h-139v877h-143z" />
<glyph unicode="g" d="M90 547q0 227 84.5 351t239.5 124q65 0 117.5 -29.5t97.5 -91.5l22 6v88h140v-964q0 -173 -84 -258.5t-252 -85.5q-85 0 -163 24t-155 74v160h101q36 -68 85.5 -97.5t125.5 -29.5q113 0 157.5 68t44.5 247v64l-22 4q-44 -61 -96.5 -90t-118.5 -29q-153 0 -238.5 122 t-85.5 343zM240 559q0 -185 52 -270.5t163 -85.5q54 0 101.5 25.5t94.5 80.5v484q-49 56 -95.5 82t-100.5 26q-109 0 -162 -85t-53 -257z" />
<glyph unicode="h" d="M141 0v1395h142v-484l22 -4q41 58 93.5 85.5t123.5 27.5q134 0 202.5 -85t68.5 -251v-96v-588h-142v623q0 160 -37.5 221t-128.5 61q-55 0 -103.5 -26t-98.5 -82v-797h-142z" />
<glyph unicode="i" horiz-adv-x="426" d="M135 1237v158h156v-158h-156zM141 0v995h142v-995h-142z" />
<glyph unicode="j" horiz-adv-x="426" d="M-31 -195q10 0 27.5 -1t23.5 -1q74 0 97.5 20.5t23.5 84.5v43v1044h142v-1118q0 -101 -58.5 -146.5t-189.5 -45.5q-26 0 -40 0.5t-26 1.5v118zM135 1237v158h154v-158h-154z" />
<glyph unicode="k" horiz-adv-x="825" d="M141 0v1395h140v-615q0 -53 -3.5 -120t-11.5 -168l29 -9l354 512h164l-348 -442l323 -553h-155l-180 309q-24 41 -39 82.5t-23 85.5l-16 6l-94 -145v-338h-140z" />
<glyph unicode="l" horiz-adv-x="426" d="M141 0v1395h142v-1395h-142z" />
<glyph unicode="m" horiz-adv-x="1366" d="M137 0v995h142v-82l18 -6q40 59 91 86t120 27q77 0 131.5 -33t101.5 -108q74 75 134.5 109t119.5 34q125 0 191.5 -89.5t66.5 -256.5v-88v-588h-141v623q0 159 -38.5 220.5t-129.5 61.5q-60 0 -102 -24t-76 -78v-803h-141v623q0 158 -35.5 220t-118.5 62 q-55 0 -100.5 -25.5t-91.5 -82.5v-797h-142z" />
<glyph unicode="n" d="M141 0v995h144v-82l20 -6q41 58 93.5 85.5t123.5 27.5q136 0 203.5 -86.5t67.5 -261.5v-84v-588h-144v623q0 162 -37 222t-127 60q-55 0 -103.5 -26t-96.5 -82v-797h-144z" />
<glyph unicode="o" d="M86 504q0 242 99 381t270 139q174 0 271 -138.5t97 -387.5q0 -254 -95 -390.5t-273 -136.5q-175 0 -272 140t-97 393zM236 516q0 -211 56 -321.5t163 -110.5q104 0 161.5 108.5t57.5 305.5q0 194 -58.5 303.5t-160.5 109.5q-101 0 -160 -105.5t-59 -289.5z" />
<glyph unicode="p" d="M119 -313v1308h141v-88l21 -6q45 62 97.5 91.5t119.5 29.5q140 0 223.5 -142.5t83.5 -385.5q0 -238 -84 -380.5t-223 -142.5q-68 0 -120.5 29t-96.5 90l-21 -4v-399h-141zM260 201q49 -57 93.5 -83t92.5 -26q105 0 158 101.5t53 300.5q0 201 -53 303t-158 102 q-49 0 -93.5 -25.5t-92.5 -80.5v-592z" />
<glyph unicode="q" d="M104 496q0 243 84.5 385.5t225.5 142.5q67 0 118.5 -28.5t96.5 -90.5l22 4v86h142v-1308h-142v403l-22 4q-45 -62 -96.5 -90.5t-118.5 -28.5q-140 0 -225 142t-85 379zM252 498q0 -198 54 -300t159 -102q49 0 94 25.5t92 81.5v592q-48 56 -93 82t-93 26 q-105 0 -159 -102.5t-54 -302.5z" />
<glyph unicode="r" horiz-adv-x="682" d="M141 0v995h142v-77q0 -38 -4 -61t-13 -46l25 -14q44 93 130 146.5t191 53.5h11l-1 -159q-104 -2 -183.5 -35t-155.5 -107v-696h-142z" />
<glyph unicode="s" horiz-adv-x="825" d="M82 90v143h92q34 -67 94 -102t142 -35q89 0 143.5 46t54.5 120q0 115 -201 175q-71 22 -110 36q-88 31 -140.5 102t-52.5 158q0 126 91.5 207.5t234.5 81.5q81 0 150 -27t137 -86v-143h-94q-32 69 -83 104t-120 35q-79 0 -131.5 -46.5t-52.5 -115.5q0 -62 49 -103 t176 -79q158 -47 224.5 -112.5t66.5 -172.5q0 -137 -93.5 -220t-248.5 -83q-93 0 -180 31t-148 86z" />
<glyph unicode="t" horiz-adv-x="569" d="M43 883v112h121v314h141v-314h225v-112h-225v-619q0 -105 19.5 -125t109.5 -20h96v-119h-155q-120 0 -165.5 51.5t-45.5 212.5v619h-121z" />
<glyph unicode="u" d="M119 410v585h141v-622q0 -159 38.5 -221t129.5 -62q55 0 103.5 26t99.5 83v796h141v-995h-141v82l-23 6q-41 -58 -93.5 -85.5t-123.5 -27.5q-91 0 -155.5 44.5t-96.5 130.5q-11 29 -15.5 77t-4.5 183z" />
<glyph unicode="v" horiz-adv-x="797" d="M43 995h158l137 -553q12 -48 26 -116.5t29 -155.5h25q14 98 26 168t21 102l131 555h158l-295 -995h-127z" />
<glyph unicode="w" horiz-adv-x="1280" d="M37 995h160l168 -845h26l166 845h148l172 -845h24l170 845h164l-279 -995h-137l-174 766h-27l-169 -766h-136z" />
<glyph unicode="x" horiz-adv-x="797" d="M39 0l240 489v23l-240 483h188l158 -444h23l178 444h166l-246 -483v-23l246 -489h-179l-163 451h-23l-176 -451h-172z" />
<glyph unicode="y" horiz-adv-x="797" d="M43 -186q7 0 21 -1t20 -1q103 0 155.5 51t88.5 190l-279 942h156l188 -813h21l180 813h160l-289 -958q-61 -203 -143 -277.5t-234 -74.5q-7 0 -22 1t-23 1v127z" />
<glyph unicode="z" horiz-adv-x="711" d="M68 0v119l442 758h-440v118h583v-133l-442 -743h467v-119h-610z" />
<glyph unicode="{" horiz-adv-x="1024" d="M174 477v109q9 0 23.5 -1t21.5 -1q138 0 195 63t57 217v242q0 223 70 297t266 74h47v-107h-37q-131 0 -177 -49.5t-46 -204.5v-242q0 -168 -43.5 -240t-153.5 -104q110 -31 153.5 -103t43.5 -241v-241q0 -155 45 -204.5t170 -49.5q7 0 22 1t23 1v-107h-47 q-197 0 -266.5 72.5t-69.5 296.5v244q0 154 -57 217t-195 63q-7 0 -21.5 -1t-23.5 -1z" />
<glyph unicode="|" horiz-adv-x="1024" d="M459 -483v2048h108v-2048h-108z" />
<glyph unicode="}" horiz-adv-x="1024" d="M172 -307h39q130 0 175.5 49t45.5 203v241q0 171 43 242t154 102q-111 32 -154 103t-43 241v242q0 157 -45 206.5t-170 49.5q-7 0 -22 -1t-23 -1v107h47q196 0 266 -74t70 -297v-242q0 -154 57 -217t195 -63q7 0 22 1t23 1v-109q-8 0 -23 1t-22 1q-138 0 -195 -63 t-57 -217v-244q0 -223 -69.5 -296t-266.5 -73h-47v107z" />
<glyph unicode="~" horiz-adv-x="1706" d="M178 471v113q106 73 202 109t185 36q104 0 272 -61q11 -4 18 -7q9 -3 31 -11q167 -60 257 -60q85 0 177 38t210 122v-113q-102 -72 -198 -107.5t-189 -35.5q-99 0 -260 57q-20 7 -29 10l-16 6q-176 64 -273 64q-83 0 -175 -38t-212 -122z" />
<glyph unicode="&#xa0;" />
<glyph unicode="&#xa2;" d="M106 526q0 223 76 357.5t219 167.5v120h97v-120q59 -3 115 -32t120 -89v-142h-96q-32 78 -62 109t-77 39v-817q51 10 82.5 44t52.5 103h100v-139q-57 -57 -113.5 -87.5t-121.5 -39.5v-117h-97v121q-145 33 -220 165.5t-75 356.5zM256 526q0 -161 37.5 -263.5 t107.5 -135.5v805q-73 -47 -109 -146.5t-36 -259.5z" />
<glyph unicode="&#xa3;" d="M59 627v110h76q18 0 36 -5.5t38 -16.5l18 22q-20 28 -29.5 96.5t-9.5 204.5q0 157 96 256t253 99q69 0 131.5 -16.5t126.5 -51.5v-164h-93q-29 67 -73 99t-105 32q-91 0 -136.5 -62.5t-45.5 -189.5q0 -52 7 -124t7 -91q0 -23 -4.5 -44.5t-13.5 -41.5l16 -20q19 10 39 14 t58 4h208v-110h-219q-19 0 -38.5 5.5t-40.5 16.5l-19 -20q15 -27 22 -55.5t7 -63.5q0 -145 -33 -235t-109 -160l27 -31q50 28 102 40.5t129 12.5h320v-137h-731v111q74 62 106.5 136.5t32.5 184.5q0 12 -1 43.5t-1 50.5q0 21 4.5 46t13.5 55l-18 20q-20 -10 -40 -15t-44 -5 h-70z" />
<glyph unicode="&#xa4;" d="M23 518l18 82h113v94q0 39 0.5 60t1.5 34h-125l22 82h107q21 269 117 397t274 128q97 0 180 -32t150 -95v-181h-103q-33 104 -87.5 148.5t-139.5 44.5q-107 0 -165 -99t-73 -311h459l-22 -82h-441q0 -13 -1 -46.5t-1 -47.5q0 -39 0.5 -61.5t1.5 -32.5h387l-22 -82h-363 q14 -225 71.5 -328.5t168.5 -103.5q85 0 139.5 44.5t87.5 148.5h103v-181q-67 -62 -150 -94.5t-180 -32.5q-181 0 -277 133.5t-114 413.5h-137z" />
<glyph unicode="&#xa8;" horiz-adv-x="1024" d="M268 1221v178h170v-178h-170zM586 1221v178h170v-178h-170z" />
<glyph unicode="&#xa9;" horiz-adv-x="1706" d="M121 723q0 145 56.5 279.5t162.5 242.5q101 103 232 157t280 54t283.5 -55.5t238.5 -159.5q102 -102 156.5 -235.5t54.5 -282.5q0 -150 -53.5 -281t-157.5 -233q-107 -106 -242 -162.5t-280 -56.5t-278 55.5t-238 161.5q-105 104 -160 237t-55 279zM201 723 q0 -129 49.5 -247t142.5 -212q94 -93 212 -142.5t247 -49.5q130 0 250.5 50t216.5 144q91 89 138.5 206t47.5 251q0 132 -48.5 251t-139.5 210q-94 94 -213 143t-252 49q-132 0 -249 -48t-208 -140q-94 -96 -144 -215.5t-50 -249.5zM469 727q0 203 107.5 326t283.5 123 q135 0 226.5 -72t103.5 -189h-117q-18 80 -75 124t-142 44q-122 0 -190 -95t-68 -267q0 -166 69 -260t189 -94q89 0 151 50.5t78 137.5h115q-11 -125 -108.5 -205t-241.5 -80q-177 0 -279 122t-102 335z" />
<glyph unicode="&#xaa;" horiz-adv-x="682" d="M57 821q0 109 108 174.5t316 81.5q1 8 1.5 18t0.5 27q0 83 -35 120.5t-112 37.5q-60 0 -96.5 -23.5t-59.5 -76.5h-78v108q61 36 119.5 53t120.5 17q71 0 126.5 -23t88.5 -65q20 -27 28.5 -65.5t8.5 -125.5v-20v-39v-379h-109v59h-14q-44 -40 -89.5 -59.5t-96.5 -19.5 q-95 0 -161.5 58.5t-66.5 141.5zM168 831q0 -55 41 -89.5t108 -34.5q48 0 88.5 17t77.5 52v240q-151 -12 -233 -60t-82 -125z" />
<glyph unicode="&#xac;" horiz-adv-x="1706" d="M254 758v100h1198v-502h-96v402h-1102z" />
<glyph unicode="&#xad;" horiz-adv-x="569" d="M72 541v141h426v-141h-426z" />
<glyph unicode="&#xae;" horiz-adv-x="1706" d="M121 723q0 144 56.5 279.5t162.5 242.5q101 103 232 157t280 54q152 0 285.5 -55t236.5 -160q102 -102 156.5 -235.5t54.5 -282.5q0 -150 -53.5 -281t-157.5 -233q-107 -106 -242 -162.5t-280 -56.5q-147 0 -279.5 55.5t-236.5 161.5q-105 104 -160 237t-55 279zM201 723 q0 -129 49.5 -247t142.5 -212q94 -93 212 -142.5t247 -49.5q130 0 250.5 50t216.5 144q91 89 138.5 204.5t47.5 250.5q0 134 -48 253t-138 210q-94 93 -213.5 142.5t-253.5 49.5q-130 0 -246.5 -48t-208.5 -140q-95 -97 -145.5 -216.5t-50.5 -248.5zM565 313v844h309 q178 0 263.5 -57t85.5 -176q0 -89 -54 -149t-145 -73l188 -389h-145l-178 371h-197v-371h-127zM692 768h158q134 0 188 33.5t54 113.5q0 83 -57 119.5t-185 36.5h-158v-303z" />
<glyph unicode="&#xaf;" horiz-adv-x="1024" d="M258 1198v119h508v-119h-508z" />
<glyph unicode="&#xb0;" horiz-adv-x="674" d="M59 1174q0 116 81.5 197t197.5 81q115 0 195.5 -81.5t80.5 -196.5t-81.5 -197t-196.5 -82q-117 0 -197 81t-80 198zM129 1174q0 -87 61 -147t148 -60t147 60t60 147q0 86 -60.5 147t-146.5 61t-147.5 -61t-61.5 -147z" />
<glyph unicode="&#xb1;" horiz-adv-x="1706" d="M254 51v99h1198v-99h-1198zM254 723v98h551v348h98v-348h549v-98h-549v-348h-98v348h-551z" />
<glyph unicode="&#xb4;" horiz-adv-x="1024" d="M379 1116v35q62 52 114.5 114.5t94.5 135.5h196v-55q-84 -45 -160.5 -103.5t-140.5 -126.5h-104z" />
<glyph unicode="&#xb5;" horiz-adv-x="1110" d="M-111 -426l316 1491h139l-125 -592q-8 -39 -12 -73t-4 -66q0 -117 58 -180.5t167 -63.5q125 0 215 107.5t133 310.5l121 557h139l-164 -770q-12 -55 -17 -85t-5 -48q0 -33 17 -49.5t51 -16.5q7 0 16.5 0.5t19.5 1.5l-20 -110q-19 -5 -41 -8t-45 -3q-70 0 -103.5 36 t-33.5 110v14q-42 -77 -120 -119.5t-179 -42.5q-92 0 -161 40t-108 116l-114 -557h-140z" />
<glyph unicode="&#xb6;" horiz-adv-x="1024" d="M84 1130q0 157 107.5 253t285.5 96h463v-70h-127v-1409h-82v1409h-186v-1409h-84v782q-174 8 -275.5 102.5t-101.5 245.5z" />
<glyph unicode="&#xb8;" horiz-adv-x="1024" d="M309 -303q81 -17 136 -25t96 -8q60 0 88 19.5t28 60.5q0 43 -30 63.5t-92 20.5q-18 0 -31 -0.5t-26 -1.5l-1 174h70v-96h22q105 0 160 -41t55 -119q0 -82 -60 -124t-179 -42q-41 0 -94 8.5t-142 30.5v80z" />
<glyph unicode="&#xba;" horiz-adv-x="682" d="M66 993q0 171 73.5 268t202.5 97q131 0 203.5 -97t72.5 -272q0 -177 -71.5 -272.5t-204.5 -95.5q-131 0 -203.5 97.5t-72.5 274.5zM176 1001q0 -147 42.5 -224t123.5 -77q78 0 121 76t43 213t-44 214t-120 77t-121 -74.5t-45 -204.5z" />
<glyph unicode="&#xc0;" horiz-adv-x="1024" d="M57 0l349 1337h208l353 -1337h-174l-91 340h-387l-96 -340h-162zM248 1719v55h196q38 -69 90 -131.5t119 -118.5v-35h-104q-64 68 -140 126.5t-161 103.5zM326 459h362l-74 278q-29 115 -49 232t-30 235h-64q-10 -129 -28 -245t-46 -222z" />
<glyph unicode="&#xc1;" horiz-adv-x="1024" d="M57 0l349 1337h208l353 -1337h-174l-91 340h-387l-96 -340h-162zM326 459h362l-74 278q-29 115 -49 232t-30 235h-64q-10 -129 -28 -245t-46 -222zM379 1489v35q62 52 114.5 114.5t94.5 135.5h196v-55q-84 -45 -160.5 -103.5t-140.5 -126.5h-104z" />
<glyph unicode="&#xc2;" horiz-adv-x="1024" d="M57 0l349 1337h208l353 -1337h-174l-91 340h-387l-96 -340h-162zM225 1489v58q49 26 98 85.5t89 141.5h198q34 -75 82.5 -134.5t104.5 -92.5v-58h-90q-60 24 -99.5 66.5t-70.5 120.5h-50q-28 -73 -69 -118t-101 -69h-92zM326 459h362l-74 278q-29 115 -49 232t-30 235 h-64q-10 -129 -28 -245t-46 -222z" />
<glyph unicode="&#xc3;" horiz-adv-x="1024" d="M57 0l349 1337h208l353 -1337h-174l-91 340h-387l-96 -340h-162zM229 1526q24 96 74 146.5t123 50.5q48 0 118 -30t91 -36q19 25 28 41t15 33h127q-28 -98 -77.5 -148.5t-117.5 -50.5q-33 0 -88.5 17t-124.5 49q-15 -12 -25.5 -30t-17.5 -42h-125zM326 459h362l-74 278 q-29 115 -49 232t-30 235h-64q-10 -129 -28 -245t-46 -222z" />
<glyph unicode="&#xc4;" horiz-adv-x="1024" d="M57 0l349 1337h208l353 -1337h-174l-91 340h-387l-96 -340h-162zM268 1594v178h170v-178h-170zM326 459h362l-74 278q-29 115 -49 232t-30 235h-64q-10 -129 -28 -245t-46 -222zM586 1594v178h170v-178h-170z" />
<glyph unicode="&#xc5;" horiz-adv-x="1024" d="M57 0l349 1337h208l353 -1337h-174l-91 340h-387l-96 -340h-162zM315 1684q0 82 57.5 140t139.5 58q81 0 140 -58.5t59 -139.5q0 -82 -59 -140.5t-140 -58.5q-82 0 -139.5 58t-57.5 141zM326 459h362l-74 278q-29 115 -49 232t-30 235h-64q-10 -129 -28 -245t-46 -222z M408 1684q0 -44 30.5 -75.5t73.5 -31.5t73.5 31.5t30.5 75.5q0 43 -30.5 73.5t-73.5 30.5t-73.5 -30.5t-30.5 -73.5z" />
<glyph unicode="&#xc7;" horiz-adv-x="995" d="M86 676q0 326 131.5 509t364.5 183q82 0 168 -30.5t186 -96.5v-186h-102q-46 101 -107.5 146.5t-151.5 45.5q-161 0 -245 -151.5t-84 -444.5q0 -268 86 -411.5t246 -143.5q94 0 157 49t99 150h102v-193q-99 -68 -188 -99.5t-185 -31.5q-226 0 -351.5 185.5t-125.5 519.5z M362 -303q81 -17 136 -25t96 -8q60 0 88 19.5t28 60.5q0 43 -30 63.5t-92 20.5q-18 0 -31 -0.5t-26 -1.5l-1 174h70v-96h22q105 0 160 -41t55 -119q0 -82 -60 -124t-179 -42q-41 0 -94 8.5t-142 30.5v80z" />
<glyph unicode="&#xc8;" d="M141 0v1337h686v-114h-534v-453h506v-121h-506v-530h561v-119h-713zM211 1719v55h196q38 -69 90 -131.5t119 -118.5v-35h-104q-64 68 -140 126.5t-161 103.5z" />
<glyph unicode="&#xc9;" d="M141 0v1337h686v-114h-534v-453h506v-121h-506v-530h561v-119h-713zM342 1489v35q62 52 114.5 114.5t94.5 135.5h196v-55q-84 -45 -160.5 -103.5t-140.5 -126.5h-104z" />
<glyph unicode="&#xca;" d="M141 0v1337h686v-114h-534v-453h506v-121h-506v-530h561v-119h-713zM188 1489v58q49 26 98 85.5t89 141.5h198q34 -75 82.5 -134.5t104.5 -92.5v-58h-90q-60 24 -99.5 66.5t-70.5 120.5h-50q-28 -73 -69 -118t-101 -69h-92z" />
<glyph unicode="&#xcb;" d="M141 0v1337h686v-114h-534v-453h506v-121h-506v-530h561v-119h-713zM231 1594v178h170v-178h-170zM549 1594v178h170v-178h-170z" />
<glyph unicode="&#xcc;" horiz-adv-x="682" d="M57 0v100h209v1137h-209v100h570v-100h-209v-1137h209v-100h-570zM78 1719v55h196q38 -69 90 -131.5t119 -118.5v-35h-104q-64 68 -140 126.5t-161 103.5z" />
<glyph unicode="&#xcd;" horiz-adv-x="682" d="M57 0v100h209v1137h-209v100h570v-100h-209v-1137h209v-100h-570zM209 1489v35q62 52 114.5 114.5t94.5 135.5h196v-55q-84 -45 -160.5 -103.5t-140.5 -126.5h-104z" />
<glyph unicode="&#xce;" horiz-adv-x="682" d="M55 1489v58q49 26 98 85.5t89 141.5h198q34 -75 82.5 -134.5t104.5 -92.5v-58h-90q-60 24 -99.5 66.5t-70.5 120.5h-50q-28 -73 -69 -118t-101 -69h-92zM57 0v100h209v1137h-209v100h570v-100h-209v-1137h209v-100h-570z" />
<glyph unicode="&#xcf;" horiz-adv-x="682" d="M57 0v100h209v1137h-209v100h570v-100h-209v-1137h209v-100h-570zM98 1594v178h170v-178h-170zM416 1594v178h170v-178h-170z" />
<glyph unicode="&#xd1;" horiz-adv-x="1139" d="M141 0v1337h193l395 -774q39 -78 66 -159.5t45 -172.5h39q-13 122 -20 216t-7 151v739h143v-1337h-137l-469 938q-28 55 -51 127.5t-41 161.5h-35q10 -95 15.5 -180t5.5 -154v-893h-142zM286 1526q24 96 74 146.5t123 50.5q48 0 118 -30t91 -36q19 25 28 41t15 33h127 q-28 -98 -77.5 -148.5t-117.5 -50.5q-33 0 -88.5 17t-124.5 49q-15 -12 -25.5 -30t-17.5 -42h-125z" />
<glyph unicode="&#xd2;" horiz-adv-x="1139" d="M86 672q0 344 122.5 519t362.5 175q238 0 360 -174.5t122 -515.5q0 -352 -121 -528.5t-361 -176.5q-239 0 -362 178t-123 523zM244 670q0 -294 80.5 -437t244.5 -143q161 0 242.5 137t81.5 406q0 320 -78 467t-246 147q-164 0 -244.5 -143.5t-80.5 -433.5zM305 1719v55 h196q38 -69 90 -131.5t119 -118.5v-35h-104q-64 68 -140 126.5t-161 103.5z" />
<glyph unicode="&#xd3;" horiz-adv-x="1139" d="M86 672q0 344 122.5 519t362.5 175q238 0 360 -174.5t122 -515.5q0 -352 -121 -528.5t-361 -176.5q-239 0 -362 178t-123 523zM244 670q0 -294 80.5 -437t244.5 -143q161 0 242.5 137t81.5 406q0 320 -78 467t-246 147q-164 0 -244.5 -143.5t-80.5 -433.5zM436 1489v35 q62 52 114.5 114.5t94.5 135.5h196v-55q-84 -45 -160.5 -103.5t-140.5 -126.5h-104z" />
<glyph unicode="&#xd4;" horiz-adv-x="1139" d="M86 672q0 344 122.5 519t362.5 175q238 0 360 -174.5t122 -515.5q0 -352 -121 -528.5t-361 -176.5q-239 0 -362 178t-123 523zM244 670q0 -294 80.5 -437t244.5 -143q161 0 242.5 137t81.5 406q0 320 -78 467t-246 147q-164 0 -244.5 -143.5t-80.5 -433.5zM282 1489v58 q49 26 98 85.5t89 141.5h198q34 -75 82.5 -134.5t104.5 -92.5v-58h-90q-60 24 -99.5 66.5t-70.5 120.5h-50q-28 -73 -69 -118t-101 -69h-92z" />
<glyph unicode="&#xd5;" horiz-adv-x="1139" d="M86 672q0 344 122.5 519t362.5 175q238 0 360 -174.5t122 -515.5q0 -352 -121 -528.5t-361 -176.5q-239 0 -362 178t-123 523zM244 670q0 -294 80.5 -437t244.5 -143q161 0 242.5 137t81.5 406q0 320 -78 467t-246 147q-164 0 -244.5 -143.5t-80.5 -433.5zM286 1526 q24 96 74 146.5t123 50.5q48 0 118 -30t91 -36q19 25 28 41t15 33h127q-28 -98 -77.5 -148.5t-117.5 -50.5q-33 0 -88.5 17t-124.5 49q-15 -12 -25.5 -30t-17.5 -42h-125z" />
<glyph unicode="&#xd6;" horiz-adv-x="1139" d="M86 672q0 344 122.5 519t362.5 175q238 0 360 -174.5t122 -515.5q0 -352 -121 -528.5t-361 -176.5q-239 0 -362 178t-123 523zM244 670q0 -294 80.5 -437t244.5 -143q161 0 242.5 137t81.5 406q0 320 -78 467t-246 147q-164 0 -244.5 -143.5t-80.5 -433.5zM325 1594v178 h170v-178h-170zM643 1594v178h170v-178h-170z" />
<glyph unicode="&#xd9;" horiz-adv-x="1110" d="M141 559v778h154v-862q0 -214 59 -295.5t205 -81.5q140 0 202 74t62 242v123v800h144v-794q0 -138 -7.5 -217t-23.5 -125q-39 -113 -137 -171.5t-250 -58.5q-142 0 -233.5 56t-139.5 172q-19 46 -27 115t-8 245zM291 1719v55h196q38 -69 90 -131.5t119 -118.5v-35h-104 q-64 68 -140 126.5t-161 103.5z" />
<glyph unicode="&#xda;" horiz-adv-x="1110" d="M141 559v778h154v-862q0 -214 59 -295.5t205 -81.5q140 0 202 74t62 242v123v800h144v-794q0 -138 -7.5 -217t-23.5 -125q-39 -113 -137 -171.5t-250 -58.5q-142 0 -233.5 56t-139.5 172q-19 46 -27 115t-8 245zM422 1489v35q62 52 114.5 114.5t94.5 135.5h196v-55 q-84 -45 -160.5 -103.5t-140.5 -126.5h-104z" />
<glyph unicode="&#xdb;" horiz-adv-x="1110" d="M141 559v778h154v-862q0 -214 59 -295.5t205 -81.5q140 0 202 74t62 242v123v800h144v-794q0 -138 -7.5 -217t-23.5 -125q-39 -113 -137 -171.5t-250 -58.5q-142 0 -233.5 56t-139.5 172q-19 46 -27 115t-8 245zM268 1489v58q49 26 98 85.5t89 141.5h198 q34 -75 82.5 -134.5t104.5 -92.5v-58h-90q-60 24 -99.5 66.5t-70.5 120.5h-50q-28 -73 -69 -118t-101 -69h-92z" />
<glyph unicode="&#xdc;" horiz-adv-x="1110" d="M141 559v778h154v-862q0 -214 59 -295.5t205 -81.5q140 0 202 74t62 242v123v800h144v-794q0 -138 -7.5 -217t-23.5 -125q-39 -113 -137 -171.5t-250 -58.5q-142 0 -233.5 56t-139.5 172q-19 46 -27 115t-8 245zM311 1594v178h170v-178h-170zM629 1594v178h170v-178h-170 z" />
<glyph unicode="&#xe0;" d="M76 256q0 157 143.5 250.5t421.5 116.5q1 11 1.5 24.5t0.5 38.5q0 119 -46 173t-148 54q-82 0 -130.5 -33t-78.5 -110h-103v156q79 51 156.5 74.5t161.5 23.5q94 0 168 -33t118 -94q27 -37 38.5 -91t11.5 -181v-29v-55v-541h-144v84l-18 2q-59 -59 -119.5 -87t-130.5 -28 q-127 0 -215 83t-88 202zM191 1346v55h196q38 -69 90 -131.5t119 -118.5v-35h-104q-64 68 -140 126.5t-161 103.5zM223 272q0 -79 55 -128.5t146 -49.5q61 0 115 24t106 75v342q-201 -17 -311.5 -85.5t-110.5 -177.5z" />
<glyph unicode="&#xe1;" d="M76 256q0 157 143.5 250.5t421.5 116.5q1 11 1.5 24.5t0.5 38.5q0 119 -46 173t-148 54q-82 0 -130.5 -33t-78.5 -110h-103v156q79 51 156.5 74.5t161.5 23.5q94 0 168 -33t118 -94q27 -37 38.5 -91t11.5 -181v-29v-55v-541h-144v84l-18 2q-59 -59 -119.5 -87t-130.5 -28 q-127 0 -215 83t-88 202zM223 272q0 -79 55 -128.5t146 -49.5q61 0 115 24t106 75v342q-201 -17 -311.5 -85.5t-110.5 -177.5zM322 1116v35q62 52 114.5 114.5t94.5 135.5h196v-55q-84 -45 -160.5 -103.5t-140.5 -126.5h-104z" />
<glyph unicode="&#xe2;" d="M76 256q0 157 143.5 250.5t421.5 116.5q1 11 1.5 24.5t0.5 38.5q0 119 -46 173t-148 54q-82 0 -130.5 -33t-78.5 -110h-103v156q79 51 156.5 74.5t161.5 23.5q94 0 168 -33t118 -94q27 -37 38.5 -91t11.5 -181v-29v-55v-541h-144v84l-18 2q-59 -59 -119.5 -87t-130.5 -28 q-127 0 -215 83t-88 202zM168 1116v58q49 26 98 85.5t89 141.5h198q34 -75 82.5 -134.5t104.5 -92.5v-58h-90q-60 24 -99.5 66.5t-70.5 120.5h-50q-28 -73 -69 -118t-101 -69h-92zM223 272q0 -79 55 -128.5t146 -49.5q61 0 115 24t106 75v342q-201 -17 -311.5 -85.5 t-110.5 -177.5z" />
<glyph unicode="&#xe3;" d="M76 256q0 157 143.5 250.5t421.5 116.5q1 11 1.5 24.5t0.5 38.5q0 119 -46 173t-148 54q-82 0 -130.5 -33t-78.5 -110h-103v156q79 51 156.5 74.5t161.5 23.5q94 0 168 -33t118 -94q27 -37 38.5 -91t11.5 -181v-29v-55v-541h-144v84l-18 2q-59 -59 -119.5 -87t-130.5 -28 q-127 0 -215 83t-88 202zM172 1153q24 96 74 146.5t123 50.5q48 0 118 -30t91 -36q19 25 28 41t15 33h127q-28 -98 -77.5 -148.5t-117.5 -50.5q-33 0 -88.5 17t-124.5 49q-15 -12 -25.5 -30t-17.5 -42h-125zM223 272q0 -79 55 -128.5t146 -49.5q61 0 115 24t106 75v342 q-201 -17 -311.5 -85.5t-110.5 -177.5z" />
<glyph unicode="&#xe4;" d="M76 256q0 157 143.5 250.5t421.5 116.5q1 11 1.5 24.5t0.5 38.5q0 119 -46 173t-148 54q-82 0 -130.5 -33t-78.5 -110h-103v156q79 51 156.5 74.5t161.5 23.5q94 0 168 -33t118 -94q27 -37 38.5 -91t11.5 -181v-29v-55v-541h-144v84l-18 2q-59 -59 -119.5 -87t-130.5 -28 q-127 0 -215 83t-88 202zM211 1221v178h170v-178h-170zM223 272q0 -79 55 -128.5t146 -49.5q61 0 115 24t106 75v342q-201 -17 -311.5 -85.5t-110.5 -177.5zM529 1221v178h170v-178h-170z" />
<glyph unicode="&#xe5;" d="M76 256q0 157 143.5 250.5t421.5 116.5q1 11 1.5 24.5t0.5 38.5q0 119 -46 173t-148 54q-82 0 -130.5 -33t-78.5 -110h-103v156q79 51 156.5 74.5t161.5 23.5q94 0 168 -33t118 -94q27 -37 38.5 -91t11.5 -181v-29v-55v-541h-144v84l-18 2q-59 -59 -119.5 -87t-130.5 -28 q-127 0 -215 83t-88 202zM223 272q0 -79 55 -128.5t146 -49.5q61 0 115 24t106 75v342q-201 -17 -311.5 -85.5t-110.5 -177.5zM258 1311q0 82 57.5 140t139.5 58q81 0 140 -58.5t59 -139.5q0 -82 -59 -140.5t-140 -58.5q-82 0 -139.5 58t-57.5 141zM351 1311 q0 -44 30.5 -75.5t73.5 -31.5t73.5 31.5t30.5 75.5q0 43 -30.5 73.5t-73.5 30.5t-73.5 -30.5t-30.5 -73.5z" />
<glyph unicode="&#xe7;" horiz-adv-x="797" d="M88 494q0 249 95.5 389.5t262.5 140.5q71 0 137.5 -30.5t131.5 -92.5v-143h-97q-29 76 -73 114.5t-101 38.5q-96 0 -151 -110.5t-55 -304.5t55 -303t151 -109q61 0 102.5 37.5t67.5 116.5h101v-142q-60 -64 -125 -94.5t-144 -30.5q-167 0 -262.5 139t-95.5 384zM250 -303 q81 -17 136 -25t96 -8q60 0 88 19.5t28 60.5q0 43 -30 63.5t-92 20.5q-18 0 -31 -0.5t-26 -1.5l-1 174h70v-96h22q105 0 160 -41t55 -119q0 -82 -60 -124t-179 -42q-41 0 -94 8.5t-142 30.5v80z" />
<glyph unicode="&#xe8;" d="M86 494q0 249 97.5 389.5t271.5 140.5q176 0 272 -139t96 -396v-38h-585v-25q0 -158 67 -248t184 -90q73 0 134.5 31.5t95.5 85.5h100v-111q-75 -65 -154.5 -94t-183.5 -29q-193 0 -294 133t-101 390zM191 1346v55h196q38 -69 90 -131.5t119 -118.5v-35h-104 q-64 68 -140 126.5t-161 103.5zM238 563h435q-7 167 -64 257.5t-154 90.5q-102 0 -157.5 -88.5t-59.5 -259.5z" />
<glyph unicode="&#xe9;" d="M86 494q0 249 97.5 389.5t271.5 140.5q176 0 272 -139t96 -396v-38h-585v-25q0 -158 67 -248t184 -90q73 0 134.5 31.5t95.5 85.5h100v-111q-75 -65 -154.5 -94t-183.5 -29q-193 0 -294 133t-101 390zM238 563h435q-7 167 -64 257.5t-154 90.5q-102 0 -157.5 -88.5 t-59.5 -259.5zM322 1116v35q62 52 114.5 114.5t94.5 135.5h196v-55q-84 -45 -160.5 -103.5t-140.5 -126.5h-104z" />
<glyph unicode="&#xea;" d="M86 494q0 249 97.5 389.5t271.5 140.5q176 0 272 -139t96 -396v-38h-585v-25q0 -158 67 -248t184 -90q73 0 134.5 31.5t95.5 85.5h100v-111q-75 -65 -154.5 -94t-183.5 -29q-193 0 -294 133t-101 390zM168 1116v58q49 26 98 85.5t89 141.5h198q34 -75 82.5 -134.5 t104.5 -92.5v-58h-90q-60 24 -99.5 66.5t-70.5 120.5h-50q-28 -73 -69 -118t-101 -69h-92zM238 563h435q-7 167 -64 257.5t-154 90.5q-102 0 -157.5 -88.5t-59.5 -259.5z" />
<glyph unicode="&#xeb;" d="M86 494q0 249 97.5 389.5t271.5 140.5q176 0 272 -139t96 -396v-38h-585v-25q0 -158 67 -248t184 -90q73 0 134.5 31.5t95.5 85.5h100v-111q-75 -65 -154.5 -94t-183.5 -29q-193 0 -294 133t-101 390zM211 1221v178h170v-178h-170zM238 563h435q-7 167 -64 257.5 t-154 90.5q-102 0 -157.5 -88.5t-59.5 -259.5zM529 1221v178h170v-178h-170z" />
<glyph unicode="&#xec;" horiz-adv-x="426" d="M-51 1346v55h196q38 -69 90 -131.5t119 -118.5v-35h-104q-64 68 -140 126.5t-161 103.5zM141 0v995h144v-995h-144z" />
<glyph unicode="&#xed;" horiz-adv-x="426" d="M80 1116v35q62 52 114.5 114.5t94.5 135.5h196v-55q-84 -45 -160.5 -103.5t-140.5 -126.5h-104zM141 0v995h144v-995h-144z" />
<glyph unicode="&#xee;" horiz-adv-x="426" d="M-74 1116v58q49 26 98 85.5t89 141.5h198q34 -75 82.5 -134.5t104.5 -92.5v-58h-90q-60 24 -99.5 66.5t-70.5 120.5h-50q-28 -73 -69 -118t-101 -69h-92zM141 0v995h144v-995h-144z" />
<glyph unicode="&#xef;" horiz-adv-x="426" d="M-31 1221v178h170v-178h-170zM141 0v995h144v-995h-144zM287 1221v178h170v-178h-170z" />
<glyph unicode="&#xf1;" d="M141 0v995h144v-82l20 -6q41 58 93.5 85.5t123.5 27.5q136 0 203.5 -86.5t67.5 -261.5v-84v-588h-144v623q0 162 -37 222t-127 60q-55 0 -103.5 -26t-96.5 -82v-797h-144zM172 1153q24 96 74 146.5t123 50.5q48 0 118 -30t91 -36q19 25 28 41t15 33h127 q-28 -98 -77.5 -148.5t-117.5 -50.5q-33 0 -88.5 17t-124.5 49q-15 -12 -25.5 -30t-17.5 -42h-125z" />
<glyph unicode="&#xf2;" d="M86 504q0 242 99 381t270 139q174 0 271 -138.5t97 -387.5q0 -254 -95 -390.5t-273 -136.5q-175 0 -272 140t-97 393zM191 1346v55h196q38 -69 90 -131.5t119 -118.5v-35h-104q-64 68 -140 126.5t-161 103.5zM236 516q0 -211 56 -321.5t163 -110.5q104 0 161.5 108.5 t57.5 305.5q0 194 -58.5 303.5t-160.5 109.5q-101 0 -160 -105.5t-59 -289.5z" />
<glyph unicode="&#xf3;" d="M86 504q0 242 99 381t270 139q174 0 271 -138.5t97 -387.5q0 -254 -95 -390.5t-273 -136.5q-175 0 -272 140t-97 393zM236 516q0 -211 56 -321.5t163 -110.5q104 0 161.5 108.5t57.5 305.5q0 194 -58.5 303.5t-160.5 109.5q-101 0 -160 -105.5t-59 -289.5zM322 1116v35 q62 52 114.5 114.5t94.5 135.5h196v-55q-84 -45 -160.5 -103.5t-140.5 -126.5h-104z" />
<glyph unicode="&#xf4;" d="M86 504q0 242 99 381t270 139q174 0 271 -138.5t97 -387.5q0 -254 -95 -390.5t-273 -136.5q-175 0 -272 140t-97 393zM168 1116v58q49 26 98 85.5t89 141.5h198q34 -75 82.5 -134.5t104.5 -92.5v-58h-90q-60 24 -99.5 66.5t-70.5 120.5h-50q-28 -73 -69 -118t-101 -69 h-92zM236 516q0 -211 56 -321.5t163 -110.5q104 0 161.5 108.5t57.5 305.5q0 194 -58.5 303.5t-160.5 109.5q-101 0 -160 -105.5t-59 -289.5z" />
<glyph unicode="&#xf5;" d="M86 504q0 242 99 381t270 139q174 0 271 -138.5t97 -387.5q0 -254 -95 -390.5t-273 -136.5q-175 0 -272 140t-97 393zM172 1153q24 96 74 146.5t123 50.5q48 0 118 -30t91 -36q19 25 28 41t15 33h127q-28 -98 -77.5 -148.5t-117.5 -50.5q-33 0 -88.5 17t-124.5 49 q-15 -12 -25.5 -30t-17.5 -42h-125zM236 516q0 -211 56 -321.5t163 -110.5q104 0 161.5 108.5t57.5 305.5q0 194 -58.5 303.5t-160.5 109.5q-101 0 -160 -105.5t-59 -289.5z" />
<glyph unicode="&#xf6;" d="M86 504q0 242 99 381t270 139q174 0 271 -138.5t97 -387.5q0 -254 -95 -390.5t-273 -136.5q-175 0 -272 140t-97 393zM211 1221v178h170v-178h-170zM236 516q0 -211 56 -321.5t163 -110.5q104 0 161.5 108.5t57.5 305.5q0 194 -58.5 303.5t-160.5 109.5 q-101 0 -160 -105.5t-59 -289.5zM529 1221v178h170v-178h-170z" />
<glyph unicode="&#xf7;" horiz-adv-x="1706" d="M254 561v98h1198v-98h-1198zM748 258q0 44 31 75.5t75 31.5q45 0 76 -31t31 -76q0 -44 -31 -75t-76 -31t-75.5 31t-30.5 75zM748 963q0 44 31.5 76t74.5 32q44 0 75.5 -32t31.5 -76q0 -45 -31 -76t-76 -31t-75.5 30.5t-30.5 76.5z" />
<glyph unicode="&#xf9;" d="M119 410v585h141v-622q0 -159 38.5 -221t129.5 -62q55 0 103.5 26t99.5 83v796h141v-995h-141v82l-23 6q-41 -58 -93.5 -85.5t-123.5 -27.5q-91 0 -155.5 44.5t-96.5 130.5q-11 29 -15.5 77t-4.5 183zM191 1346v55h196q38 -69 90 -131.5t119 -118.5v-35h-104 q-64 68 -140 126.5t-161 103.5z" />
<glyph unicode="&#xfa;" d="M119 410v585h141v-622q0 -159 38.5 -221t129.5 -62q55 0 103.5 26t99.5 83v796h141v-995h-141v82l-23 6q-41 -58 -93.5 -85.5t-123.5 -27.5q-91 0 -155.5 44.5t-96.5 130.5q-11 29 -15.5 77t-4.5 183zM322 1116v35q62 52 114.5 114.5t94.5 135.5h196v-55 q-84 -45 -160.5 -103.5t-140.5 -126.5h-104z" />
<glyph unicode="&#xfb;" d="M119 410v585h141v-622q0 -159 38.5 -221t129.5 -62q55 0 103.5 26t99.5 83v796h141v-995h-141v82l-23 6q-41 -58 -93.5 -85.5t-123.5 -27.5q-91 0 -155.5 44.5t-96.5 130.5q-11 29 -15.5 77t-4.5 183zM168 1116v58q49 26 98 85.5t89 141.5h198q34 -75 82.5 -134.5 t104.5 -92.5v-58h-90q-60 24 -99.5 66.5t-70.5 120.5h-50q-28 -73 -69 -118t-101 -69h-92z" />
<glyph unicode="&#xfc;" d="M119 410v585h141v-622q0 -159 38.5 -221t129.5 -62q55 0 103.5 26t99.5 83v796h141v-995h-141v82l-23 6q-41 -58 -93.5 -85.5t-123.5 -27.5q-91 0 -155.5 44.5t-96.5 130.5q-11 29 -15.5 77t-4.5 183zM211 1221v178h170v-178h-170zM529 1221v178h170v-178h-170z" />
<glyph unicode="&#xff;" horiz-adv-x="797" d="M43 -186q7 0 21 -1t20 -1q103 0 155.5 51t88.5 190l-279 942h156l188 -813h21l180 813h160l-289 -958q-61 -203 -143 -277.5t-234 -74.5q-7 0 -22 1t-23 1v127zM155 1221v178h170v-178h-170zM473 1221v178h170v-178h-170z" />
<glyph unicode="&#x178;" horiz-adv-x="938" d="M12 1337h176l195 -477q3 -8 11 -26q58 -141 81 -244h31q17 83 34.5 151.5t32.5 109.5l183 486h170l-371 -860v-477h-154v477zM225 1594v178h170v-178h-170zM543 1594v178h170v-178h-170z" />
<glyph unicode="&#x2c6;" horiz-adv-x="1024" d="M225 1116v58q49 26 98 85.5t89 141.5h198q34 -75 82.5 -134.5t104.5 -92.5v-58h-90q-60 24 -99.5 66.5t-70.5 120.5h-50q-28 -73 -69 -118t-101 -69h-92z" />
<glyph unicode="&#x2dc;" horiz-adv-x="1024" d="M229 1153q24 96 74 146.5t123 50.5q48 0 118 -30t91 -36q19 25 28 41t15 33h127q-28 -98 -77.5 -148.5t-117.5 -50.5q-33 0 -88.5 17t-124.5 49q-15 -12 -25.5 -30t-17.5 -42h-125z" />
<glyph unicode="&#x2000;" horiz-adv-x="941" />
<glyph unicode="&#x2001;" horiz-adv-x="1882" />
<glyph unicode="&#x2002;" horiz-adv-x="941" />
<glyph unicode="&#x2003;" horiz-adv-x="1882" />
<glyph unicode="&#x2004;" horiz-adv-x="627" />
<glyph unicode="&#x2005;" horiz-adv-x="470" />
<glyph unicode="&#x2006;" horiz-adv-x="313" />
<glyph unicode="&#x2007;" horiz-adv-x="313" />
<glyph unicode="&#x2008;" horiz-adv-x="235" />
<glyph unicode="&#x2009;" horiz-adv-x="376" />
<glyph unicode="&#x200a;" horiz-adv-x="104" />
<glyph unicode="&#x2010;" horiz-adv-x="569" d="M72 541v141h426v-141h-426z" />
<glyph unicode="&#x2011;" horiz-adv-x="569" d="M72 541v141h426v-141h-426z" />
<glyph unicode="&#x2012;" horiz-adv-x="569" d="M72 541v141h426v-141h-426z" />
<glyph unicode="&#x2013;" horiz-adv-x="1024" d="M0 541v141h1024v-141h-1024z" />
<glyph unicode="&#x2014;" horiz-adv-x="2048" d="M0 541v141h2048v-141h-2048z" />
<glyph unicode="&#x2018;" horiz-adv-x="455" d="M117 1112v225h219v-180h-94v-100q0 -77 28 -111.5t95 -40.5v-94q-140 6 -194 69.5t-54 231.5z" />
<glyph unicode="&#x2019;" horiz-adv-x="455" d="M92 811v94q66 6 93.5 40t27.5 112v100h-94v180h219v-225q0 -168 -53.5 -231.5t-192.5 -69.5z" />
<glyph unicode="&#x2022;" horiz-adv-x="1208" d="M307 762q0 123 87 209t210 86q122 0 208.5 -86.5t86.5 -208.5t-87.5 -209.5t-209.5 -87.5q-123 0 -209 87t-86 210z" />
<glyph unicode="&#x2026;" horiz-adv-x="2048" d="M234 0v203h217v-203h-217zM916 0v203h217v-203h-217zM1600 0v203h217v-203h-217z" />
<glyph unicode="&#x202f;" horiz-adv-x="376" />
<glyph unicode="&#x205f;" horiz-adv-x="470" />
<glyph unicode="&#x20ac;" d="M23 518l18 82h113v94q0 39 0.5 60t1.5 34h-125l22 82h107q21 269 117 397t274 128q97 0 180 -32t150 -95v-181h-103q-33 104 -87.5 148.5t-139.5 44.5q-107 0 -165 -99t-73 -311h459l-22 -82h-441q0 -13 -1 -46.5t-1 -47.5q0 -39 0.5 -61.5t1.5 -32.5h387l-22 -82h-363 q14 -225 71.5 -328.5t168.5 -103.5q85 0 139.5 44.5t87.5 148.5h103v-181q-67 -62 -150 -94.5t-180 -32.5q-181 0 -277 133.5t-114 413.5h-137z" />
<glyph unicode="&#x2122;" horiz-adv-x="1706" d="M264 1397v57h430v-57h-172v-473h-82v473h-176zM821 924v530h117l166 -422l156 422h116v-530h-71v467l-177 -467h-49l-186 467v-467h-72z" />
<glyph unicode="&#x25fc;" horiz-adv-x="995" d="M0 0v995h995v-995h-995z" />
</font>
</defs>
</svg>
