<?xml version="1.0" encoding="utf-8"?>
<!-- Generator: Adobe Illustrator 15.1.0, SVG Export Plug-In . SVG Version: 6.00 Build 0)  -->
<!DOCTYPE svg PUBLIC "-//W3C//DTD SVG 1.1//EN" "http://www.w3.org/Graphics/SVG/1.1/DTD/svg11.dtd">
<svg version="1.1" id="Logo_New" xmlns="http://www.w3.org/2000/svg" xmlns:xlink="http://www.w3.org/1999/xlink" x="0px" y="0px"
	 width="167px" height="45px" viewBox="0 0 167 45" enable-background="new 0 0 167 45" xml:space="preserve">
<path id="Shape_2_copy_3" fill="#FCC619" d="M141.79,21.633h-7.49c0.394-1.705,1.976-2.867,3.72-2.732
	C139.791,18.713,141.418,19.893,141.79,21.633L141.79,21.633z M165.98,29.333L152.37,42.97c-0.679,0.653-1.582,1.021-2.524,1.03
	c-0.936-0.002-1.833-0.369-2.5-1.025L140.59,36.2c2.678-0.187,5.248-1.122,7.418-2.7l-3.486-5.23
	c-1.129,0.99-3.955,1.601-5.228,1.601c-2.78,0-4.428-1.412-4.899-2.872h15.449V25.26c0-8.008-5.134-12.812-11.822-12.812
	c-6.07,0-10.561,3.634-11.94,8.615c-0.65-1.231-1.019-2.592-1.076-3.984V5.546c0.015-1.953,1.596-3.533,3.55-3.546h11.532
	c2.254,0.115,4.399,1.006,6.07,2.523l19.823,19.793c0.652,0.679,1.02,1.581,1.027,2.522c-0.004,0.933-0.371,1.826-1.025,2.49
	L165.98,29.333z"/>
<path id="profite_copy" d="M15.66,36.425c5.946,0,10.506-4.38,10.506-12.64c0-8.21-4.56-12.59-10.507-12.59
	c-2.612-0.06-5.104,1.099-6.74,3.135v-2.54H0v33.194h8.92V33.29C10.563,35.318,13.05,36.475,15.66,36.425z M12.587,28.512
	c-1.39-0.047-2.706-0.637-3.667-1.642v-6.12c0.953-1.017,2.274-1.609,3.667-1.643c2.42-0.048,4.42,1.874,4.469,4.293
	c0.002,0.128,0,0.256-0.009,0.385c0.181,2.424-1.637,4.534-4.06,4.715C12.854,28.51,12.72,28.514,12.587,28.512z M36.987,35.827
	V21.1c0.992-1.194,3.42-1.692,5.3-1.692c0.686-0.017,1.371,0.067,2.032,0.25v-8.563c-2.787,0.112-5.419,1.309-7.336,3.334v-2.64
	h-8.92V35.83h8.92L36.987,35.827z M58.771,36.427c8.525,0,13.48-5.922,13.48-12.64c0-6.718-4.955-12.59-13.48-12.59
	c-8.473,0-13.43,5.872-13.43,12.59c0,6.718,4.96,12.638,13.432,12.638L58.771,36.427z M58.771,28.514
	c-2.724,0-4.26-2.039-4.26-4.728c0-2.637,1.536-4.678,4.26-4.678c2.777,0,4.313,2.04,4.313,4.678c0,2.687-1.535,4.726-4.31,4.726
	L58.771,28.514z M85.9,35.828V19.555h4.857V11.79H85.9V10.7c0.042-1.115,0.98-1.984,2.096-1.942c0.011,0,0.022,0.001,0.033,0.001
	c0.714,0,1.408,0.226,1.984,0.646l1.635-6.07c-1.729-0.833-3.633-1.242-5.551-1.195c-5.301,0-9.119,3.584-9.119,8.56v1.096h-3.965
	v7.763h3.965v16.268h8.919H85.9z M97.988,10.05c2.775,0.012,5.035-2.229,5.047-5.005c0.012-2.775-2.229-5.035-5.006-5.047
	c-2.775-0.012-5.035,2.229-5.047,5.005c0,0.007,0,0.014,0,0.021c-0.014,2.761,2.213,5.012,4.975,5.026
	C97.967,10.05,97.978,10.05,97.988,10.05z M102.447,35.828V11.79h-8.92v24.04h8.92V35.828z M116.947,36.428
	c3.025,0,5.107-0.746,6.048-1.592l-1.585-6.768c-0.539,0.317-1.16,0.473-1.785,0.447c-1.137-0.037-2.026-0.988-1.989-2.125
	c0.001-0.038,0.004-0.076,0.007-0.115v-6.719h4.857V11.79h-4.857V5.223h-8.92v6.57h-3.965v7.762h3.965v9.306
	c0,5.027,2.924,7.564,8.227,7.564L116.947,36.428z"/>
</svg>
