<svg xmlns="http://www.w3.org/2000/svg" width="104" height="29" viewBox="0 0 104 29">
  <defs>
    <style>
      .cls-1 {
        fill: #011627;
      }

      .cls-1, .cls-2 {
        fill-rule: evenodd;
      }

      .cls-2 {
        fill: #ff9f1c;
      }
    </style>
  </defs>
  <path id="profite" class="cls-1" d="M499.751,39.716a6.444,6.444,0,0,1,4.506,1.557,4.626,4.626,0,0,1,1.413,2.577,20.539,20.539,0,0,1,.3,3.838v1.588a9.007,9.007,0,0,1-.3,2.629,5.318,5.318,0,0,1-1.413,2.577c-2.011,2.227-5.3,2.77-8.608,2.544v5.909H490V39.752C494.589,39.718,498.047,39.716,499.751,39.716Zm1.082,8.19a7.648,7.648,0,0,1-.647,3.666,2.775,2.775,0,0,1-2.393,1.338c-1.659,0-2.2-.032-2.2-0.032V44.05l0.362-.152c0.762,0,1.963-.045,2.706-0.045,1.745,0,2.169,1.25,2.169,4.052h0Zm32.893-3.394a6.2,6.2,0,0,0-1.58-2.6,7.588,7.588,0,0,0-2.447-1.581,9.111,9.111,0,0,0-3.522-.615,8.947,8.947,0,0,0-3.514.623,7.863,7.863,0,0,0-2.438,1.573,6.963,6.963,0,0,0-1.211,1.658,6.744,6.744,0,0,0-.639,2.024,18.667,18.667,0,0,0-.185,2.888,18.793,18.793,0,0,0,.185,2.9,6.841,6.841,0,0,0,.639,2.032,6.374,6.374,0,0,0,1.211,1.635,8.056,8.056,0,0,0,5.952,2.2,8.152,8.152,0,0,0,5.969-2.2,6.21,6.21,0,0,0,1.58-2.593,14.247,14.247,0,0,0,.438-3.979A14.261,14.261,0,0,0,533.726,44.512Zm-5.372,6.268a2.318,2.318,0,0,1-.664,1.277,2.63,2.63,0,0,1-3.026-.008A2.472,2.472,0,0,1,524,50.7a12.383,12.383,0,0,1-.16-2.219,12.66,12.66,0,0,1,.16-2.235,2.322,2.322,0,0,1,.664-1.331,2.148,2.148,0,0,1,1.513-.483,2.113,2.113,0,0,1,1.513.483,2.135,2.135,0,0,1,.664,1.254,12.745,12.745,0,0,1,.16,2.312A12.476,12.476,0,0,1,528.354,50.78Zm7.555-6.19V57.063h5.65V46.1h4.206V42.085h-4.206V39.467a0.967,0.967,0,0,1,1.126-1.059h3.08V34H541.66a6.435,6.435,0,0,0-3.229.74,4.718,4.718,0,0,0-1.908,1.915,5.174,5.174,0,0,0-.614,2.421v1.5m-28.465,16.49h5.65V45.193a0.967,0.967,0,0,1,1.126-1.059h2.857l1.112-4.407H513.2a6.435,6.435,0,0,0-3.229.739,4.721,4.721,0,0,0-1.908,1.915,5.175,5.175,0,0,0-.614,2.422V46.3m46.4-4.214H548.2V57.063h5.649V42.085ZM553.8,34h-5.687V38.39H553.8V34Zm2.362,10.588v7.4a5.162,5.162,0,0,0,.615,2.421,4.722,4.722,0,0,0,1.912,1.916,6.453,6.453,0,0,0,3.235.74h3.942V52.656h-2.911a0.969,0.969,0,0,1-1.143-1.043V46.1h4.054V42.085h-4.054V35.516l-5.65,1.512v3.544" transform="translate(-490 -34)"/>
  <path id="tag" class="cls-2" d="M593.368,51.131l-8.392,8.546a2.254,2.254,0,0,1-1.555.643,2.183,2.183,0,0,1-1.538-.643L569.663,47.24a6.088,6.088,0,0,1-1.556-3.787V36.227A2.222,2.222,0,0,1,570.295,34h7.11a5.978,5.978,0,0,1,3.743,1.581l12.22,12.4A2.33,2.33,0,0,1,594,49.567,2.256,2.256,0,0,1,593.368,51.131Zm-7.893-3.374a8.746,8.746,0,0,0-.974-4.152,7.181,7.181,0,0,0-2.864-2.919,8.933,8.933,0,0,0-4.494-1.077,8.044,8.044,0,0,0-5.989,2.322,8.784,8.784,0,0,0-2.294,6.452q0,8.774,8.8,8.774a10.866,10.866,0,0,0,4.082-.649,10.437,10.437,0,0,0,3.108-2.072l-3.377-3.106a5.74,5.74,0,0,1-1.6,1.078,5.8,5.8,0,0,1-2.209.339,3.489,3.489,0,0,1-2.378-.77A2.4,2.4,0,0,1,574.4,50.1h11.071V47.757ZM574.4,46.591a2.841,2.841,0,0,1,.3-1.34,2.118,2.118,0,0,1,.882-0.959,3.354,3.354,0,0,1,3.108,0,2.22,2.22,0,0,1,.9.959,2.841,2.841,0,0,1,.3,1.34H574.4Z" transform="translate(-490 -34)"/>
  <path id="e-commerce_solutions_copy" data-name="e-commerce solutions  copy" class="cls-1" d="M518.29,62.2a1.139,1.139,0,0,0,.231.419,1.059,1.059,0,0,0,.4.277,1.467,1.467,0,0,0,.569.1,2.015,2.015,0,0,0,.467-0.049,1.312,1.312,0,0,0,.289-0.093l-0.063-.382a1.432,1.432,0,0,1-.245.081,1.631,1.631,0,0,1-.4.042,0.828,0.828,0,0,1-.62-0.206,0.945,0.945,0,0,1-.228-0.6h1.725a0.573,0.573,0,0,0,0-.086V61.624a1.487,1.487,0,0,0-.271-0.978,0.965,0.965,0,0,0-.78-0.321,1.141,1.141,0,0,0-.427.083,1.043,1.043,0,0,0-.368.25,1.252,1.252,0,0,0-.257.419,1.657,1.657,0,0,0-.1.591A1.793,1.793,0,0,0,518.29,62.2Zm0.405-.782a1.124,1.124,0,0,1,.061-0.26,0.719,0.719,0,0,1,.128-0.225,0.651,0.651,0,0,1,.2-0.159,0.592,0.592,0,0,1,.274-0.061,0.524,0.524,0,0,1,.434.2,0.771,0.771,0,0,1,.152.507H518.7Zm2.14,0.265h1.2V61.256h-1.2v0.426Zm2.971,1.3c0.069-.008.134-0.018,0.2-0.029a1.627,1.627,0,0,0,.165-0.039,0.473,0.473,0,0,0,.111-0.047l-0.063-.382a1.187,1.187,0,0,1-.228.073,1.418,1.418,0,0,1-.324.034,0.962,0.962,0,0,1-.378-0.066,0.648,0.648,0,0,1-.255-0.189,0.788,0.788,0,0,1-.145-0.294,1.439,1.439,0,0,1-.046-0.377,1.067,1.067,0,0,1,.2-0.7,0.713,0.713,0,0,1,.579-0.24,1.314,1.314,0,0,1,.284.03,1.1,1.1,0,0,1,.235.078l0.1-.387a1.534,1.534,0,0,0-.324-0.093,1.993,1.993,0,0,0-.34-0.029,1.217,1.217,0,0,0-.5.1,1.089,1.089,0,0,0-.381.279,1.274,1.274,0,0,0-.239.424,1.626,1.626,0,0,0-.085.539,1.778,1.778,0,0,0,.077.537,1.147,1.147,0,0,0,.235.419,1.08,1.08,0,0,0,.388.274,1.357,1.357,0,0,0,.535.1A1.733,1.733,0,0,0,523.806,62.983Zm3-1.867a1.253,1.253,0,0,0-.245-0.424,1.08,1.08,0,0,0-.375-0.272,1.228,1.228,0,0,0-.95,0,1.08,1.08,0,0,0-.375.272,1.253,1.253,0,0,0-.245.424,1.767,1.767,0,0,0,0,1.1,1.257,1.257,0,0,0,.245.421,1.078,1.078,0,0,0,.375.272,1.229,1.229,0,0,0,.95,0,1.078,1.078,0,0,0,.375-0.272,1.257,1.257,0,0,0,.245-0.421A1.767,1.767,0,0,0,526.806,61.116Zm-0.574,1.23a0.664,0.664,0,0,1-1.042,0,1.319,1.319,0,0,1,0-1.367,0.664,0.664,0,0,1,1.042,0A1.319,1.319,0,0,1,526.232,62.346Zm1.262,0.59h0.45V60.785l0.078-.015c0.038-.007.081-0.012,0.128-0.017s0.1-.009.148-0.012,0.1,0,.145,0a0.591,0.591,0,0,1,.264.051,0.375,0.375,0,0,1,.165.159,0.793,0.793,0,0,1,.085.27,2.683,2.683,0,0,1,.024.387v1.333h0.451V61.506a2.5,2.5,0,0,0-.02-0.319,1.7,1.7,0,0,0-.058-0.279,0.757,0.757,0,0,1,.2-0.11,0.993,0.993,0,0,1,.376-0.061,0.608,0.608,0,0,1,.269.051,0.386,0.386,0,0,1,.165.159,0.773,0.773,0,0,1,.082.27,2.868,2.868,0,0,1,.022.387v1.333h0.45V61.506a2.864,2.864,0,0,0-.036-0.47,0.952,0.952,0,0,0-.14-0.372,0.688,0.688,0,0,0-.289-0.243,1.132,1.132,0,0,0-.475-0.086,1.187,1.187,0,0,0-.281.032,1.873,1.873,0,0,0-.237.074,1.211,1.211,0,0,0-.18.086c-0.048.029-.083,0.052-0.106,0.069A0.709,0.709,0,0,0,528.9,60.4a1.1,1.1,0,0,0-.407-0.066,3.476,3.476,0,0,0-.589.044c-0.17.029-.306,0.057-0.409,0.083v2.475Zm4.153,0H532.1V60.785l0.077-.015q0.059-.01.129-0.017c0.046,0,.1-0.009.147-0.012s0.1,0,.146,0a0.6,0.6,0,0,1,.264.051,0.386,0.386,0,0,1,.165.159,0.794,0.794,0,0,1,.084.27,2.534,2.534,0,0,1,.025.387v1.333h0.45V61.506a2.505,2.505,0,0,0-.019-0.319,1.7,1.7,0,0,0-.058-0.279,0.724,0.724,0,0,1,.2-0.11,0.984,0.984,0,0,1,.375-0.061,0.605,0.605,0,0,1,.269.051,0.375,0.375,0,0,1,.165.159,0.752,0.752,0,0,1,.082.27,2.868,2.868,0,0,1,.022.387v1.333h0.451V61.506a2.864,2.864,0,0,0-.036-0.47,0.953,0.953,0,0,0-.141-0.372,0.685,0.685,0,0,0-.288-0.243,1.132,1.132,0,0,0-.475-0.086,1.187,1.187,0,0,0-.281.032,1.84,1.84,0,0,0-.238.074,1.2,1.2,0,0,0-.179.086c-0.048.029-.084,0.052-0.107,0.069a0.709,0.709,0,0,0-.276-0.194,1.1,1.1,0,0,0-.407-0.066,3.476,3.476,0,0,0-.589.044c-0.169.029-.306,0.057-0.409,0.083v2.475Zm4.088-.738a1.137,1.137,0,0,0,.23.419,1.059,1.059,0,0,0,.395.277,1.471,1.471,0,0,0,.569.1,2.018,2.018,0,0,0,.468-0.049,1.3,1.3,0,0,0,.288-0.093l-0.063-.382a1.415,1.415,0,0,1-.244.081,1.642,1.642,0,0,1-.4.042,0.827,0.827,0,0,1-.62-0.206,0.934,0.934,0,0,1-.228-0.6h1.725a0.747,0.747,0,0,0,0-.086V61.624a1.493,1.493,0,0,0-.271-0.978,0.967,0.967,0,0,0-.781-0.321,1.14,1.14,0,0,0-.426.083,1.034,1.034,0,0,0-.368.25,1.221,1.221,0,0,0-.257.419,1.635,1.635,0,0,0-.1.591A1.793,1.793,0,0,0,535.735,62.2Zm0.4-.782a1.073,1.073,0,0,1,.06-0.26,0.741,0.741,0,0,1,.129-0.225,0.628,0.628,0,0,1,.2-0.159,0.589,0.589,0,0,1,.274-0.061,0.522,0.522,0,0,1,.433.2,0.771,0.771,0,0,1,.153.507h-1.25Zm2.8-1.032a2.985,2.985,0,0,0-.4.11v2.441h0.45V60.8l0.163-.037a1.158,1.158,0,0,1,.249-0.027,1.542,1.542,0,0,1,.318.027,1.446,1.446,0,0,1,.176.047l0.078-.4a0.777,0.777,0,0,0-.09-0.022l-0.133-.025c-0.048-.008-0.1-0.015-0.148-0.02s-0.094-.007-0.133-0.007A2.524,2.524,0,0,0,538.939,60.386Zm2.809,2.6c0.07-.008.135-0.018,0.2-0.029a1.543,1.543,0,0,0,.164-0.039,0.465,0.465,0,0,0,.112-0.047l-0.063-.382a1.187,1.187,0,0,1-.228.073,1.421,1.421,0,0,1-.325.034,0.96,0.96,0,0,1-.377-0.066,0.648,0.648,0,0,1-.255-0.189,0.788,0.788,0,0,1-.145-0.294,1.439,1.439,0,0,1-.046-0.377,1.067,1.067,0,0,1,.2-0.7,0.713,0.713,0,0,1,.579-0.24,1.3,1.3,0,0,1,.283.03,1.061,1.061,0,0,1,.235.078l0.1-.387a1.526,1.526,0,0,0-.325-0.093,1.99,1.99,0,0,0-.339-0.029,1.217,1.217,0,0,0-.5.1,1.076,1.076,0,0,0-.38.279,1.259,1.259,0,0,0-.24.424,1.626,1.626,0,0,0-.085.539,1.778,1.778,0,0,0,.077.537,1.147,1.147,0,0,0,.235.419,1.08,1.08,0,0,0,.388.274,1.357,1.357,0,0,0,.535.1A1.7,1.7,0,0,0,541.748,62.983Zm0.882-.784a1.123,1.123,0,0,0,.23.419,1.059,1.059,0,0,0,.395.277,1.467,1.467,0,0,0,.569.1,2.018,2.018,0,0,0,.468-0.049,1.318,1.318,0,0,0,.288-0.093l-0.063-.382a1.4,1.4,0,0,1-.245.081,1.627,1.627,0,0,1-.4.042,0.831,0.831,0,0,1-.621-0.206,0.939,0.939,0,0,1-.227-0.6h1.725a0.747,0.747,0,0,0,0-.086V61.624a1.487,1.487,0,0,0-.272-0.978,0.965,0.965,0,0,0-.78-0.321,1.136,1.136,0,0,0-.426.083,1.047,1.047,0,0,0-.369.25,1.235,1.235,0,0,0-.256.419,1.635,1.635,0,0,0-.1.591A1.793,1.793,0,0,0,542.63,62.2Zm0.4-.782a1.124,1.124,0,0,1,.061-0.26,0.739,0.739,0,0,1,.128-0.225,0.651,0.651,0,0,1,.2-0.159,0.6,0.6,0,0,1,.274-0.061,0.524,0.524,0,0,1,.434.2,0.765,0.765,0,0,1,.152.507h-1.25Zm3.618,1.132c-0.113-.039-0.2-0.069-0.247-0.088l-0.082.392a2.6,2.6,0,0,0,.256.086A1.918,1.918,0,0,0,547.1,63a1.282,1.282,0,0,0,.739-0.181,0.612,0.612,0,0,0,.259-0.534,0.792,0.792,0,0,0-.053-0.306,0.6,0.6,0,0,0-.153-0.213,0.987,0.987,0,0,0-.24-0.154c-0.094-.044-0.2-0.089-0.32-0.135-0.09-.033-0.168-0.064-0.232-0.093a0.8,0.8,0,0,1-.163-0.1,0.345,0.345,0,0,1-.1-0.115,0.327,0.327,0,0,1-.031-0.147,0.253,0.253,0,0,1,.14-0.238,0.687,0.687,0,0,1,.33-0.076,1.457,1.457,0,0,1,.373.042,1.164,1.164,0,0,1,.228.081l0.082-.392c-0.026-.01-0.062-0.021-0.109-0.034s-0.1-.025-0.162-0.037-0.128-.021-0.2-0.029a1.878,1.878,0,0,0-.213-0.012,1.049,1.049,0,0,0-.674.2,0.72,0.72,0,0,0-.189.826,0.631,0.631,0,0,0,.156.2,0.956,0.956,0,0,0,.23.145c0.088,0.041.181,0.081,0.278,0.12a2.111,2.111,0,0,1,.432.221,0.313,0.313,0,0,1,.13.265,0.249,0.249,0,0,1-.133.235,0.877,0.877,0,0,1-.409.074A1.413,1.413,0,0,1,546.652,62.55Zm4.161-1.433a1.253,1.253,0,0,0-.245-0.424,1.08,1.08,0,0,0-.375-0.272,1.228,1.228,0,0,0-.95,0,1.08,1.08,0,0,0-.375.272,1.253,1.253,0,0,0-.245.424,1.767,1.767,0,0,0,0,1.1,1.257,1.257,0,0,0,.245.421,1.078,1.078,0,0,0,.375.272,1.229,1.229,0,0,0,.95,0,1.078,1.078,0,0,0,.375-0.272,1.257,1.257,0,0,0,.245-0.421A1.767,1.767,0,0,0,550.813,61.116Zm-0.574,1.23a0.664,0.664,0,0,1-1.042,0,1.319,1.319,0,0,1,0-1.367,0.664,0.664,0,0,1,1.042,0A1.319,1.319,0,0,1,550.239,62.346Zm2.08,0.257a1.225,1.225,0,0,1-.179-0.037,0.271,0.271,0,0,1-.116-0.066,0.258,0.258,0,0,1-.063-0.118,0.738,0.738,0,0,1-.02-0.186V59.134l-0.45.078V62.27a0.722,0.722,0,0,0,.174.534,0.858,0.858,0,0,0,.591.181Zm2.517-2.215h-0.451V62.54a0.363,0.363,0,0,1-.08.017l-0.123.015c-0.046,0-.094.009-0.146,0.012s-0.1,0-.15,0a0.562,0.562,0,0,1-.489-0.2,1.165,1.165,0,0,1-.146-0.666V60.388H552.8V61.82a1.929,1.929,0,0,0,.053.473,0.979,0.979,0,0,0,.174.37,0.8,0.8,0,0,0,.32.242,1.241,1.241,0,0,0,.49.086,3.463,3.463,0,0,0,.588-0.044c0.17-.029.306-0.057,0.41-0.083V60.388Zm1.156-.789-0.45.078v2.274a2.135,2.135,0,0,0,.041.448,0.79,0.79,0,0,0,.143.326,0.615,0.615,0,0,0,.269.2,1.16,1.16,0,0,0,.424.066,1.341,1.341,0,0,0,.388-0.051,1.637,1.637,0,0,0,.237-0.086l-0.087-.377-0.172.066a0.951,0.951,0,0,1-.327.047,0.638,0.638,0,0,1-.2-0.029,0.314,0.314,0,0,1-.145-0.1,0.482,0.482,0,0,1-.088-0.2,1.454,1.454,0,0,1-.029-0.316V60.771h0.955V60.388h-0.955V59.6Zm1.94,0.789h-0.45v2.549h0.45V60.388Zm-0.022-.541a0.3,0.3,0,0,0-.206-0.517,0.3,0.3,0,1,0,0,.6A0.286,0.286,0,0,0,557.91,59.847Zm2.954,1.269a1.251,1.251,0,0,0-.244-0.424,1.074,1.074,0,0,0-.376-0.272,1.225,1.225,0,0,0-.949,0,1.074,1.074,0,0,0-.376.272,1.253,1.253,0,0,0-.245.424,1.767,1.767,0,0,0,0,1.1,1.257,1.257,0,0,0,.245.421,1.073,1.073,0,0,0,.376.272,1.227,1.227,0,0,0,.949,0,1.073,1.073,0,0,0,.376-0.272,1.255,1.255,0,0,0,.244-0.421A1.748,1.748,0,0,0,560.864,61.116Zm-0.574,1.23a0.664,0.664,0,0,1-1.042,0,1.319,1.319,0,0,1,0-1.367,0.664,0.664,0,0,1,1.042,0A1.313,1.313,0,0,1,560.29,62.346Zm1.262,0.59H562V60.785l0.079-.015q0.057-.01.126-0.017c0.047,0,.1-0.009.148-0.012s0.1,0,.151,0a0.844,0.844,0,0,1,.3.047,0.415,0.415,0,0,1,.194.149,0.69,0.69,0,0,1,.1.27,2.2,2.2,0,0,1,.031.4v1.333h0.451V61.506a2.191,2.191,0,0,0-.048-0.475,0.933,0.933,0,0,0-.168-0.37,0.784,0.784,0,0,0-.317-0.24,1.268,1.268,0,0,0-.5-0.086,3.509,3.509,0,0,0-.591.044c-0.171.029-.309,0.057-0.412,0.083v2.475Zm2.877-.387c-0.113-.039-0.2-0.069-0.247-0.088l-0.083.392c0.046,0.02.131,0.048,0.257,0.086a1.915,1.915,0,0,0,.523.056,1.286,1.286,0,0,0,.74-0.181,0.612,0.612,0,0,0,.259-0.534,0.772,0.772,0,0,0-.054-0.306,0.586,0.586,0,0,0-.152-0.213,1.007,1.007,0,0,0-.24-0.154c-0.094-.044-0.2-0.089-0.32-0.135-0.09-.033-0.168-0.064-0.233-0.093a0.815,0.815,0,0,1-.162-0.1,0.345,0.345,0,0,1-.1-0.115,0.327,0.327,0,0,1-.031-0.147,0.253,0.253,0,0,1,.14-0.238,0.687,0.687,0,0,1,.33-0.076,1.457,1.457,0,0,1,.373.042,1.164,1.164,0,0,1,.228.081l0.082-.392c-0.026-.01-0.062-0.021-0.109-0.034s-0.1-.025-0.162-0.037-0.128-.021-0.2-0.029a1.878,1.878,0,0,0-.213-0.012,1.047,1.047,0,0,0-.674.2,0.72,0.72,0,0,0-.189.826,0.643,0.643,0,0,0,.155.2,1,1,0,0,0,.23.145q0.133,0.061.279,0.12a2.071,2.071,0,0,1,.431.221,0.312,0.312,0,0,1,.131.265,0.249,0.249,0,0,1-.133.235,0.879,0.879,0,0,1-.41.074A1.411,1.411,0,0,1,564.429,62.55Z" transform="translate(-490 -34)"/>
</svg>
