<svg version="1.1" xmlns="http://www.w3.org/2000/svg" xmlns:xlink="http://www.w3.org/1999/xlink" x="0px" y="0px" viewBox="0 0 501.715 501.715" style="enable-background:new 0 0 501.715 501.715;" xml:space="preserve" width='28px'>
  <path d="M456.087,96.179l-101.053,8.289c-12.37-42.151-44.934-74.287-84.686-82.398C255.426,10.842,238.1,3.378,219.1,0.918V0h-13
    v0.74c-64,6.716-114.338,60.153-116.071,125.472l-82.888,6.796l51.292,320.703l296.28,48.004l70.592-35.174l69.268-323.271
    L456.087,96.179z M340.759,105.639l-20.519,1.683c-3.606-23.063-12.682-44.049-25.676-61.224
    C315.853,58.566,332.505,79.836,340.759,105.639z M264.74,35.225c21.275,17.067,36.557,43.121,41.507,73.245l-148.818,12.207
    c9.695-47.204,50.148-83.322,99.417-86.391C259.509,34.474,262.14,34.794,264.74,35.225z M212.326,14.253
    c10.692,0.753,20.942,3.384,30.499,7.599c-50.913,8.765-91.174,49.073-99.866,100.011l-38.96,3.196
    C106.347,65.832,153.438,17.91,212.326,14.253z M359.117,483.213l-5.656-1.442l95.579-375.235l5.655,1.44L359.117,483.213z"/>
</svg>
